<svg width="81" height="78" viewBox="0 0 81 78" fill="none" xmlns="http://www.w3.org/2000/svg">
<path fill-rule="evenodd" clip-rule="evenodd" d="M78.8698 61.7474C79.4048 61.7474 79.8911 61.5011 80.1343 61.1564C80.4747 60.7131 80.572 60.1714 80.4747 59.6789L68.2193 6.88251C68.0734 6.0945 67.3925 5.55275 66.6144 5.55275C65.8849 5.55275 65.1554 6.0945 64.9609 6.83326L60.8757 22.1009C60.049 18.3086 58.8818 14.4671 57.2283 11.2658C56.7906 10.4285 55.7693 10.133 54.9425 10.5763C54.1158 11.0195 53.824 12.0538 54.2617 12.891C59.2222 22.3471 59.5627 38.8952 59.5627 39.043C59.6599 51.7988 52.9486 56.2313 48.9607 57.7581C48.4744 57.9551 47.9881 58.0536 47.5017 58.1521V52.2421C47.6963 52.1436 47.8908 51.9958 48.0367 51.7988L52.7054 45.6918C53.289 44.953 53.1431 43.8695 52.4136 43.2785C51.6842 42.6875 50.6142 42.8353 50.0306 43.574L47.5017 46.8738V34.512C47.5017 33.5762 46.7236 32.7882 45.7996 32.7882C44.8756 32.7882 44.0974 33.5762 44.0974 34.512V38.3042L42.5898 36.7282C41.9576 36.0387 40.8877 36.0387 40.2068 36.679C39.526 37.3192 39.526 38.4027 40.1582 39.0922L43.757 42.8845C43.8543 42.983 44.0002 43.0815 44.0974 43.18V49.7796L41.7631 47.0215C41.1795 46.2828 40.1096 46.1843 39.3801 46.8245C38.6506 47.4155 38.5533 48.499 39.1855 49.2378L43.6598 54.5076C43.8057 54.6553 43.9515 54.7538 44.0974 54.8523V58.1029C44.0488 58.1029 43.9515 58.0536 43.9029 58.0536C33.4469 55.6403 32.0852 45.4455 32.1824 39.5355C32.4742 23.2829 38.067 11.8075 40.45 7.62126C41.0822 6.48851 41.8117 5.602 42.6871 4.86324C44.0002 3.73049 45.216 3.28723 46.4318 3.48423C47.5504 3.63199 48.4744 4.37074 49.1553 5.011C49.8361 5.65125 50.2252 6.24225 50.2252 6.24225C50.7115 7.07951 51.7814 7.27651 52.5595 6.78401C53.3863 6.2915 53.5808 5.208 53.0945 4.41999C52.9972 4.27224 50.7115 0.676966 46.9668 0.0859614C44.7783 -0.258791 42.5898 0.430714 40.4986 2.20373C39.3314 3.18873 38.3102 4.41999 37.4834 5.8975C35.5867 9.19727 31.7447 16.8803 29.8481 27.7647C24.7416 23.6769 19.2461 24.2186 19.0516 24.2679C13.7506 24.7111 9.66549 26.8781 6.89342 30.6704C0.911599 38.8952 3.5864 51.8481 3.68366 52.3898C3.82956 53.2271 4.55905 53.7688 5.33718 53.7688C5.43444 53.7688 5.58034 53.7688 5.67761 53.7196C6.60163 53.5226 7.18522 52.5868 6.99069 51.6511C6.94206 51.5526 4.51042 39.7325 9.61686 32.7389C11.7567 29.7839 15.0637 28.1094 19.392 27.7154C19.4893 27.6662 24.8875 27.1244 29.2645 31.8032C28.9727 34.2164 28.7781 36.7775 28.7295 39.4862C28.5836 45.6918 29.8967 50.7646 32.6201 54.5568C31.842 55.6403 28 60.8609 22.31 61.7474L22.2614 55.1478L27.3192 49.2378C27.9514 48.5483 27.9028 47.4648 27.1733 46.8245C26.4924 46.1843 25.4225 46.2335 24.7903 46.9723L22.2614 49.9273L22.2127 43.4755C22.2127 42.4905 21.4346 41.7518 20.5106 41.7518C19.5379 41.7518 18.8084 42.5398 18.8084 43.4755L18.8571 53.4733L16.2795 50.2721C15.6959 49.5333 14.626 49.4348 13.8965 50.0258C13.167 50.6168 13.0698 51.7003 13.6534 52.4391L18.9057 58.9401L19.003 74.5525H10.395L10.3463 70.2184C14.8692 68.0022 16.1336 64.6039 16.4741 62.7324C16.8145 61.0579 16.4741 59.3834 15.5987 58.0536C14.7233 56.6746 13.3616 55.8866 11.8053 55.8373C10.2004 55.7881 9.03326 56.5268 8.20651 57.5119C7.33112 56.7239 6.35846 56.4283 5.72624 56.3298C4.12136 56.0836 2.41921 56.6254 1.44656 57.8074C-0.109687 59.6789 -0.450116 62.3876 0.619803 64.7024C2.03015 67.7559 5.33718 69.6274 6.94206 70.4154L6.99069 74.5525H4.36452C3.4405 74.5525 2.66238 75.3405 2.66238 76.2762C2.66238 77.212 3.4405 78 4.36452 78H78.3835C79.3075 78 80.037 77.212 80.037 76.2762C80.037 75.3405 79.2589 74.5525 78.3349 74.5525H68.3652V61.7474H78.8698ZM3.78093 63.2741C3.2946 62.1414 3.39187 60.8609 4.12136 60.0236C4.21862 59.9251 4.55905 59.7281 4.99675 59.7281H5.23991C6.1153 59.8759 6.65026 60.7624 6.94206 61.5011C7.18522 62.1906 7.91471 62.6339 8.6442 62.5846C9.37369 62.4861 10.0059 61.9444 10.1518 61.2056C10.2004 61.2056 10.6381 59.2849 11.7567 59.2849C11.8053 59.2849 11.8053 59.2849 11.8053 59.2849C12.0971 59.3341 12.4862 59.3834 12.8752 59.9744C13.2643 60.5654 13.4102 61.3041 13.2643 62.0921C12.9725 63.6681 11.9026 65.8352 8.54694 67.3127C7.37975 66.8202 4.75358 65.3919 3.78093 63.2741ZM44.0974 74.5525H22.4073L22.3586 65.2442C28.8268 64.4069 33.301 59.3834 34.9545 57.2164C37.7266 59.7774 40.8391 60.9594 43.1248 61.4519C43.4652 61.5504 43.8057 61.5996 44.1461 61.6489V74.5525H44.0974ZM64.9609 74.5525H47.5017V61.6489C48.3771 61.5504 49.2039 61.3041 50.0306 61.0086C50.6142 60.7624 51.2465 60.5161 51.9273 60.1714C51.9759 61.0579 52.7541 61.7474 53.6295 61.7474H64.9609V74.5525ZM66.663 38.058C65.739 38.058 64.9609 38.846 64.9609 39.7817V50.1243C64.3287 49.4841 63.3074 49.4348 62.6265 50.0751C61.9457 50.7153 61.897 51.7988 62.5292 52.4883L64.9609 55.1478V58.2999H54.8939C58.9304 55.1971 62.9183 49.4841 62.8697 38.9937C62.8697 38.649 62.7724 34.906 62.1888 29.9809C62.3347 29.8332 62.432 29.6362 62.4806 29.3899L66.5171 14.2701L76.73 58.2999H68.3652V52.1436C68.5111 52.0451 68.657 51.8973 68.7542 51.7496L72.0126 47.6125C72.5962 46.8738 72.4503 45.7903 71.7208 45.1993C70.9913 44.6083 69.9214 44.756 69.3378 45.4948L68.3652 46.726V39.7817C68.3652 38.846 67.5871 38.058 66.663 38.058Z" fill="#68BFB7"/>
</svg>
