<svg width="81" height="78" viewBox="0 0 81 78" fill="none" xmlns="http://www.w3.org/2000/svg">
<path fill-rule="evenodd" clip-rule="evenodd" d="M41.0583 8.73207V13.883C41.1074 14.8151 40.3713 15.5509 39.39 15.5509C38.4576 15.5509 37.6725 14.766 37.6725 13.8339V10.0566L23.5897 6.67169V28.649C23.5897 29.3849 23.099 30.0717 22.363 30.2679L10.1448 34.0452V52.5886C10.1448 53.5207 9.40876 54.3056 8.42738 54.3056C7.49507 54.3056 6.70996 53.5207 6.70996 52.5886V32.7698C6.70996 32.0339 7.20065 31.3471 7.93669 31.1509L20.1549 27.3736V1.71698C20.1549 0.784905 20.94 0 21.8723 0C22.8046 0 23.5897 0.784905 23.5897 1.71698V3.13962L39.7334 7.06414C40.5186 7.26037 41.0583 7.94716 41.0583 8.73207Z" fill="#84B8E2"/>
<path fill-rule="evenodd" clip-rule="evenodd" d="M20.1548 4.07178V4.80763C20.1058 4.56234 20.1058 4.31706 20.1548 4.07178Z" fill="#84B8E2"/>
<path fill-rule="evenodd" clip-rule="evenodd" d="M27.7114 18.298C26.7791 18.298 25.994 17.5131 25.994 16.581V12.9999C25.994 12.0678 26.7791 11.2829 27.7114 11.2829C28.6437 11.2829 29.4289 12.0678 29.4289 12.9999V16.581C29.4289 17.5131 28.6437 18.298 27.7114 18.298Z" fill="#84B8E2"/>
<path fill-rule="evenodd" clip-rule="evenodd" d="M33.5016 18.298C32.5693 18.298 31.7842 17.5131 31.7842 16.581V12.9999C31.7842 12.0678 32.5693 11.2829 33.5016 11.2829C34.4339 11.2829 35.219 12.0678 35.219 12.9999V16.581C35.219 17.5131 34.4339 18.298 33.5016 18.298Z" fill="#84B8E2"/>
<path fill-rule="evenodd" clip-rule="evenodd" d="M17.5542 42.385C16.6219 42.385 15.8368 41.6001 15.8368 40.668V37.4303C15.8368 36.4982 16.6219 35.7133 17.5542 35.7133C18.4865 35.7133 19.2716 36.4982 19.2716 37.4303V40.668C19.2716 41.6001 18.4865 42.385 17.5542 42.385Z" fill="#84B8E2"/>
<path fill-rule="evenodd" clip-rule="evenodd" d="M24.3748 42.385C23.4425 42.385 22.6573 41.6001 22.6573 40.668V37.4303C22.6573 36.4982 23.4425 35.7133 24.3748 35.7133C25.3071 35.7133 26.0922 36.4982 26.0922 37.4303V40.668C26.0922 41.6001 25.3071 42.385 24.3748 42.385Z" fill="#84B8E2"/>
<path fill-rule="evenodd" clip-rule="evenodd" d="M17.5542 50.8716C16.6219 50.8716 15.8368 50.0867 15.8368 49.1547V45.9169C15.8368 44.9849 16.6219 44.2 17.5542 44.2C18.4865 44.2 19.2716 44.9849 19.2716 45.9169V49.1547C19.2716 50.0867 18.4865 50.8716 17.5542 50.8716Z" fill="#84B8E2"/>
<path fill-rule="evenodd" clip-rule="evenodd" d="M24.3748 50.8716C23.3934 50.8716 22.6573 50.0867 22.6573 49.1056L22.7064 45.8679C22.7064 44.9358 23.5406 44.2 24.4729 44.2C25.4052 44.2 26.1903 44.9849 26.1413 45.966L26.0922 49.2037C26.0922 50.1358 25.3071 50.8716 24.3748 50.8716Z" fill="#84B8E2"/>
<path fill-rule="evenodd" clip-rule="evenodd" d="M24.4238 59.5547C23.4915 59.5547 22.7064 58.8189 22.7064 57.8868L22.6573 54.6981C22.6573 53.766 23.3934 52.9811 24.3257 52.9321C24.3257 52.9321 24.3257 52.9321 24.3748 52.9321C25.3071 52.9321 26.0922 53.6679 26.0922 54.6L26.1413 57.7887C26.1413 58.7698 25.4052 59.5547 24.4238 59.5547Z" fill="#84B8E2"/>
<path fill-rule="evenodd" clip-rule="evenodd" d="M24.4238 71.2792C23.4915 71.2792 22.7064 70.4943 22.7064 69.5622V63.283C22.7064 62.3509 23.4915 61.566 24.4238 61.566C25.3562 61.566 26.1413 62.3509 26.1413 63.283V69.5622C26.1413 70.5433 25.3562 71.2792 24.4238 71.2792Z" fill="#84B8E2"/>
<path fill-rule="evenodd" clip-rule="evenodd" d="M79.0377 74.566H76.4371V36.4491C76.4371 35.517 75.652 34.7321 74.7196 34.7321H57.7908V17.8566C57.7908 17.317 57.5455 16.8265 57.1039 16.4831C56.7113 16.1397 56.1225 16.0416 55.6318 16.1887L32.5693 22.3208C31.8333 22.517 31.2935 23.2038 31.2935 23.9887V70.3962C31.2935 71.3283 32.0786 72.1132 33.0109 72.1132C33.9433 72.1132 34.7284 71.3283 34.7284 70.3962V25.3132L54.356 20.1132V74.566H10.4882L10.4392 70.249C15.0026 68.0415 16.2784 64.7056 16.6219 62.7924C16.9654 61.1245 16.6219 59.4566 15.7386 58.1321C14.8554 56.7585 13.4815 55.9736 11.9112 55.9245C10.292 55.8755 9.11431 56.6113 8.28014 57.5925C7.39689 56.8075 6.41551 56.5132 5.77762 56.4151C4.15834 56.1698 2.44092 56.7094 1.45954 57.8868C-0.110671 59.7509 -0.454155 62.4491 0.625365 64.7547C2.04837 67.7962 5.38506 69.6604 7.00434 70.4453L7.05341 74.566H4.40368C3.47137 74.566 2.68626 75.3509 2.68626 76.283C2.68626 77.2151 3.47137 78 4.40368 78H79.0377C80.0191 78 80.7551 77.2151 80.7551 76.283C80.7551 75.3509 79.97 74.566 79.0377 74.566ZM3.76578 63.3321C3.27509 62.2038 3.37323 60.9283 4.10927 60.0943C4.20741 59.9962 4.55089 59.8 4.99251 59.8H5.28692C6.17017 59.9472 6.70993 60.8302 7.00434 61.566C7.24969 62.2528 7.98572 62.6943 8.72176 62.6453C9.45779 62.5472 10.0957 62.0075 10.2429 61.2717C10.2429 61.2717 10.7336 59.3094 11.8622 59.3585C12.1566 59.4075 12.5491 59.4566 12.9417 60.0453C13.3343 60.634 13.4815 61.3698 13.3343 62.1547C13.0398 63.7245 11.9603 65.883 8.57455 67.3547C7.39689 66.8641 4.74717 65.4415 3.76578 63.3321ZM57.7908 38.1661H73.0022V74.566H57.7908V38.1661Z" fill="#84B8E2"/>
<path fill-rule="evenodd" clip-rule="evenodd" d="M49.1056 34.2905H39.7825C38.8502 34.2905 38.0651 33.5056 38.0651 32.5735C38.0651 31.6415 38.8502 30.8566 39.7825 30.8566H49.1056C50.0379 30.8566 50.823 31.6415 50.823 32.5735C50.823 33.5056 50.0379 34.2905 49.1056 34.2905Z" fill="#84B8E2"/>
<path fill-rule="evenodd" clip-rule="evenodd" d="M49.0565 41.9925H39.7334C38.8011 41.9925 38.016 41.2076 38.016 40.2755C38.016 39.3434 38.8011 38.5585 39.7334 38.5585H49.0565C49.9888 38.5585 50.7739 39.3434 50.7739 40.2755C50.7739 41.2076 49.9888 41.9925 49.0565 41.9925Z" fill="#84B8E2"/>
<path fill-rule="evenodd" clip-rule="evenodd" d="M49.2038 49.6942H39.8806C38.9483 49.6942 38.1632 48.9093 38.1632 47.9772C38.1632 47.0452 38.9483 46.2603 39.8806 46.2603H49.2038C50.1361 46.2603 50.9212 47.0452 50.9212 47.9772C50.9212 48.9093 50.1361 49.6942 49.2038 49.6942Z" fill="#84B8E2"/>
<path fill-rule="evenodd" clip-rule="evenodd" d="M49.2038 57.4944H39.8806C38.9483 57.4944 38.1632 56.7095 38.1632 55.7774C38.1632 54.8453 38.9483 54.0604 39.8806 54.0604H49.2038C50.1361 54.0604 50.9212 54.8453 50.9212 55.7774C50.9212 56.7095 50.1361 57.4944 49.2038 57.4944Z" fill="#84B8E2"/>
<path fill-rule="evenodd" clip-rule="evenodd" d="M49.2038 65.2451H39.8806C38.9483 65.2451 38.1632 64.4602 38.1632 63.5281C38.1632 62.5961 38.9483 61.8112 39.8806 61.8112H49.2038C50.1361 61.8112 50.9212 62.5961 50.9212 63.5281C50.9212 64.4602 50.1361 65.2451 49.2038 65.2451Z" fill="#84B8E2"/>
<path fill-rule="evenodd" clip-rule="evenodd" d="M62.6487 49.3998C61.7164 49.3998 60.9313 48.6149 60.9313 47.6829V44.4451C60.9313 43.5131 61.7164 42.7281 62.6487 42.7281C63.581 42.7281 64.3661 43.5131 64.3661 44.4451V47.6829C64.3661 48.664 63.581 49.3998 62.6487 49.3998Z" fill="#84B8E2"/>
<path fill-rule="evenodd" clip-rule="evenodd" d="M62.6487 57.9849C61.7164 57.9849 60.9313 57.2 60.9313 56.2679V53.0302C60.9313 52.0981 61.7164 51.3132 62.6487 51.3132C63.581 51.3132 64.3661 52.0981 64.3661 53.0302V56.2679C64.3661 57.2 63.581 57.9849 62.6487 57.9849Z" fill="#84B8E2"/>
<path fill-rule="evenodd" clip-rule="evenodd" d="M62.6487 66.8152C61.7164 66.8152 60.9313 66.0303 60.9313 65.0982V61.8605C60.9313 60.9284 61.7164 60.1435 62.6487 60.1435C63.581 60.1435 64.3661 60.9284 64.3661 61.8605V65.0982C64.3661 66.0793 63.581 66.8152 62.6487 66.8152Z" fill="#84B8E2"/>
<path fill-rule="evenodd" clip-rule="evenodd" d="M68.6351 49.5963C67.7028 49.5963 66.9177 48.8114 66.9177 47.8793V44.6416C66.9177 43.7095 67.7028 42.9246 68.6351 42.9246C69.5674 42.9246 70.3526 43.7095 70.3526 44.6416V47.8793C70.3526 48.8114 69.5674 49.5963 68.6351 49.5963Z" fill="#84B8E2"/>
<path fill-rule="evenodd" clip-rule="evenodd" d="M68.6351 57.8378C67.7028 57.8378 66.9177 57.0529 66.9177 56.1208V52.8831C66.9177 51.951 67.7028 51.1661 68.6351 51.1661C69.5674 51.1661 70.3526 51.951 70.3526 52.8831V56.1208C70.3526 57.0529 69.5674 57.8378 68.6351 57.8378Z" fill="#84B8E2"/>
<path fill-rule="evenodd" clip-rule="evenodd" d="M68.6351 66.6678C67.7028 66.6678 66.9177 65.8829 66.9177 64.9508V61.7131C66.9177 60.781 67.7028 59.9961 68.6351 59.9961C69.5674 59.9961 70.3526 60.781 70.3526 61.7131V64.9508C70.3526 65.8829 69.5674 66.6678 68.6351 66.6678Z" fill="#84B8E2"/>
</svg>
