<svg width="83" height="78" viewBox="0 0 83 78" fill="none" xmlns="http://www.w3.org/2000/svg">
<path fill-rule="evenodd" clip-rule="evenodd" d="M26.9047 20.1298C26.8553 20.1791 26.8059 20.2776 26.8059 20.3268H26.6577L26.9047 20.1298Z" fill="#EA8079"/>
<path fill-rule="evenodd" clip-rule="evenodd" d="M26.6084 20.3268H26.7566C26.806 20.2776 26.806 20.1791 26.8553 20.1298L26.6084 20.3268Z" fill="#EA8079"/>
<path fill-rule="evenodd" clip-rule="evenodd" d="M79.6527 74.5524H72.6888C72.1949 73.4689 70.9601 71.0063 68.8364 68.3467C71.3059 54.2116 61.8231 48.0552 56.489 46.7747H56.4396C40.8325 43.5733 35.943 58.201 35.3009 60.171C32.2387 61.3038 29.7199 62.7321 27.8925 63.9141L34.4119 23.8728L54.8591 38.599C55.1555 38.8452 55.5012 38.9437 55.8469 38.9437C56.0939 38.9437 56.3408 38.8945 56.489 38.7467C57.0817 38.4512 57.4274 37.9094 57.4768 37.2692C57.5262 36.8259 57.9213 26.8771 51.6982 20.0312H59.1066C59.7487 20.0312 60.292 19.6865 60.6377 19.1939C60.9341 18.6029 60.9341 17.9627 60.5883 17.4209C58.3658 13.9733 54.464 9.24517 46.4629 7.96464C46.3641 7.96464 46.3148 7.96464 46.216 7.91539L49.9696 4.71405C50.4141 4.32004 50.6116 3.77828 50.5623 3.23651C50.5129 2.69475 50.2165 2.20224 49.7226 1.90673C48.8336 1.41422 47.9446 1.06946 47.3025 0.8232H47.2532C41.0795 -1.14685 34.5107 1.31571 31.0534 6.53635C29.0284 3.53202 26.5096 1.56197 23.4474 0.626194C17.5207 -1.24536 11.9396 1.66047 11.6927 1.80823C11.1988 2.10373 10.8531 2.59625 10.8037 3.18726C10.7543 3.72903 11.0012 4.32004 11.4458 4.6648L15.6933 8.06314C6.70436 9.19592 1.27151 17.2731 1.02456 17.6671C0.629449 18.2089 0.629449 18.8984 0.925786 19.4402C1.22212 19.982 1.8148 20.3267 2.45686 20.3267H10.4086C8.08727 22.6415 6.40802 25.7444 5.32145 29.4875C4.1361 33.6246 4.23488 37.1214 4.23488 37.2692C4.23488 37.9094 4.58061 38.4512 5.17329 38.7467C5.42023 38.8945 5.71657 38.9437 5.96352 38.9437C6.30924 38.9437 6.65497 38.796 6.95131 38.599L25.9663 25.0548L17.8664 74.5524H10.6061L10.5567 70.2675C15.1994 68.0512 16.4835 64.6529 16.8292 62.7321C17.1255 61.0083 16.8292 59.383 15.9402 58.1025C15.1006 56.7727 13.7177 55.9354 12.0384 55.8862C11.989 55.8862 11.989 55.8862 11.9396 55.8862C10.4086 55.8862 9.22322 56.6249 8.43299 57.5607C7.54398 56.7727 6.65497 56.4772 6.01291 56.3787C4.33366 56.0832 2.60503 56.6249 1.51846 57.7577L1.46907 57.807C-0.111394 59.7278 -0.457121 62.4366 0.629449 64.7021C2.11113 67.805 5.46962 69.6765 7.09948 70.4153L7.14887 74.5524H4.48183C3.54343 74.5524 2.7532 75.3404 2.7532 76.2762C2.7532 77.212 3.54343 78 4.48183 78H79.6527C80.5911 78 81.3813 77.212 81.3813 76.2762C81.3813 75.3404 80.5911 74.5524 79.6527 74.5524ZM3.74099 63.2246C3.24709 62.1411 3.39526 60.9098 4.08672 60.0233C4.28427 59.8263 4.77817 59.6293 5.37084 59.6785C6.25985 59.8755 6.75375 60.762 7.05009 61.4516C7.34642 62.1411 8.08727 62.5843 8.82811 62.5351C9.56895 62.4366 10.211 61.8948 10.3592 61.1561C10.3592 61.1561 10.8037 59.2353 11.9396 59.2353C12.4335 59.2353 12.7299 59.4323 12.9768 59.8263C12.9768 59.8755 13.0262 59.8755 13.0262 59.9248C13.5201 60.6635 13.4707 61.5993 13.3719 62.0426C13.0756 63.6679 12.0384 65.8349 8.58116 67.3125C7.19825 66.6722 4.67939 65.2439 3.74099 63.2246ZM55.6988 50.173C56.3902 50.37 66.3669 53.0296 65.7248 64.9977C62.2182 61.7471 57.2792 58.792 50.7104 58.1517C46.5617 57.7577 42.7587 58.1517 39.4496 58.9397C41.1289 55.0981 45.6233 48.1045 55.6988 50.173ZM55.6494 16.5836H42.9563C42.0179 16.5836 41.2276 17.3716 41.2276 18.3074C41.2276 19.2432 42.0179 20.0312 42.9563 20.0312H46.4629C51.797 23.5773 53.3775 29.783 53.8713 33.6738L35.3503 20.3267H36.6344C37.5728 20.3267 38.4124 19.5387 38.4124 18.6029C38.4124 17.6671 37.6222 16.8791 36.6838 16.8791H32.8808L32.8314 16.8299C34.9058 15.1061 40.8325 10.5257 45.8702 11.363C50.6116 12.1017 53.6244 14.2688 55.6494 16.5836ZM32.9796 10.378C35.0046 5.35432 40.4868 2.59625 45.6727 3.87678L40.4868 8.3094C40.388 8.4079 40.2892 8.5064 40.1905 8.60491C37.0295 9.58993 34.1155 11.4615 32.1894 12.939C32.3869 12.151 32.6339 11.2645 32.9796 10.378ZM22.4596 3.92603C25.2254 4.81256 27.5467 6.93036 29.2754 10.2302C29.0284 10.969 28.8309 11.7077 28.7321 12.3973C26.0157 10.1809 23.398 9.04817 21.5706 8.5064C21.4718 8.3094 21.3237 8.16164 21.1755 8.01389L16.039 3.87678C17.6688 3.43352 20.0395 3.18726 22.4596 3.92603ZM6.16107 16.8791C8.63055 14.3181 13.0756 10.969 18.7554 11.4122C18.953 11.4122 23.8919 12.0032 28.3864 16.8791H6.16107ZM7.9391 33.6738C8.53177 29.6845 10.3098 23.3803 15.8908 20.4745C15.9896 20.4252 16.039 20.376 16.1378 20.3267H26.6577L26.9047 20.1297C26.8553 20.179 26.8059 20.2775 26.8059 20.3267H26.6577L7.9391 33.6738ZM21.373 74.5524L29.9174 22.2475L31.004 21.4595C31.0534 21.5088 31.1028 21.558 31.1522 21.558L31.3003 21.6565L22.7066 74.5524H21.373ZM26.2132 74.5524L27.1516 68.79C28.9296 67.2632 37.9185 60.3188 50.4141 61.5008C61.0822 62.4858 66.8608 70.8586 68.8858 74.5524H26.2132Z" fill="#EA8079"/>
<path fill-rule="evenodd" clip-rule="evenodd" d="M63.5024 36.235L61.4774 41.8989C61.2305 42.5884 60.539 43.0317 59.8476 43.0317C59.65 43.0317 59.4524 42.9825 59.2549 42.9332C58.3659 42.6377 57.872 41.6034 58.2177 40.7169L60.2427 35.053C60.539 34.1665 61.5762 33.674 62.4652 34.0187C63.3542 34.3142 63.8481 35.3485 63.5024 36.235Z" fill="#EA8079"/>
<path fill-rule="evenodd" clip-rule="evenodd" d="M82.0233 67.6573C81.8258 68.4453 81.1343 68.9871 80.3441 68.9871C80.1959 68.9871 80.0971 68.9871 79.949 68.9378L73.8247 67.5588C72.8863 67.3618 72.2936 66.426 72.5405 65.4902C72.7875 64.5544 73.6765 63.9634 74.6149 64.2097L80.7392 65.5887C81.6776 65.7857 82.2703 66.7215 82.0233 67.6573Z" fill="#EA8079"/>
<path fill-rule="evenodd" clip-rule="evenodd" d="M43.9441 41.948C44.2898 42.8346 43.8453 43.8196 42.9563 44.1643C42.7587 44.2628 42.5612 44.3121 42.3636 44.3121C41.6721 44.3121 41.0301 43.8688 40.7338 43.1793L38.7088 37.8109C38.3631 36.9244 38.8076 35.9394 39.6966 35.5946C40.5856 35.2499 41.5734 35.6931 41.9191 36.5796L43.9441 41.948Z" fill="#EA8079"/>
<path fill-rule="evenodd" clip-rule="evenodd" d="M72.6888 52.1925C72.4418 52.291 72.1949 52.3402 71.9479 52.3402C71.3059 52.3402 70.6638 51.9954 70.3675 51.3552C69.9723 50.5179 70.3181 49.4836 71.2071 49.0404L76.5905 46.4793C77.4302 46.0853 78.4673 46.4301 78.9118 47.3166C79.307 48.1538 78.9612 49.1881 78.0722 49.6314L72.6888 52.1925Z" fill="#EA8079"/>
</svg>
