<svg width="66" height="38" viewBox="0 0 66 38" fill="none" xmlns="http://www.w3.org/2000/svg">
<path fill-rule="evenodd" clip-rule="evenodd" d="M29.2567 10.6956C29.0143 12.1131 29.9434 13.1859 31.3167 13.1475C32.0438 13.1475 32.6901 12.8411 33.3364 12.6112C33.5787 13.3391 33.9019 13.7988 34.5078 14.1436C35.0733 14.4884 35.6388 14.6417 36.3658 14.68C38.3451 14.7949 39.8396 13.7988 41.0514 13.1092C41.1726 13.0326 41.2533 12.956 41.2937 12.8411C41.3341 12.7261 41.7381 12.5346 41.8188 12.4579C41.8996 12.4196 41.8996 12.3047 41.94 12.2281C41.9804 12.1515 42.4651 11.8067 42.8691 11.6534C42.9498 11.6151 43.0306 11.1554 42.7883 11.0404C42.5459 10.9255 42.1824 11.232 41.8996 11.3852C41.5765 11.5768 41.2533 11.6917 41.011 11.8067C40.4455 12.0748 39.88 12.4196 39.1933 12.6112C37.4968 13.0709 36.0023 12.4579 35.558 11.2703C36.0427 10.8489 36.487 10.4274 36.9313 10.006C37.9815 9.04823 39.8396 6.48138 39.4761 5.98333C39.2337 5.71515 38.749 5.90671 38.547 5.98333C38.4662 6.02164 38.3047 5.98333 38.2239 6.02164C37.7796 6.17489 37.2949 6.558 36.8505 6.78787C36.3658 7.05605 35.9215 7.28591 35.5176 7.63072C34.427 8.55019 33.6191 9.89108 33.2556 11.232C32.2054 11.4618 31.5187 10.4658 31.6803 9.46966C33.094 8.39694 34.2654 7.13267 35.5176 5.83008C36.285 5.02555 36.8505 4.14439 37.416 3.26323C37.5372 3.07167 37.5372 2.95674 37.618 2.72687C37.6988 2.497 37.9008 2.22882 37.9815 1.88402C38.1835 1.34766 38.4259 0.42819 38.0219 0.0450772C37.7796 -0.146479 36.487 0.313256 35.9215 0.658058C35.356 1.00286 34.8309 1.23273 34.3462 1.50091C34.0634 1.69246 33.7807 2.03727 33.4979 2.30544C33.2152 2.57362 33.0132 2.95674 32.7709 3.26323C31.8014 4.60412 31.1148 5.90671 30.3473 7.40085C30.1049 7.8989 29.8222 8.5885 29.6202 9.16317C29.5395 9.39304 29.5395 9.43135 29.4183 9.54628C29.2567 9.77615 28.5296 10.1976 28.2469 10.3125C28.1661 10.3508 27.1159 10.6956 27.3582 11.3086C27.6006 11.5385 28.6508 10.8872 29.2567 10.6956ZM37.416 7.2859C37.4564 7.2859 37.4968 7.2859 37.4968 7.32421C37.618 7.59239 37.3756 7.93719 37.2141 8.16706C36.7698 8.78004 36.2043 9.62289 35.6388 9.89106C35.8407 8.78004 36.6082 7.93719 37.416 7.2859ZM35.6388 1.76906C35.6791 1.69243 35.7599 1.65412 35.9619 1.69243C36.1235 1.73075 35.6388 3.03333 35.356 3.608C34.6289 4.98721 33.4575 6.09823 32.4881 7.17095C33.2556 5.37032 34.3866 3.30151 35.6388 1.76906Z" fill="#E2645A"/>
<path fill-rule="evenodd" clip-rule="evenodd" d="M64.8428 20.4649C64.2773 20.3883 63.3886 20.1201 62.8635 20.0818C62.6212 20.0435 61.2882 19.8519 60.5207 20.0052C60.3188 20.0435 60.1168 20.0435 59.9148 20.0052C60.9651 19.737 62.1364 19.622 63.3482 19.9285C63.3078 19.9285 63.7926 19.9668 64.2369 20.0052C64.1965 20.0052 64.2773 20.0052 64.2773 20.0052C64.8024 20.1201 65.1255 20.0435 65.6102 19.9668C65.2467 19.6987 64.4388 19.8519 64.2773 19.3922C64.4792 19.2006 64.9639 19.3922 65.2467 19.3922C65.1255 19.2389 64.8832 19.2389 64.762 19.124C64.8832 19.0857 65.0043 19.2006 65.0851 19.124C64.9235 19.0474 65.0447 19.0091 65.1659 18.9707C64.8428 18.8941 64.358 18.8941 64.3984 18.5493C64.7216 18.5876 65.3275 18.6643 65.3679 18.6643C65.4083 18.6259 65.1659 18.5493 65.1659 18.4727C64.7216 18.3961 64.1157 18.1662 63.6714 17.9747C63.7118 17.8597 63.5906 17.7831 63.429 17.7448C64.1157 17.8214 64.7216 17.9747 65.3679 18.013C65.2467 17.9747 65.4083 17.9363 65.4083 17.9363C65.3679 17.9363 65.2871 17.898 65.2467 17.898C65.2871 17.898 65.2871 17.898 65.3275 17.898C65.3275 17.898 65.2467 17.898 65.1659 17.8597C65.1255 17.8597 65.0851 17.8214 65.0447 17.8214C64.762 17.7448 64.2773 17.5915 63.9945 17.4C64.5196 17.4383 65.0043 17.4766 65.489 17.5149C64.4388 17.0935 62.298 17.1318 61.167 17.5532C60.44 17.8597 59.1474 18.2045 58.3395 18.6259C58.5011 18.2045 58.7838 17.6299 58.7031 17.1701C58.6223 17.285 58.6223 17.5149 58.5011 17.5532C58.4607 17.5149 58.5819 17.3234 58.4203 17.4383C58.5011 17.0935 58.7838 16.7487 58.7435 16.4422C58.5819 16.3656 58.5819 16.2123 58.3395 16.174C58.2991 16.174 58.2991 16.2123 58.2184 16.2506C58.2587 16.174 58.3799 16.1357 58.2991 16.0591C58.0164 16.0208 57.8548 15.9058 57.5317 15.9825C57.5721 16.1357 57.6529 16.2506 57.5317 16.3656C57.047 16.3656 56.9662 15.9442 56.7642 15.7526C56.5219 15.7143 56.5219 15.9058 56.3603 15.9442C56.3199 15.9825 56.3603 16.289 56.2795 16.4805C56.1179 16.9019 55.9564 17.4383 55.714 17.8597C55.5524 18.1279 55.3505 18.5493 55.1889 18.7792C54.8254 19.3155 54.7042 19.9285 54.3406 20.3883C54.381 20.5798 54.1791 20.6181 54.0983 20.7714C54.0579 20.848 54.0579 21.0012 53.9771 21.1162C53.8155 21.4227 53.5328 21.7292 53.3308 22.074C52.6845 22.9934 51.9979 23.9512 51.392 24.7941C50.988 25.3687 50.5841 25.9051 50.1802 26.4415C50.0186 26.6713 49.8167 26.8246 49.7359 27.0544C49.6955 27.1694 49.7763 27.3226 49.7359 27.3992C49.6955 27.5908 49.4935 27.744 49.5339 27.9739C49.6147 28.0122 49.7763 28.0122 49.8571 28.0888C49.7359 28.4336 49.4127 28.5869 49.4935 28.97C49.6955 29.0466 49.8571 28.8934 49.9782 29.0083C50.1398 28.8551 50.3014 28.6252 50.4629 28.4336C50.6245 28.2804 50.8265 27.9739 51.0688 28.0888C50.9477 28.4336 50.5437 28.5869 50.7053 28.97C50.9073 29.0849 51.0284 28.8934 51.19 29.0083C51.7151 28.472 52.119 27.859 52.7249 27.4375C53.3308 26.7096 53.8963 25.9434 54.381 25.1389C54.7446 24.7558 55.0677 24.3726 55.3909 23.9895C55.714 23.6064 55.9564 23.1467 56.2795 22.7253C56.4411 22.5337 56.7642 22.4188 57.0066 22.2655C57.7336 21.7292 58.2991 21.2694 59.1878 20.9246C60.1168 20.5798 61.0862 20.3116 62.0557 20.3116C62.6212 20.3883 63.2674 20.35 63.7118 20.5798C63.7118 20.5798 63.7522 20.6181 63.7926 20.6181C64.6004 20.6948 65.1255 20.8097 65.8122 20.6564C65.691 20.5032 65.3679 20.5415 65.1255 20.5032C64.8428 20.5032 64.9235 20.4649 64.8428 20.4649ZM51.7959 25.6369C51.7151 24.9857 52.1998 24.5642 52.4826 24.1428C52.523 24.1428 53.0481 23.4532 53.3308 23.3383C52.8057 24.0662 52.2402 24.8324 51.7959 25.6369ZM55.1485 20.8863C54.8254 21.4227 54.4618 21.9207 53.9771 22.3805C53.9367 22.0357 54.4214 21.6526 54.583 21.2695C55.2697 20.7331 55.5524 19.8136 56.0371 19.0857C56.0775 19.0474 55.9967 18.8175 55.9967 18.7792C56.1987 18.511 56.3603 18.1279 56.5622 17.8597C56.6026 17.8597 56.6026 17.8597 56.643 17.8981C56.643 18.0896 56.6026 18.3195 56.5622 18.3578C56.5219 18.3961 56.5622 18.8942 56.4411 19.124C56.1583 19.7753 55.5524 20.4266 55.1485 20.8863Z" fill="#E2645A"/>
<path fill-rule="evenodd" clip-rule="evenodd" d="M50.5841 19.2006C51.0284 18.1662 51.7151 17.4 52.1998 16.4422C52.321 16.4422 52.3614 16.3656 52.4422 16.3273C52.119 15.9058 51.7959 16.0591 51.2708 16.174C51.1092 16.4039 50.9072 16.5954 50.7457 16.8253C50.8668 16.5954 50.988 16.3656 51.1092 16.1357C50.8668 16.0974 50.8668 16.289 50.7053 16.2506C50.5437 16.5188 50.2609 16.7104 50.1398 17.0552C49.6147 17.3617 49.3319 18.3194 48.8472 18.7026C49.0896 18.3194 49.3723 17.898 49.6147 17.4766C49.9378 16.9786 50.3821 16.4422 50.4629 15.8675C50.3013 15.8292 50.2609 15.6377 50.0994 15.561C49.4531 15.5993 49.3723 16.174 48.9684 16.4805C48.5241 16.787 48.3221 17.3234 47.9586 17.6298C47.9182 17.7065 47.9182 17.6682 47.9586 17.7831C47.5142 18.3578 47.1911 19.0091 46.5852 19.4305C46.3832 19.9285 45.8985 20.1584 45.6158 20.5798C45.1715 20.8863 44.9695 21.3844 44.6464 21.8058C44.4848 22.0356 44.404 22.1889 44.2828 22.4188C44.1616 22.6103 43.9193 22.7253 43.9193 22.9934C43.4346 23.4532 42.9903 23.9895 42.4651 24.4876C42.1824 24.7174 41.94 24.9856 41.6573 25.1772C41.1726 25.4837 40.6475 25.9051 40.1628 26.1733C39.3549 26.5564 38.2643 26.4414 38.0219 25.6369C37.9412 25.3304 38.0219 24.9856 38.0623 24.6791C38.2239 23.3382 39.0722 22.3038 39.88 21.5759C40.2435 21.0396 40.7283 20.6181 41.1322 20.0818C41.5765 19.4688 42.0208 18.7409 42.4651 18.2045C42.4248 18.2045 42.4248 18.1662 42.4248 18.1279C42.7883 17.7065 43.1114 17.285 43.4346 16.8253C43.3538 16.6721 43.475 16.5571 43.5154 16.4422C43.2326 16.4039 43.1518 16.7104 42.9903 16.9019C42.7479 17.1701 42.4651 17.4 42.2228 17.5532C42.3844 17.3234 42.5863 17.1318 42.7075 16.9402C42.6267 16.9402 42.6671 16.787 42.5863 16.787C42.1016 17.1318 41.6169 17.6682 41.213 18.013C41.6169 17.4383 42.0612 16.9019 42.6671 16.4805C42.5863 16.4422 42.6267 16.4422 42.6267 16.3656C42.6671 16.289 42.7479 16.289 42.7479 16.174C42.5055 16.174 42.4651 16.4039 42.2632 16.4805C42.3036 16.3656 42.2228 16.3656 42.1824 16.289C41.94 16.2506 41.8189 16.5188 41.6169 16.3656C41.5765 16.4039 41.5361 16.4805 41.4553 16.5188C41.4149 16.4805 41.4149 16.4039 41.3341 16.4422C41.213 16.5954 40.5263 16.7104 40.4455 16.787C40.2435 16.9019 40.2435 17.1701 40.2032 17.2467C40.2032 17.2467 40.1628 17.3617 40.1628 17.4766C40.0416 17.5149 40.082 17.5915 39.9608 17.5532C39.5973 18.0896 38.8702 18.4727 38.6278 19.0857C38.6278 19.124 38.6278 19.124 38.5471 19.2006C38.5067 19.2389 37.9816 20.0818 37.82 20.4266C37.82 20.4649 37.6988 20.6564 37.618 20.7714C37.618 20.7331 37.618 20.6948 37.5776 20.6948C37.3353 21.0779 37.0525 21.461 36.8102 21.8058C36.7698 21.8441 36.689 21.9207 36.689 21.9207C36.689 21.959 36.0831 22.6869 35.8811 23.0701C35.8407 23.1467 35.5176 23.6447 35.2752 24.0278C35.2752 24.0661 35.1945 24.2577 34.9925 24.5642C34.8713 24.6791 34.427 25.1389 34.3058 25.407C34.2654 25.4454 34.0231 25.7902 33.9827 25.9051C33.9827 25.9434 33.6191 26.5564 33.5384 26.633C33.296 26.7862 33.1748 26.9778 33.0132 27.1311C32.9729 27.7057 32.1246 28.0122 32.6901 28.5486C33.3364 28.0888 33.8211 27.4375 34.4674 26.9778C34.5078 26.9395 34.629 26.8246 34.6693 26.7863C34.9925 27.3226 35.356 27.8207 35.8811 28.1655C36.2447 28.0888 36.4466 28.4336 36.689 28.6252C36.8102 28.7018 37.0121 28.7401 37.1737 28.8167C37.618 29.0466 37.9412 29.2765 38.4663 29.3914C39.1529 29.5064 39.6377 29.5447 40.2032 29.3148C41.6169 28.8167 43.1114 27.9356 44.0001 27.1311C44.1616 27.4375 44.4444 27.6674 44.7675 27.8207C44.8483 27.859 44.9291 27.8973 45.0099 27.9356C45.4138 28.1655 46.1005 28.357 46.7468 28.2804C46.7468 28.1655 46.8276 28.0505 46.868 28.0505C46.9487 28.0122 46.464 27.744 46.5852 27.7823C46.5852 27.7823 46.7468 27.859 46.7872 27.8207C46.7872 27.7823 46.6256 27.6291 46.666 27.6291C46.8276 27.6674 47.1103 27.859 47.1507 27.859C47.3123 27.8973 47.4335 27.8973 47.5142 27.859C47.9182 27.9739 48.2009 27.7057 48.4837 27.5142C48.1605 27.3992 47.9586 27.4375 47.595 27.2843C47.4335 27.2077 46.9487 26.9778 46.9487 26.9012C46.2217 26.7096 45.737 26.0966 45.8985 25.1389C46.7064 24.1428 47.6354 23.2616 48.4029 22.2655C48.8068 21.959 49.0492 21.4993 49.2915 21.0396C49.9378 20.6181 50.0186 19.6987 50.5841 19.2006ZM35.6388 25.7518C35.4772 25.3304 35.8811 24.7174 36.2447 24.4493C36.0427 24.7941 35.9215 25.4453 36.1235 25.8285C36.2851 26.1733 36.689 26.5564 37.0121 26.7479C36.5274 26.633 35.8003 26.2116 35.6388 25.7518ZM38.2643 21.5376C38.3451 21.3843 38.4259 21.2694 38.5067 21.1161C38.6682 20.848 38.749 20.5032 38.9106 20.235C39.1529 19.8519 39.4357 19.3538 39.7184 19.124C39.9608 18.9324 40.2839 18.8941 40.4859 18.6642C40.5263 18.6642 40.5263 18.6642 40.5667 18.7025C40.4455 18.9707 40.2032 19.124 40.082 19.4304C39.9608 19.4304 39.9608 19.5837 39.7588 19.5454C38.9914 20.3882 38.5471 21.3843 37.9008 22.3038C37.8604 21.9973 38.1431 21.8057 38.2643 21.5376ZM43.9597 24.7558C45.2522 23.6448 46.4236 22.4188 47.4738 21.1162C47.5546 21.0779 47.5546 21.1545 47.595 21.2311C46.8276 22.074 46.3025 23.1084 45.333 23.7597C44.9291 24.1428 44.7271 24.6792 43.9597 24.7558ZM45.6158 23.9895C45.535 24.0278 45.3734 23.8746 45.4138 23.8363C46.4236 22.9551 47.3123 21.959 48.1201 20.8863C48.2009 20.848 48.2009 20.9246 48.2009 20.9629C47.6354 21.6525 46.0197 23.8746 45.6158 23.9895Z" fill="#E2645A"/>
<path fill-rule="evenodd" clip-rule="evenodd" d="M34.5078 20.81C34.5482 20.1204 34.427 19.6606 34.2654 19.0859C33.8615 17.5535 32.8921 16.6723 31.5187 16.021C31.1148 15.7529 30.7917 15.6379 30.6705 15.5996C30.4281 15.4847 30.0242 15.3698 29.7011 15.3314C29.3779 15.2931 29.0952 15.4847 28.7316 15.4464C28.3277 15.4081 28.0046 15.0633 27.4391 15.2548C25.9041 15.7529 24.6924 16.5957 23.6421 17.5535C23.6017 17.5918 23.6421 17.7067 23.5614 17.7451C23.2786 18.0515 22.7939 18.2431 22.5111 18.5879C22.4304 18.7028 22.4304 18.8178 22.3496 18.9327C22.2688 19.0476 22.1072 19.1243 22.0264 19.2775C21.8245 19.584 21.6629 19.9288 21.4205 20.2353C20.9762 20.7333 20.6531 21.308 20.3299 21.8827C20.128 22.2275 19.9664 22.6106 19.8452 22.9937C19.6433 23.1853 19.3605 23.4917 19.2393 23.7982C19.1182 24.1047 19.1585 24.8326 19.1585 25.0625C19.1585 25.2158 19.0778 25.369 19.0778 25.4839C19.0778 25.5606 19.1182 25.6755 19.1585 25.7904C19.1585 26.0203 19.0778 26.2119 19.1182 26.3651C19.2393 26.9015 19.5221 27.3229 19.6837 27.7443C19.8048 27.7443 19.6836 27.4761 19.8048 27.4761C19.9664 27.8975 20.2088 28.2424 20.5723 28.4722C20.8146 28.6255 21.1378 28.7021 21.3801 28.8553C21.5013 28.932 21.5417 29.0469 21.6225 29.1235C21.7437 29.2001 21.9053 29.2001 22.0668 29.3151C22.2284 29.43 22.3092 29.5832 22.4707 29.6599C22.6323 29.7365 23.3594 29.928 24.0865 29.8514C24.7327 29.8131 25.3386 29.4683 25.9445 29.5066C25.8637 29.5066 25.6618 29.8131 25.7426 29.8131C26.8736 29.43 28.0046 29.0469 28.974 28.5105C28.772 28.7021 28.3681 28.7787 28.2469 29.0469C29.6203 28.5105 30.832 27.2846 31.8823 26.0203C32.367 25.4456 32.8517 24.7943 33.296 24.1814C33.8615 23.3002 34.3866 22.1509 34.5078 20.81ZM21.6225 21.1931C21.6629 21.3463 21.057 22.2275 21.0166 22.3807C20.9358 22.1892 21.3801 21.2314 21.6225 21.1931ZM24.1269 29.0086C24.3692 28.7021 24.8943 28.9703 25.2578 28.932C25.0155 29.2002 24.4904 29.1619 24.1269 29.0086ZM24.9347 28.6638C25.7426 28.3956 26.4292 28.0508 27.2371 27.7826C27.0755 28.0891 26.6716 28.204 26.1869 28.4339C25.7426 28.6255 25.4598 28.8936 24.9347 28.6638ZM26.3081 28.7021C27.0755 28.2807 27.7218 27.7826 28.5701 27.4378C28.5701 27.3995 28.6104 27.3995 28.6508 27.3995C28.0853 28.0508 27.1159 28.319 26.3081 28.7021ZM29.2971 24.7944C28.5701 26.0203 27.3179 26.7482 25.783 27.208C24.3692 27.5528 22.7939 27.0164 21.9456 26.3651L21.9053 26.3268C21.5417 25.8671 20.9762 25.7521 21.057 24.871C21.0974 24.3729 21.3801 23.8749 21.5821 23.3768C21.7033 23.147 21.7437 22.9171 21.8649 22.7255C22.0668 22.3424 22.3092 21.8827 22.6323 21.5762C23.1978 20.2736 23.9249 19.086 24.9347 18.1665C25.0155 18.1282 25.0155 18.0899 25.1367 18.0133C25.3386 17.86 25.4598 17.7451 25.7022 17.5918C26.3081 17.1704 27.0755 16.9405 27.843 16.749C28.3277 16.7107 28.9336 16.8639 29.4587 16.9022C29.9838 16.9022 30.4281 17.2087 30.6301 17.362C30.9936 17.86 31.5187 18.2431 31.5995 19.0094C31.5995 19.1626 31.7207 19.3158 31.7611 19.4691C31.8015 19.7373 31.7207 20.0821 31.6803 20.3119C31.6803 20.3886 31.6399 20.5801 31.5995 20.695C31.4379 21.0782 31.1552 21.7295 30.9936 21.9976C30.8724 22.1509 30.7109 22.4574 30.6301 22.6489C30.5493 22.8788 30.4685 23.1087 30.3877 23.2619C30.3069 23.4152 30.105 23.645 30.0646 23.6833C29.8626 23.8749 29.7011 24.2197 29.6203 24.3346C29.6203 24.3729 29.5395 24.5262 29.4991 24.5645C29.4183 24.6028 29.3779 24.7177 29.2971 24.7944ZM31.0744 24.4879C30.5493 25.2541 30.0242 26.0203 29.4991 26.7483C29.701 25.982 30.1858 24.9476 31.0744 24.4879ZM32.5689 22.9171C32.0842 23.8749 31.0744 25.369 30.2666 26.2502C30.9936 25.1391 31.8419 23.645 31.8823 23.3002C31.963 23.1469 32.165 22.8021 32.2054 22.6872C32.2862 22.3424 32.5285 22.1509 32.6497 21.8444C32.6497 22.1892 32.6901 22.6106 32.5689 22.9171Z" fill="#E2645A"/>
<path fill-rule="evenodd" clip-rule="evenodd" d="M21.7841 15.5609C21.7841 15.4077 21.8245 15.331 21.8649 15.2161C21.8245 15.1395 21.6629 15.1012 21.7033 14.9479C21.461 14.9862 21.259 15.2161 21.0974 15.2927C21.057 15.331 21.0166 15.331 21.0166 15.3694C20.9762 15.4077 20.8955 15.4077 20.8551 15.446C20.5723 15.7525 20.4107 16.1356 20.1684 16.5187C19.7645 17.0934 19.4413 17.6297 19.1182 18.2427C18.9566 18.5109 18.8758 18.8557 18.5931 19.0472C18.5527 18.7791 18.7142 18.6641 18.795 18.4726C19.0778 17.8979 19.3605 17.2466 19.7241 16.6719C20.1684 15.944 20.7339 15.2161 21.0974 14.6031C21.1378 14.4882 21.0166 14.4116 21.0166 14.2583C21.259 13.9135 20.8551 13.607 20.7339 13.3772C20.6127 13.4155 20.5319 13.607 20.4107 13.5687C20.5319 13.5304 20.6127 13.3772 20.5319 13.2239C20.4915 13.3389 20.4107 13.2239 20.4511 13.2239C20.2896 13.1856 20.2088 13.4538 20.0472 13.5687C19.9664 13.607 19.926 13.5304 19.8452 13.5304C19.4009 13.8369 19.199 14.2583 18.8758 14.7181C18.6739 15.0246 18.4719 15.2927 18.2699 15.5609C18.068 15.8291 17.9468 16.2122 17.7852 16.5187C17.5833 16.8252 17.3813 17.1317 17.2601 17.4382C17.0178 18.0895 16.9774 18.7791 16.6138 19.392C16.6138 19.4304 16.4926 19.8135 16.3311 19.9667C16.4523 19.507 16.6946 18.8557 16.8966 18.2044C16.6946 18.3193 16.6946 18.5109 16.6138 18.6641C16.3311 19.3537 15.9675 20.0433 15.6848 20.7329C15.4424 21.3076 15.1193 21.9972 14.7962 22.4953C14.473 23.3381 13.8671 23.8745 13.6248 24.7556C13.7055 24.7939 13.8267 24.4875 13.9883 24.3725C14.0287 24.4491 13.9479 24.6407 13.9075 24.7173C13.7863 24.9089 13.544 25.3303 13.3824 25.6751C13.3016 25.8283 13.1804 25.9433 13.14 26.0965C13.0189 26.3647 13.0189 26.6329 12.9381 26.8628C12.8573 27.0926 12.6957 27.2842 12.5342 27.4757C12.211 27.8972 12.0494 28.3569 11.7263 28.74C11.5243 28.9699 11.4032 29.2381 11.3628 29.3147C11.282 29.5445 11.08 29.8127 11.0396 29.8893C10.9992 29.9277 10.5953 30.6556 10.151 30.8088C10.1106 30.8471 10.0702 30.8854 9.98941 30.9238C9.46431 31.69 9.14117 32.3796 8.33331 32.801C8.17174 32.8776 8.13135 32.9543 8.05056 32.9926C7.68703 33.4523 7.2831 33.7588 6.59642 33.912C6.95996 33.7588 7.40428 33.3757 7.56585 33.1841C7.48506 33.1841 7.24271 33.2991 7.08114 33.3757C6.67721 33.6055 6.79839 33.5672 6.51564 33.6822C5.99053 34.1419 5.38464 34.4867 4.65757 34.6783C4.61718 34.6783 4.57679 34.6783 4.53639 34.7166C4.29404 34.7932 4.25364 34.6783 4.05168 34.6016C3.97089 34.5633 3.89011 34.4484 3.84972 34.3718C3.52657 33.7971 3.24383 33.3757 3.48618 32.5711C3.68815 31.8432 4.45561 30.9621 5.02111 30.6556C5.14228 30.3491 5.46543 29.966 5.22307 29.5445C5.22307 29.5062 5.18268 29.4296 5.18268 29.3913C5.14228 28.8166 5.0615 28.5485 4.81914 28.1653C4.89993 28.0504 5.02111 28.0121 5.02111 27.8205C4.94032 27.7439 4.89993 27.5907 4.85954 27.4757C4.85954 27.3991 4.81914 27.3225 4.65757 27.2842C4.57679 27.2459 4.61718 27.0926 4.57679 27.0926C4.25364 27.0543 4.37482 27.3608 4.17286 27.4374C4.09207 27.3991 4.13247 27.3608 4.09207 27.3608C3.89011 27.4757 3.56697 27.4757 3.48618 27.5524C3.00147 28.242 2.63793 29.0465 1.95126 29.5829C1.95126 29.7361 1.91086 29.7361 1.83008 29.851C1.74929 29.8893 1.74929 29.966 1.66851 29.966C1.34537 30.4257 1.02222 31.0004 0.82026 31.5367C0.739475 31.7666 0.779868 31.9582 0.699082 32.2263C0.658689 32.3413 0.537511 32.4562 0.497118 32.5711C0.37594 32.9926 0.254762 33.6055 0.295155 34.0653C0.335547 34.6016 0.416333 35.2146 0.658689 35.7127C0.699082 35.7893 0.739475 35.8276 0.739475 35.8659C0.901046 36.0575 1.38576 36.5938 1.74929 36.7088C1.78969 36.7471 1.78969 36.8237 1.83008 36.862C2.51676 37.3601 3.48618 37.6665 4.496 37.7432C4.53639 37.7432 4.53639 37.8581 4.61718 37.8198C6.51564 37.5516 7.76781 36.7471 9.01999 35.7893C10.4337 34.7549 11.6051 33.6439 12.6149 32.303C13.0189 31.7666 13.4228 31.2686 13.7459 30.6939C14.0691 30.3874 14.271 30.0043 14.4326 29.5829C15.8464 27.7822 16.533 25.4069 17.5429 23.2615C17.5429 23.2232 17.6236 23.1082 17.6236 23.1082C17.9468 21.9589 18.5931 21.0394 19.1182 20.0817C20.0472 18.5875 20.8147 16.9401 21.7841 15.5609ZM9.46431 34.2185C9.46431 34.2951 7.64664 35.636 7.52546 35.6743C7.00035 36.0191 6.59643 36.1341 6.47525 36.1341C6.35407 36.1341 5.14229 35.9808 5.30386 35.8659C5.34425 35.8659 6.31368 35.9425 6.83878 35.7127C7.8486 35.3295 8.93921 34.4867 9.38353 34.1036C9.46431 34.1419 9.46431 34.1802 9.46431 34.2185ZM9.82784 33.9886C9.70667 33.7588 10.2722 33.3757 10.3933 33.3757C10.2722 33.5289 10.0298 33.7205 9.82784 33.9886Z" fill="#E2645A"/>
<path fill-rule="evenodd" clip-rule="evenodd" d="M22.7131 11.96C22.6727 12.0366 23.1171 12.1133 23.1979 12.1899C23.2786 12.2665 23.2382 12.3814 23.319 12.4581C23.8441 12.8412 24.5308 12.1899 24.9347 12.0366C25.2983 11.7301 25.6618 11.347 25.985 10.9639C26.0253 10.9256 26.1061 10.734 26.1061 10.6957C26.1465 10.3126 25.7426 9.92951 25.7426 9.58471C25.7426 9.46977 25.8638 9.35484 25.9042 9.2399C26.1061 8.62692 26.1465 8.09056 25.783 7.66914C24.8136 7.40096 23.7634 8.51199 23.1575 8.97172C23.0363 9.04835 22.8747 9.12497 22.7939 9.16328C22.592 9.35484 22.592 9.39315 22.3496 9.54639C22.188 9.69964 21.7033 9.96782 21.7437 10.236C21.8649 10.8873 21.9457 11.0022 22.2284 11.5003C22.39 11.7301 22.5516 11.8068 22.7131 11.96Z" fill="#E2645A"/>
</svg>
