<svg width="63" height="29" viewBox="0 0 63 29" fill="none" xmlns="http://www.w3.org/2000/svg">
<path fill-rule="evenodd" clip-rule="evenodd" d="M0 21.8592L3.19103 0.481445H62.0836L58.933 21.8592H28.1941L24.7608 2.0139L12.3198 21.8592H0ZM9.77504 6.57295H16.9649L17.6112 2.93338H5.65498L3.27181 19.8287H7.87658L8.8864 12.9326H14.8241L15.3088 9.52292H9.37111L9.77504 6.57295ZM35.5456 7.91384C35.7476 8.14371 36.2323 8.37358 37.0401 8.56513C39.0194 9.1398 40.4331 9.67616 41.241 10.1742C42.0488 10.7106 42.6143 11.3235 42.9375 12.0515C43.2606 12.7794 43.3414 13.5839 43.2202 14.4651C43.0991 15.4995 42.6951 16.4573 42.0488 17.3001C41.4026 18.143 40.5543 18.7943 39.5445 19.2157C38.5347 19.6371 37.2825 19.7903 35.8284 19.752C33.2432 19.6371 31.5467 19.0241 30.6985 17.9514C30.1734 17.3001 29.8502 16.5339 29.6483 15.6527L34.0107 13.6988C34.0107 14.4651 34.1319 15.0781 34.3742 15.4995C34.7782 16.1891 35.4244 16.5339 36.3131 16.5722C36.9998 16.6105 37.5249 16.4573 37.9288 16.1508C38.3327 15.8443 38.5751 15.4612 38.6155 15.0014C38.6559 14.58 38.5347 14.1969 38.2519 13.8521C37.9692 13.5073 37.2017 13.1625 35.9899 12.8177C34.0107 12.243 32.6373 11.5151 31.8699 10.6723C31.1024 9.8294 30.7793 8.75669 30.9408 7.49241C31.062 6.64957 31.3852 5.88334 31.9103 5.15543C32.4758 4.42751 33.2028 3.89115 34.1723 3.50804C35.1417 3.12493 36.3939 2.97168 37.9692 3.00999C39.908 3.08661 41.3218 3.54635 42.2508 4.35089C42.8567 4.88725 43.2606 5.65347 43.4222 6.57294L39.1406 8.22033C39.1002 7.49241 38.9386 6.91775 38.6155 6.57294C38.2923 6.22814 37.7672 6.03659 37.1209 5.99827C36.5958 5.95996 36.1515 6.0749 35.8284 6.30476C35.5052 6.53463 35.3437 6.84112 35.3033 7.18592C35.2629 7.4541 35.3437 7.72228 35.5456 7.91384ZM53.8839 6.57296H58.4079L58.933 2.9717H44.7955L44.23 6.57296H49.158L47.2595 19.7904H51.9855L53.8839 6.57296Z" fill="#E2645A"/>
<path d="M11.9159 28.9851L22.8623 11.5151L26.013 28.9851H11.9159Z" fill="#E2645A"/>
<path d="M33.8895 25.0771C33.0009 25.0771 32.3546 25.4986 32.2334 26.1499C32.1122 26.8778 32.6374 27.1076 33.1221 27.2609L33.5664 27.3758C34.0107 27.4908 34.0915 27.6057 34.0511 27.7589C34.0107 28.0654 33.5664 28.1421 33.324 28.1421C33.0817 28.1421 32.8797 28.0654 32.7585 27.9505C32.6374 27.7973 32.6374 27.6057 32.6374 27.6057V27.5291H31.7083V27.6057C31.7083 27.644 31.6275 28.1037 31.9507 28.4869C32.193 28.755 32.597 28.9083 33.1221 28.9083C33.8491 28.9083 34.7378 28.6401 34.8993 27.8356C35.0205 27.0693 34.4146 26.8012 33.9299 26.6862L33.4856 26.5713C33.1221 26.4564 33.0817 26.3414 33.0817 26.2265C33.1221 25.9966 33.324 25.8817 33.6876 25.8817C33.8895 25.8817 34.0511 25.92 34.1319 26.0349C34.2531 26.1882 34.2127 26.3797 34.2127 26.3797V26.4564H35.1417V26.3797C35.1417 26.3414 35.2225 25.8817 34.8993 25.4986C34.7782 25.1921 34.4146 25.0771 33.8895 25.0771Z" fill="#E2645A"/>
<path d="M40.8775 26.533H39.6657L39.9081 25.1538H39.0194L38.3328 28.7934H39.2618L39.5445 27.2609H40.7159L40.4736 28.7934H41.3622L42.0085 25.1538H41.1199L40.8775 26.533Z" fill="#E2645A"/>
<path fill-rule="evenodd" clip-rule="evenodd" d="M45.3207 26.4564C45.4823 25.6135 46.1689 25.0771 47.1788 25.0771C47.6635 25.0771 48.0674 25.2304 48.3098 25.4986C48.5117 25.7284 48.5925 26.0732 48.5117 26.4947L48.3502 27.4908C48.1886 28.3336 47.5019 28.87 46.4921 28.87C46.0074 28.87 45.6035 28.7167 45.3611 28.4485C45.1591 28.2187 45.0783 27.8739 45.1591 27.4524L45.3207 26.4564ZM46.2093 26.4947L46.0478 27.4908C46.0074 27.7206 46.0478 27.8739 46.1286 27.9888C46.2093 28.1038 46.3709 28.1421 46.6133 28.1421C47.098 28.1421 47.3807 27.9122 47.4615 27.4525L47.6231 26.4564C47.6635 26.2265 47.6231 26.0733 47.5423 25.9583C47.4615 25.8434 47.2999 25.8051 47.0576 25.8051C46.5729 25.8051 46.2901 26.0349 46.2093 26.4947Z" fill="#E2645A"/>
<path fill-rule="evenodd" clip-rule="evenodd" d="M54.1667 25.1538C54.6514 25.1538 55.0554 25.2687 55.2573 25.4986C55.4189 25.6902 55.4593 25.9583 55.4189 26.2648C55.2573 26.9544 54.6918 27.3376 53.7628 27.3376H52.8742L52.6318 28.7934H51.7432L52.3894 25.1538H54.1667ZM54.0052 25.8817H53.1569L53.0357 26.6096H53.8436C54.4091 26.6096 54.4899 26.4181 54.5303 26.2265C54.5707 26.1116 54.5303 26.035 54.4899 25.9967C54.4091 25.92 54.2475 25.8817 54.0052 25.8817Z" fill="#E2645A"/>
</svg>
