<svg width="166" height="38" viewBox="0 0 166 38" fill="none" xmlns="http://www.w3.org/2000/svg">
<path fill-rule="evenodd" clip-rule="evenodd" d="M129.257 10.6956C129.014 12.1131 129.943 13.1859 131.317 13.1475C132.044 13.1475 132.69 12.8411 133.336 12.6112C133.579 13.3391 133.902 13.7988 134.508 14.1436C135.073 14.4884 135.639 14.6417 136.366 14.68C138.345 14.7949 139.84 13.7988 141.051 13.1092C141.173 13.0326 141.253 12.956 141.294 12.8411C141.334 12.7261 141.738 12.5346 141.819 12.4579C141.9 12.4196 141.9 12.3047 141.94 12.2281C141.98 12.1515 142.465 11.8067 142.869 11.6534C142.95 11.6151 143.031 11.1554 142.788 11.0404C142.546 10.9255 142.182 11.232 141.9 11.3852C141.576 11.5768 141.253 11.6917 141.011 11.8067C140.445 12.0748 139.88 12.4196 139.193 12.6112C137.497 13.0709 136.002 12.4579 135.558 11.2703C136.043 10.8489 136.487 10.4274 136.931 10.006C137.982 9.04823 139.84 6.48138 139.476 5.98333C139.234 5.71515 138.749 5.90671 138.547 5.98333C138.466 6.02164 138.305 5.98333 138.224 6.02164C137.78 6.17489 137.295 6.558 136.851 6.78787C136.366 7.05605 135.922 7.28591 135.518 7.63072C134.427 8.55019 133.619 9.89108 133.256 11.232C132.205 11.4618 131.519 10.4658 131.68 9.46966C133.094 8.39694 134.265 7.13267 135.518 5.83008C136.285 5.02555 136.851 4.14439 137.416 3.26323C137.537 3.07167 137.537 2.95674 137.618 2.72687C137.699 2.497 137.901 2.22882 137.982 1.88402C138.183 1.34766 138.426 0.42819 138.022 0.0450772C137.78 -0.146479 136.487 0.313256 135.922 0.658058C135.356 1.00286 134.831 1.23273 134.346 1.50091C134.063 1.69246 133.781 2.03727 133.498 2.30544C133.215 2.57362 133.013 2.95674 132.771 3.26323C131.801 4.60412 131.115 5.90671 130.347 7.40085C130.105 7.8989 129.822 8.5885 129.62 9.16317C129.539 9.39304 129.539 9.43135 129.418 9.54628C129.257 9.77615 128.53 10.1976 128.247 10.3125C128.166 10.3508 127.116 10.6956 127.358 11.3086C127.601 11.5385 128.651 10.8872 129.257 10.6956ZM137.416 7.2859C137.456 7.2859 137.497 7.2859 137.497 7.32421C137.618 7.59239 137.376 7.93719 137.214 8.16706C136.77 8.78004 136.204 9.62289 135.639 9.89106C135.841 8.78004 136.608 7.93719 137.416 7.2859ZM135.639 1.76906C135.679 1.69243 135.76 1.65412 135.962 1.69243C136.123 1.73075 135.639 3.03333 135.356 3.608C134.629 4.98721 133.458 6.09823 132.488 7.17095C133.256 5.37032 134.387 3.30151 135.639 1.76906Z" fill="#E2645A"/>
<path fill-rule="evenodd" clip-rule="evenodd" d="M164.843 20.4649C164.277 20.3883 163.389 20.1201 162.864 20.0818C162.621 20.0435 161.288 19.8519 160.521 20.0052C160.319 20.0435 160.117 20.0435 159.915 20.0052C160.965 19.737 162.136 19.622 163.348 19.9285C163.308 19.9285 163.793 19.9668 164.237 20.0052C164.196 20.0052 164.277 20.0052 164.277 20.0052C164.802 20.1201 165.126 20.0435 165.61 19.9668C165.247 19.6987 164.439 19.8519 164.277 19.3922C164.479 19.2006 164.964 19.3922 165.247 19.3922C165.126 19.2389 164.883 19.2389 164.762 19.124C164.883 19.0857 165.004 19.2006 165.085 19.124C164.924 19.0474 165.045 19.0091 165.166 18.9707C164.843 18.8941 164.358 18.8941 164.398 18.5493C164.722 18.5876 165.327 18.6643 165.368 18.6643C165.408 18.6259 165.166 18.5493 165.166 18.4727C164.722 18.3961 164.116 18.1662 163.671 17.9747C163.712 17.8597 163.591 17.7831 163.429 17.7448C164.116 17.8214 164.722 17.9747 165.368 18.013C165.247 17.9747 165.408 17.9363 165.408 17.9363C165.368 17.9363 165.287 17.898 165.247 17.898C165.287 17.898 165.287 17.898 165.327 17.898C165.327 17.898 165.247 17.898 165.166 17.8597C165.126 17.8597 165.085 17.8214 165.045 17.8214C164.762 17.7448 164.277 17.5915 163.995 17.4C164.52 17.4383 165.004 17.4766 165.489 17.5149C164.439 17.0935 162.298 17.1318 161.167 17.5532C160.44 17.8597 159.147 18.2045 158.34 18.6259C158.501 18.2045 158.784 17.6299 158.703 17.1701C158.622 17.285 158.622 17.5149 158.501 17.5532C158.461 17.5149 158.582 17.3234 158.42 17.4383C158.501 17.0935 158.784 16.7487 158.743 16.4422C158.582 16.3656 158.582 16.2123 158.34 16.174C158.299 16.174 158.299 16.2123 158.218 16.2506C158.259 16.174 158.38 16.1357 158.299 16.0591C158.016 16.0208 157.855 15.9058 157.532 15.9825C157.572 16.1357 157.653 16.2506 157.532 16.3656C157.047 16.3656 156.966 15.9442 156.764 15.7526C156.522 15.7143 156.522 15.9058 156.36 15.9442C156.32 15.9825 156.36 16.289 156.279 16.4805C156.118 16.9019 155.956 17.4383 155.714 17.8597C155.552 18.1279 155.35 18.5493 155.189 18.7792C154.825 19.3155 154.704 19.9285 154.341 20.3883C154.381 20.5798 154.179 20.6181 154.098 20.7714C154.058 20.848 154.058 21.0012 153.977 21.1162C153.816 21.4227 153.533 21.7292 153.331 22.074C152.685 22.9934 151.998 23.9512 151.392 24.7941C150.988 25.3687 150.584 25.9051 150.18 26.4415C150.019 26.6713 149.817 26.8246 149.736 27.0544C149.695 27.1694 149.776 27.3226 149.736 27.3992C149.695 27.5908 149.494 27.744 149.534 27.9739C149.615 28.0122 149.776 28.0122 149.857 28.0888C149.736 28.4336 149.413 28.5869 149.494 28.97C149.695 29.0466 149.857 28.8934 149.978 29.0083C150.14 28.8551 150.301 28.6252 150.463 28.4336C150.625 28.2804 150.826 27.9739 151.069 28.0888C150.948 28.4336 150.544 28.5869 150.705 28.97C150.907 29.0849 151.028 28.8934 151.19 29.0083C151.715 28.472 152.119 27.859 152.725 27.4375C153.331 26.7096 153.896 25.9434 154.381 25.1389C154.745 24.7558 155.068 24.3726 155.391 23.9895C155.714 23.6064 155.956 23.1467 156.279 22.7253C156.441 22.5337 156.764 22.4188 157.007 22.2655C157.734 21.7292 158.299 21.2694 159.188 20.9246C160.117 20.5798 161.086 20.3116 162.056 20.3116C162.621 20.3883 163.267 20.35 163.712 20.5798C163.712 20.5798 163.752 20.6181 163.793 20.6181C164.6 20.6948 165.126 20.8097 165.812 20.6564C165.691 20.5032 165.368 20.5415 165.126 20.5032C164.843 20.5032 164.924 20.4649 164.843 20.4649ZM151.796 25.6369C151.715 24.9857 152.2 24.5642 152.483 24.1428C152.523 24.1428 153.048 23.4532 153.331 23.3383C152.806 24.0662 152.24 24.8324 151.796 25.6369ZM155.148 20.8863C154.825 21.4227 154.462 21.9207 153.977 22.3805C153.937 22.0357 154.421 21.6526 154.583 21.2695C155.27 20.7331 155.552 19.8136 156.037 19.0857C156.078 19.0474 155.997 18.8175 155.997 18.7792C156.199 18.511 156.36 18.1279 156.562 17.8597C156.603 17.8597 156.603 17.8597 156.643 17.8981C156.643 18.0896 156.603 18.3195 156.562 18.3578C156.522 18.3961 156.562 18.8942 156.441 19.124C156.158 19.7753 155.552 20.4266 155.148 20.8863Z" fill="#E2645A"/>
<path fill-rule="evenodd" clip-rule="evenodd" d="M150.584 19.2006C151.028 18.1662 151.715 17.4 152.2 16.4422C152.321 16.4422 152.361 16.3656 152.442 16.3273C152.119 15.9058 151.796 16.0591 151.271 16.174C151.109 16.4039 150.907 16.5954 150.746 16.8253C150.867 16.5954 150.988 16.3656 151.109 16.1357C150.867 16.0974 150.867 16.289 150.705 16.2506C150.544 16.5188 150.261 16.7104 150.14 17.0552C149.615 17.3617 149.332 18.3194 148.847 18.7026C149.09 18.3194 149.372 17.898 149.615 17.4766C149.938 16.9786 150.382 16.4422 150.463 15.8675C150.301 15.8292 150.261 15.6377 150.099 15.561C149.453 15.5993 149.372 16.174 148.968 16.4805C148.524 16.787 148.322 17.3234 147.959 17.6298C147.918 17.7065 147.918 17.6682 147.959 17.7831C147.514 18.3578 147.191 19.0091 146.585 19.4305C146.383 19.9285 145.899 20.1584 145.616 20.5798C145.171 20.8863 144.969 21.3844 144.646 21.8058C144.485 22.0356 144.404 22.1889 144.283 22.4188C144.162 22.6103 143.919 22.7253 143.919 22.9934C143.435 23.4532 142.99 23.9895 142.465 24.4876C142.182 24.7174 141.94 24.9856 141.657 25.1772C141.173 25.4837 140.647 25.9051 140.163 26.1733C139.355 26.5564 138.264 26.4414 138.022 25.6369C137.941 25.3304 138.022 24.9856 138.062 24.6791C138.224 23.3382 139.072 22.3038 139.88 21.5759C140.244 21.0396 140.728 20.6181 141.132 20.0818C141.577 19.4688 142.021 18.7409 142.465 18.2045C142.425 18.2045 142.425 18.1662 142.425 18.1279C142.788 17.7065 143.111 17.285 143.435 16.8253C143.354 16.6721 143.475 16.5571 143.515 16.4422C143.233 16.4039 143.152 16.7104 142.99 16.9019C142.748 17.1701 142.465 17.4 142.223 17.5532C142.384 17.3234 142.586 17.1318 142.708 16.9402C142.627 16.9402 142.667 16.787 142.586 16.787C142.102 17.1318 141.617 17.6682 141.213 18.013C141.617 17.4383 142.061 16.9019 142.667 16.4805C142.586 16.4422 142.627 16.4422 142.627 16.3656C142.667 16.289 142.748 16.289 142.748 16.174C142.506 16.174 142.465 16.4039 142.263 16.4805C142.304 16.3656 142.223 16.3656 142.182 16.289C141.94 16.2506 141.819 16.5188 141.617 16.3656C141.577 16.4039 141.536 16.4805 141.455 16.5188C141.415 16.4805 141.415 16.4039 141.334 16.4422C141.213 16.5954 140.526 16.7104 140.446 16.787C140.244 16.9019 140.244 17.1701 140.203 17.2467C140.203 17.2467 140.163 17.3617 140.163 17.4766C140.042 17.5149 140.082 17.5915 139.961 17.5532C139.597 18.0896 138.87 18.4727 138.628 19.0857C138.628 19.124 138.628 19.124 138.547 19.2006C138.507 19.2389 137.982 20.0818 137.82 20.4266C137.82 20.4649 137.699 20.6564 137.618 20.7714C137.618 20.7331 137.618 20.6948 137.578 20.6948C137.335 21.0779 137.053 21.461 136.81 21.8058C136.77 21.8441 136.689 21.9207 136.689 21.9207C136.689 21.959 136.083 22.6869 135.881 23.0701C135.841 23.1467 135.518 23.6447 135.275 24.0278C135.275 24.0661 135.194 24.2577 134.992 24.5642C134.871 24.6791 134.427 25.1389 134.306 25.407C134.265 25.4454 134.023 25.7902 133.983 25.9051C133.983 25.9434 133.619 26.5564 133.538 26.633C133.296 26.7862 133.175 26.9778 133.013 27.1311C132.973 27.7057 132.125 28.0122 132.69 28.5486C133.336 28.0888 133.821 27.4375 134.467 26.9778C134.508 26.9395 134.629 26.8246 134.669 26.7863C134.992 27.3226 135.356 27.8207 135.881 28.1655C136.245 28.0888 136.447 28.4336 136.689 28.6252C136.81 28.7018 137.012 28.7401 137.174 28.8167C137.618 29.0466 137.941 29.2765 138.466 29.3914C139.153 29.5064 139.638 29.5447 140.203 29.3148C141.617 28.8167 143.111 27.9356 144 27.1311C144.162 27.4375 144.444 27.6674 144.768 27.8207C144.848 27.859 144.929 27.8973 145.01 27.9356C145.414 28.1655 146.1 28.357 146.747 28.2804C146.747 28.1655 146.828 28.0505 146.868 28.0505C146.949 28.0122 146.464 27.744 146.585 27.7823C146.585 27.7823 146.747 27.859 146.787 27.8207C146.787 27.7823 146.626 27.6291 146.666 27.6291C146.828 27.6674 147.11 27.859 147.151 27.859C147.312 27.8973 147.433 27.8973 147.514 27.859C147.918 27.9739 148.201 27.7057 148.484 27.5142C148.161 27.3992 147.959 27.4375 147.595 27.2843C147.433 27.2077 146.949 26.9778 146.949 26.9012C146.222 26.7096 145.737 26.0966 145.899 25.1389C146.706 24.1428 147.635 23.2616 148.403 22.2655C148.807 21.959 149.049 21.4993 149.292 21.0396C149.938 20.6181 150.019 19.6987 150.584 19.2006ZM135.639 25.7518C135.477 25.3304 135.881 24.7174 136.245 24.4493C136.043 24.7941 135.922 25.4453 136.123 25.8285C136.285 26.1733 136.689 26.5564 137.012 26.7479C136.527 26.633 135.8 26.2116 135.639 25.7518ZM138.264 21.5376C138.345 21.3843 138.426 21.2694 138.507 21.1161C138.668 20.848 138.749 20.5032 138.911 20.235C139.153 19.8519 139.436 19.3538 139.718 19.124C139.961 18.9324 140.284 18.8941 140.486 18.6642C140.526 18.6642 140.526 18.6642 140.567 18.7025C140.446 18.9707 140.203 19.124 140.082 19.4304C139.961 19.4304 139.961 19.5837 139.759 19.5454C138.991 20.3882 138.547 21.3843 137.901 22.3038C137.86 21.9973 138.143 21.8057 138.264 21.5376ZM143.96 24.7558C145.252 23.6448 146.424 22.4188 147.474 21.1162C147.555 21.0779 147.555 21.1545 147.595 21.2311C146.828 22.074 146.302 23.1084 145.333 23.7597C144.929 24.1428 144.727 24.6792 143.96 24.7558ZM145.616 23.9895C145.535 24.0278 145.373 23.8746 145.414 23.8363C146.424 22.9551 147.312 21.959 148.12 20.8863C148.201 20.848 148.201 20.9246 148.201 20.9629C147.635 21.6525 146.02 23.8746 145.616 23.9895Z" fill="#E2645A"/>
<path fill-rule="evenodd" clip-rule="evenodd" d="M134.508 20.81C134.548 20.1204 134.427 19.6606 134.265 19.0859C133.862 17.5535 132.892 16.6723 131.519 16.021C131.115 15.7529 130.792 15.6379 130.67 15.5996C130.428 15.4847 130.024 15.3698 129.701 15.3314C129.378 15.2931 129.095 15.4847 128.732 15.4464C128.328 15.4081 128.005 15.0633 127.439 15.2548C125.904 15.7529 124.692 16.5957 123.642 17.5535C123.602 17.5918 123.642 17.7067 123.561 17.7451C123.279 18.0515 122.794 18.2431 122.511 18.5879C122.43 18.7028 122.43 18.8178 122.35 18.9327C122.269 19.0476 122.107 19.1243 122.026 19.2775C121.824 19.584 121.663 19.9288 121.421 20.2353C120.976 20.7333 120.653 21.308 120.33 21.8827C120.128 22.2275 119.966 22.6106 119.845 22.9937C119.643 23.1853 119.361 23.4917 119.239 23.7982C119.118 24.1047 119.159 24.8326 119.159 25.0625C119.159 25.2158 119.078 25.369 119.078 25.4839C119.078 25.5606 119.118 25.6755 119.159 25.7904C119.159 26.0203 119.078 26.2119 119.118 26.3651C119.239 26.9015 119.522 27.3229 119.684 27.7443C119.805 27.7443 119.684 27.4761 119.805 27.4761C119.966 27.8975 120.209 28.2424 120.572 28.4722C120.815 28.6255 121.138 28.7021 121.38 28.8553C121.501 28.932 121.542 29.0469 121.623 29.1235C121.744 29.2001 121.905 29.2001 122.067 29.3151C122.228 29.43 122.309 29.5832 122.471 29.6599C122.632 29.7365 123.359 29.928 124.086 29.8514C124.733 29.8131 125.339 29.4683 125.945 29.5066C125.864 29.5066 125.662 29.8131 125.743 29.8131C126.874 29.43 128.005 29.0469 128.974 28.5105C128.772 28.7021 128.368 28.7787 128.247 29.0469C129.62 28.5105 130.832 27.2846 131.882 26.0203C132.367 25.4456 132.852 24.7943 133.296 24.1814C133.862 23.3002 134.387 22.1509 134.508 20.81ZM121.622 21.1931C121.663 21.3463 121.057 22.2275 121.017 22.3807C120.936 22.1892 121.38 21.2314 121.622 21.1931ZM124.127 29.0086C124.369 28.7021 124.894 28.9703 125.258 28.932C125.015 29.2002 124.49 29.1619 124.127 29.0086ZM124.935 28.6638C125.743 28.3956 126.429 28.0508 127.237 27.7826C127.076 28.0891 126.672 28.204 126.187 28.4339C125.743 28.6255 125.46 28.8936 124.935 28.6638ZM126.308 28.7021C127.076 28.2807 127.722 27.7826 128.57 27.4378C128.57 27.3995 128.61 27.3995 128.651 27.3995C128.085 28.0508 127.116 28.319 126.308 28.7021ZM129.297 24.7944C128.57 26.0203 127.318 26.7482 125.783 27.208C124.369 27.5528 122.794 27.0164 121.946 26.3651L121.905 26.3268C121.542 25.8671 120.976 25.7521 121.057 24.871C121.097 24.3729 121.38 23.8749 121.582 23.3768C121.703 23.147 121.744 22.9171 121.865 22.7255C122.067 22.3424 122.309 21.8827 122.632 21.5762C123.198 20.2736 123.925 19.086 124.935 18.1665C125.015 18.1282 125.015 18.0899 125.137 18.0133C125.339 17.86 125.46 17.7451 125.702 17.5918C126.308 17.1704 127.076 16.9405 127.843 16.749C128.328 16.7107 128.934 16.8639 129.459 16.9022C129.984 16.9022 130.428 17.2087 130.63 17.362C130.994 17.86 131.519 18.2431 131.6 19.0094C131.6 19.1626 131.721 19.3158 131.761 19.4691C131.801 19.7373 131.721 20.0821 131.68 20.3119C131.68 20.3886 131.64 20.5801 131.6 20.695C131.438 21.0782 131.155 21.7295 130.994 21.9976C130.872 22.1509 130.711 22.4574 130.63 22.6489C130.549 22.8788 130.469 23.1087 130.388 23.2619C130.307 23.4152 130.105 23.645 130.065 23.6833C129.863 23.8749 129.701 24.2197 129.62 24.3346C129.62 24.3729 129.539 24.5262 129.499 24.5645C129.418 24.6028 129.378 24.7177 129.297 24.7944ZM131.074 24.4879C130.549 25.2541 130.024 26.0203 129.499 26.7483C129.701 25.982 130.186 24.9476 131.074 24.4879ZM132.569 22.9171C132.084 23.8749 131.074 25.369 130.267 26.2502C130.994 25.1391 131.842 23.645 131.882 23.3002C131.963 23.1469 132.165 22.8021 132.205 22.6872C132.286 22.3424 132.529 22.1509 132.65 21.8444C132.65 22.1892 132.69 22.6106 132.569 22.9171Z" fill="#E2645A"/>
<path fill-rule="evenodd" clip-rule="evenodd" d="M121.784 15.5609C121.784 15.4077 121.824 15.331 121.865 15.2161C121.824 15.1395 121.663 15.1012 121.703 14.9479C121.461 14.9862 121.259 15.2161 121.097 15.2927C121.057 15.331 121.017 15.331 121.017 15.3694C120.976 15.4077 120.895 15.4077 120.855 15.446C120.572 15.7525 120.411 16.1356 120.168 16.5187C119.764 17.0934 119.441 17.6297 119.118 18.2427C118.957 18.5109 118.876 18.8557 118.593 19.0472C118.553 18.7791 118.714 18.6641 118.795 18.4726C119.078 17.8979 119.361 17.2466 119.724 16.6719C120.168 15.944 120.734 15.2161 121.097 14.6031C121.138 14.4882 121.017 14.4116 121.017 14.2583C121.259 13.9135 120.855 13.607 120.734 13.3772C120.613 13.4155 120.532 13.607 120.411 13.5687C120.532 13.5304 120.613 13.3772 120.532 13.2239C120.492 13.3389 120.411 13.2239 120.451 13.2239C120.29 13.1856 120.209 13.4538 120.047 13.5687C119.966 13.607 119.926 13.5304 119.845 13.5304C119.401 13.8369 119.199 14.2583 118.876 14.7181C118.674 15.0246 118.472 15.2927 118.27 15.5609C118.068 15.8291 117.947 16.2122 117.785 16.5187C117.583 16.8252 117.381 17.1317 117.26 17.4382C117.018 18.0895 116.977 18.7791 116.614 19.392C116.614 19.4304 116.493 19.8135 116.331 19.9667C116.452 19.507 116.695 18.8557 116.897 18.2044C116.695 18.3193 116.695 18.5109 116.614 18.6641C116.331 19.3537 115.968 20.0433 115.685 20.7329C115.442 21.3076 115.119 21.9972 114.796 22.4953C114.473 23.3381 113.867 23.8745 113.625 24.7556C113.706 24.7939 113.827 24.4875 113.988 24.3725C114.029 24.4491 113.948 24.6407 113.908 24.7173C113.786 24.9089 113.544 25.3303 113.382 25.6751C113.302 25.8283 113.18 25.9433 113.14 26.0965C113.019 26.3647 113.019 26.6329 112.938 26.8628C112.857 27.0926 112.696 27.2842 112.534 27.4757C112.211 27.8972 112.049 28.3569 111.726 28.74C111.524 28.9699 111.403 29.2381 111.363 29.3147C111.282 29.5445 111.08 29.8127 111.04 29.8893C110.999 29.9277 110.595 30.6556 110.151 30.8088C110.111 30.8471 110.07 30.8854 109.989 30.9238C109.464 31.69 109.141 32.3796 108.333 32.801C108.172 32.8776 108.131 32.9543 108.051 32.9926C107.687 33.4523 107.283 33.7588 106.596 33.912C106.96 33.7588 107.404 33.3757 107.566 33.1841C107.485 33.1841 107.243 33.2991 107.081 33.3757C106.677 33.6055 106.798 33.5672 106.516 33.6822C105.991 34.1419 105.385 34.4867 104.658 34.6783C104.617 34.6783 104.577 34.6783 104.536 34.7166C104.294 34.7932 104.254 34.6783 104.052 34.6016C103.971 34.5633 103.89 34.4484 103.85 34.3718C103.527 33.7971 103.244 33.3757 103.486 32.5711C103.688 31.8432 104.456 30.9621 105.021 30.6556C105.142 30.3491 105.465 29.966 105.223 29.5445C105.223 29.5062 105.183 29.4296 105.183 29.3913C105.142 28.8166 105.061 28.5485 104.819 28.1653C104.9 28.0504 105.021 28.0121 105.021 27.8205C104.94 27.7439 104.9 27.5907 104.86 27.4757C104.86 27.3991 104.819 27.3225 104.658 27.2842C104.577 27.2459 104.617 27.0926 104.577 27.0926C104.254 27.0543 104.375 27.3608 104.173 27.4374C104.092 27.3991 104.132 27.3608 104.092 27.3608C103.89 27.4757 103.567 27.4757 103.486 27.5524C103.001 28.242 102.638 29.0465 101.951 29.5829C101.951 29.7361 101.911 29.7361 101.83 29.851C101.749 29.8893 101.749 29.966 101.669 29.966C101.345 30.4257 101.022 31.0004 100.82 31.5367C100.739 31.7666 100.78 31.9582 100.699 32.2263C100.659 32.3413 100.538 32.4562 100.497 32.5711C100.376 32.9926 100.255 33.6055 100.295 34.0653C100.336 34.6016 100.416 35.2146 100.659 35.7127C100.699 35.7893 100.739 35.8276 100.739 35.8659C100.901 36.0575 101.386 36.5938 101.749 36.7088C101.79 36.7471 101.79 36.8237 101.83 36.862C102.517 37.3601 103.486 37.6665 104.496 37.7432C104.536 37.7432 104.536 37.8581 104.617 37.8198C106.516 37.5516 107.768 36.7471 109.02 35.7893C110.434 34.7549 111.605 33.6439 112.615 32.303C113.019 31.7666 113.423 31.2686 113.746 30.6939C114.069 30.3874 114.271 30.0043 114.433 29.5829C115.846 27.7822 116.533 25.4069 117.543 23.2615C117.543 23.2232 117.624 23.1082 117.624 23.1082C117.947 21.9589 118.593 21.0394 119.118 20.0817C120.047 18.5875 120.815 16.9401 121.784 15.5609ZM109.464 34.2185C109.464 34.2951 107.647 35.636 107.525 35.6743C107 36.0191 106.596 36.1341 106.475 36.1341C106.354 36.1341 105.142 35.9808 105.304 35.8659C105.344 35.8659 106.314 35.9425 106.839 35.7127C107.849 35.3295 108.939 34.4867 109.384 34.1036C109.464 34.1419 109.464 34.1802 109.464 34.2185ZM109.828 33.9886C109.707 33.7588 110.272 33.3757 110.393 33.3757C110.272 33.5289 110.03 33.7205 109.828 33.9886Z" fill="#E2645A"/>
<path fill-rule="evenodd" clip-rule="evenodd" d="M122.713 11.96C122.673 12.0366 123.117 12.1133 123.198 12.1899C123.279 12.2665 123.238 12.3814 123.319 12.4581C123.844 12.8412 124.531 12.1899 124.935 12.0366C125.298 11.7301 125.662 11.347 125.985 10.9639C126.025 10.9256 126.106 10.734 126.106 10.6957C126.147 10.3126 125.743 9.92951 125.743 9.58471C125.743 9.46977 125.864 9.35484 125.904 9.2399C126.106 8.62692 126.147 8.09056 125.783 7.66914C124.814 7.40096 123.763 8.51199 123.157 8.97172C123.036 9.04835 122.875 9.12497 122.794 9.16328C122.592 9.35484 122.592 9.39315 122.35 9.54639C122.188 9.69964 121.703 9.96782 121.744 10.236C121.865 10.8873 121.946 11.0022 122.228 11.5003C122.39 11.7301 122.552 11.8068 122.713 11.96Z" fill="#E2645A"/>
<path fill-rule="evenodd" clip-rule="evenodd" d="M0 27.8592L3.19103 6.48145H62.0836L58.933 27.8592H28.1941L24.7608 8.0139L12.3198 27.8592H0ZM9.77504 12.573H16.9649L17.6112 8.93338H5.65498L3.27181 25.8287H7.87658L8.8864 18.9326H14.8241L15.3088 15.5229H9.37111L9.77504 12.573ZM35.5456 13.9138C35.7476 14.1437 36.2323 14.3736 37.0401 14.5651C39.0194 15.1398 40.4331 15.6762 41.241 16.1742C42.0488 16.7106 42.6143 17.3235 42.9375 18.0515C43.2606 18.7794 43.3414 19.5839 43.2202 20.4651C43.0991 21.4995 42.6951 22.4573 42.0488 23.3001C41.4026 24.143 40.5543 24.7943 39.5445 25.2157C38.5347 25.6371 37.2825 25.7903 35.8284 25.752C33.2432 25.6371 31.5467 25.0241 30.6985 23.9514C30.1734 23.3001 29.8502 22.5339 29.6483 21.6527L34.0107 19.6988C34.0107 20.4651 34.1319 21.0781 34.3742 21.4995C34.7782 22.1891 35.4244 22.5339 36.3131 22.5722C36.9998 22.6105 37.5249 22.4573 37.9288 22.1508C38.3327 21.8443 38.5751 21.4612 38.6155 21.0014C38.6559 20.58 38.5347 20.1969 38.2519 19.8521C37.9692 19.5073 37.2017 19.1625 35.9899 18.8177C34.0107 18.243 32.6373 17.5151 31.8699 16.6723C31.1024 15.8294 30.7793 14.7567 30.9408 13.4924C31.062 12.6496 31.3852 11.8833 31.9103 11.1554C32.4758 10.4275 33.2028 9.89115 34.1723 9.50804C35.1417 9.12493 36.3939 8.97168 37.9692 9.00999C39.908 9.08661 41.3218 9.54635 42.2508 10.3509C42.8567 10.8872 43.2606 11.6535 43.4222 12.5729L39.1406 14.2203C39.1002 13.4924 38.9386 12.9177 38.6155 12.5729C38.2923 12.2281 37.7672 12.0366 37.1209 11.9983C36.5958 11.96 36.1515 12.0749 35.8284 12.3048C35.5052 12.5346 35.3437 12.8411 35.3033 13.1859C35.2629 13.4541 35.3437 13.7223 35.5456 13.9138ZM53.8839 12.573H58.4079L58.933 8.9717H44.7955L44.23 12.573H49.158L47.2595 25.7904H51.9855L53.8839 12.573Z" fill="#E2645A"/>
<path d="M11.9159 34.9851L22.8623 17.5151L26.013 34.9851H11.9159Z" fill="#E2645A"/>
<path d="M33.8895 31.0771C33.0009 31.0771 32.3546 31.4986 32.2334 32.1499C32.1122 32.8778 32.6374 33.1076 33.1221 33.2609L33.5664 33.3758C34.0107 33.4908 34.0915 33.6057 34.0511 33.7589C34.0107 34.0654 33.5664 34.1421 33.324 34.1421C33.0817 34.1421 32.8797 34.0654 32.7585 33.9505C32.6374 33.7973 32.6374 33.6057 32.6374 33.6057V33.5291H31.7083V33.6057C31.7083 33.644 31.6275 34.1037 31.9507 34.4869C32.193 34.755 32.597 34.9083 33.1221 34.9083C33.8491 34.9083 34.7378 34.6401 34.8993 33.8356C35.0205 33.0693 34.4146 32.8012 33.9299 32.6862L33.4856 32.5713C33.1221 32.4564 33.0817 32.3414 33.0817 32.2265C33.1221 31.9966 33.324 31.8817 33.6876 31.8817C33.8895 31.8817 34.0511 31.92 34.1319 32.0349C34.2531 32.1882 34.2127 32.3797 34.2127 32.3797V32.4564H35.1417V32.3797C35.1417 32.3414 35.2225 31.8817 34.8993 31.4986C34.7782 31.1921 34.4146 31.0771 33.8895 31.0771Z" fill="#E2645A"/>
<path d="M40.8775 32.533H39.6657L39.9081 31.1538H39.0194L38.3328 34.7934H39.2618L39.5445 33.2609H40.7159L40.4736 34.7934H41.3622L42.0085 31.1538H41.1199L40.8775 32.533Z" fill="#E2645A"/>
<path fill-rule="evenodd" clip-rule="evenodd" d="M45.3207 32.4564C45.4823 31.6135 46.1689 31.0771 47.1788 31.0771C47.6635 31.0771 48.0674 31.2304 48.3098 31.4986C48.5117 31.7284 48.5925 32.0732 48.5117 32.4947L48.3502 33.4908C48.1886 34.3336 47.5019 34.87 46.4921 34.87C46.0074 34.87 45.6035 34.7167 45.3611 34.4485C45.1591 34.2187 45.0783 33.8739 45.1591 33.4524L45.3207 32.4564ZM46.2093 32.4947L46.0478 33.4908C46.0074 33.7206 46.0478 33.8739 46.1286 33.9888C46.2093 34.1038 46.3709 34.1421 46.6133 34.1421C47.098 34.1421 47.3807 33.9122 47.4615 33.4525L47.6231 32.4564C47.6635 32.2265 47.6231 32.0733 47.5423 31.9583C47.4615 31.8434 47.2999 31.8051 47.0576 31.8051C46.5729 31.8051 46.2901 32.0349 46.2093 32.4947Z" fill="#E2645A"/>
<path fill-rule="evenodd" clip-rule="evenodd" d="M54.1667 31.1538C54.6514 31.1538 55.0554 31.2687 55.2573 31.4986C55.4189 31.6902 55.4593 31.9583 55.4189 32.2648C55.2573 32.9544 54.6918 33.3376 53.7628 33.3376H52.8742L52.6318 34.7934H51.7432L52.3894 31.1538H54.1667ZM54.0052 31.8817H53.1569L53.0357 32.6096H53.8436C54.4091 32.6096 54.4899 32.4181 54.5303 32.2265C54.5707 32.1116 54.5303 32.035 54.4899 31.9967C54.4091 31.92 54.2475 31.8817 54.0052 31.8817Z" fill="#E2645A"/>
<path d="M84.017 29.1233C83.815 29.1233 83.613 28.9701 83.613 28.7402V9.12481C83.613 8.93326 83.7746 8.7417 84.017 8.7417C84.2593 8.7417 84.4209 8.89494 84.4209 9.12481V28.7785C84.4209 28.9701 84.2189 29.1233 84.017 29.1233Z" fill="#E2645A"/>
<path d="M94.3575 19.2775H73.636C73.434 19.2775 73.2321 19.1242 73.2321 18.8943C73.2321 18.7028 73.3936 18.5112 73.636 18.5112H94.3575C94.5594 18.5112 94.7614 18.6645 94.7614 18.8943C94.721 19.0859 94.5594 19.2775 94.3575 19.2775Z" fill="#E2645A"/>
</svg>
