<svg width="70" height="70" viewBox="0 0 70 70" fill="none" xmlns="http://www.w3.org/2000/svg">
<path d="M59.7488 10.2512C53.1382 3.64067 44.3487 0 35 0C25.6508 0 16.8618 3.64067 10.2512 10.2512C3.64067 16.8618 0 25.6508 0 35C0 44.3487 3.64067 53.1382 10.2512 59.7488C16.8618 66.3593 25.6508 70 35 70C44.3487 70 53.1382 66.3593 59.7488 59.7488C66.3593 53.1382 70 44.3487 70 35C70 25.6508 66.3593 16.8618 59.7488 10.2512ZM17.5465 60.4826C19.0103 52.0541 26.3141 45.8371 35 45.8371C43.6864 45.8371 50.9897 52.0541 52.4535 60.4826C47.4841 63.8968 41.4717 65.8984 35 65.8984C28.5283 65.8984 22.5159 63.8968 17.5465 60.4826ZM23.8713 30.6068C23.8713 24.47 28.8637 19.4781 35 19.4781C41.1363 19.4781 46.1287 24.4705 46.1287 30.6068C46.1287 36.7432 41.1363 41.7355 35 41.7355C28.8637 41.7355 23.8713 36.7432 23.8713 30.6068ZM56.0061 57.6376C54.9022 53.7139 52.7099 50.1539 49.6369 47.373C47.7517 45.6667 45.6059 44.3204 43.2987 43.3714C47.4686 40.6514 50.2308 35.9458 50.2308 30.6068C50.2308 22.2088 43.3981 15.3766 35 15.3766C26.6019 15.3766 19.7697 22.2088 19.7697 30.6068C19.7697 35.9458 22.5319 40.6514 26.7013 43.3714C24.3947 44.3204 22.2483 45.6662 20.3631 47.3725C17.2906 50.1534 15.0978 53.7134 13.9939 57.6371C7.91367 51.9905 4.10156 43.9326 4.10156 35C4.10156 17.9625 17.9625 4.10156 35 4.10156C52.0375 4.10156 65.8984 17.9625 65.8984 35C65.8984 43.9332 62.0863 51.991 56.0061 57.6376Z" fill="#84B8E2"/>
</svg>
