<svg width="58" height="70" viewBox="0 0 58 70" fill="none" xmlns="http://www.w3.org/2000/svg">
<path d="M41.6655 9.64041C41.5581 5.65502 39.8057 2.29551 37.0378 0.814257C35.6285 0.0601546 32.7755 -0.794374 28.8918 1.4057C25.0082 -0.794374 22.155 0.0602935 20.7457 0.814257C17.9778 2.29551 16.2254 5.65502 16.118 9.64041C11.2854 12.0307 7.21618 15.7227 4.36852 20.3007C1.52086 24.8787 0.0078901 30.1608 0 35.5521V68.3332C0 68.7752 0.175612 69.1992 0.488204 69.5118C0.800795 69.8244 1.22476 70 1.66683 70H17.7795C18.2216 70 18.6456 69.8244 18.9582 69.5118C19.2708 69.1992 19.4464 68.7752 19.4464 68.3332C19.4464 58.1006 16.6128 51.3686 14.0292 47.3562L15.0304 47.6896C15.2383 47.7599 15.4581 47.7884 15.677 47.7735C15.896 47.7587 16.1099 47.7007 16.3064 47.603C16.5029 47.5052 16.6782 47.3696 16.8222 47.204C16.9662 47.0383 17.076 46.8459 17.1454 46.6377C17.2148 46.4295 17.2424 46.2096 17.2266 45.9907C17.2109 45.7718 17.152 45.5581 17.0534 45.362C16.9549 45.1659 16.8186 44.9912 16.6523 44.8479C16.4861 44.7046 16.2932 44.5956 16.0847 44.5271L14.777 44.0912C18.5332 42.5216 21.6963 39.8013 24.2207 35.9579C26.2348 32.8913 27.7984 29.1771 28.8922 24.8861C29.9859 29.1771 31.5495 32.8913 33.5637 35.9579C36.0882 39.8013 39.2511 42.5212 43.0073 44.0912L41.6997 44.5271C39.6261 45.2294 40.6979 48.3747 42.754 47.6896L43.7552 47.3562C41.1707 51.3686 38.3371 58.1006 38.3371 68.3332C38.3371 68.7752 38.5127 69.1992 38.8253 69.5118C39.1379 69.8244 39.5619 70 40.004 70H56.1167C56.5587 70 56.9827 69.8244 57.2953 69.5118C57.6079 69.1992 57.7835 68.7752 57.7835 68.3332V35.5521C57.7756 30.1608 56.2626 24.8787 53.415 20.3007C50.5673 15.7227 46.4981 12.0307 41.6655 9.64041ZM22.3187 3.75344C22.8565 3.46761 23.4572 3.32092 24.0661 3.32673C25.4756 3.32673 26.8931 4.03374 27.9672 4.74965C28.241 4.93216 28.5627 5.02955 28.8918 5.02955C29.2208 5.02955 29.5425 4.93216 29.8163 4.74965C31.3419 3.73274 33.5604 2.73403 35.4648 3.75344C37.2097 4.68797 38.3371 7.151 38.3371 10.0302C38.3371 13.7692 32.1474 17.6559 29.0445 19.2212C28.9924 19.2438 28.9414 19.269 28.8918 19.2968C28.8421 19.2691 28.7911 19.2439 28.739 19.2214C25.6357 17.6561 19.4464 13.769 19.4464 10.0302C19.4464 7.151 20.5738 4.68797 22.3187 3.75344ZM3.33366 66.6663V35.5521C3.3407 30.9388 4.59344 26.413 6.95958 22.4526C9.32571 18.4923 12.7174 15.2444 16.7765 13.052C17.0795 13.7316 17.4539 14.377 17.8934 14.9773C14.1683 16.9702 11.0536 19.9363 8.88098 23.5595C6.70837 27.1827 5.55928 31.3274 5.55611 35.5521V66.6663H3.33366ZM8.88977 66.6663V46.1643C10.0959 47.4599 11.1373 48.8997 11.9902 50.4508C13.7482 53.586 15.8217 58.8803 16.0849 66.6663H8.88977ZM8.88977 42.2066V35.5521C8.88581 31.7838 9.94866 28.0914 11.9554 24.9018C13.9621 21.7122 16.8307 19.1559 20.2295 17.5284C20.9084 18.1354 21.619 18.7061 22.3583 19.2379C23.5911 20.1229 24.8781 20.9298 26.2118 21.654C24.4214 30.5698 19.9464 40.8688 8.88977 42.2066ZM31.5716 21.654C32.9053 20.9298 34.1923 20.1229 35.4252 19.2379C36.1645 18.7061 36.8751 18.1354 37.554 17.5283C40.9528 19.1558 43.8214 21.7121 45.8282 24.9017C47.8349 28.0913 48.8977 31.7838 48.8937 35.5521V42.2066C37.8371 40.8688 33.3619 30.57 31.5716 21.654ZM45.7933 50.451C46.6463 48.8998 47.6876 47.46 48.8937 46.1643V66.6663H41.6986C41.9625 58.8803 44.0353 53.586 45.7933 50.451ZM52.2274 66.6663V35.5521C52.2242 31.3274 51.0751 27.1827 48.9025 23.5595C46.7299 19.9363 43.6152 16.9702 39.8901 14.9773C40.3296 14.377 40.704 13.7316 41.007 13.052C45.0661 15.2444 48.4578 18.4923 50.8239 22.4526C53.1901 26.413 54.4428 30.9388 54.4498 35.5521V66.6663H52.2274Z" fill="#68BFB7"/>
</svg>
