<svg width="90" height="70" viewBox="0 0 90 70" fill="none" xmlns="http://www.w3.org/2000/svg">
<path d="M89.6946 30.8393C89.2545 30.3839 88.4995 30.3497 88.0105 30.7555L85.6703 32.6973L72.9796 21.064C72.5121 20.6362 71.7583 20.6373 71.2931 21.0706C70.8291 21.5029 70.8315 22.2009 71.3003 22.6298L83.8931 34.1727L77.6587 39.3454L56.9243 19.9293L77.5347 1.90377C78.013 1.48475 78.0344 0.786753 77.5812 0.344577C77.1268 -0.0987023 76.373 -0.115243 75.8947 0.300469L54.3993 19.1012C54.1667 19.3052 54.0319 19.5864 54.0259 19.883C54.02 20.1796 54.1452 20.4652 54.3694 20.677L56.279 22.4655L52.0722 26.5344L43.9581 25.735C43.5991 25.6953 43.2472 25.8144 42.992 26.0481L39.6941 29.0706L33.5634 23.4723L35.6292 21.5382C35.8535 21.3275 35.9787 21.0408 35.9727 20.7442C35.9668 20.4476 35.8332 20.1664 35.5994 19.9624L14.1052 1.16277C13.6281 0.745954 12.8719 0.762494 12.4187 1.20688C11.9654 1.64905 11.9869 2.34705 12.4652 2.76607L26.97 15.4502L5.72864 34.7196L1.98942 31.6178C1.5004 31.212 0.745402 31.2484 0.305284 31.7016C-0.134835 32.1548 -0.0942817 32.8517 0.395931 33.2586L11.5945 42.5509C11.8211 42.7395 12.1074 42.8332 12.3912 42.8332C12.7002 42.8332 13.0079 42.7229 13.2405 42.5057L15.2693 40.6058L26.4225 50.7758L24.3734 52.7022C23.9142 53.1345 23.9166 53.8269 24.3806 54.2548L28.5623 58.1208C28.5623 58.1208 28.5647 58.1219 28.5647 58.123C28.5647 58.1241 28.5659 58.1252 28.5671 58.1252L32.75 61.9482L36.9269 65.8109L41.1087 69.6769C41.3412 69.8919 41.6466 70 41.9519 70C42.2573 70 42.5626 69.8919 42.7952 69.6769L44.9588 67.6766L47.1582 69.6824C47.3896 69.8941 47.6925 70 47.9955 70C48.3008 70 48.6062 69.8919 48.8387 69.6769L52.1772 66.5905L52.6698 67.0459C52.9024 67.2609 53.2077 67.369 53.5131 67.369C53.8184 67.369 54.1237 67.2609 54.3563 67.0459L57.6948 63.9595L58.1874 64.4149C58.42 64.6299 58.7253 64.738 59.0306 64.738C59.336 64.738 59.6413 64.6299 59.8739 64.4149L63.2124 61.3285L63.7038 61.7828C63.9363 61.9978 64.2417 62.1059 64.547 62.1059C64.8524 62.1059 65.1577 61.9978 65.3903 61.7828L69.572 57.9168C70.0384 57.4856 70.0384 56.7887 69.572 56.3576L63.3626 50.617L74.5851 39.6089L76.7606 41.6467C76.9932 41.865 77.3009 41.9742 77.6098 41.9742C77.8937 41.9742 78.18 41.8805 78.4066 41.6919L89.6051 32.3996C90.0942 31.9894 90.1347 31.2925 89.6946 30.8393ZM29.371 31.4535C29.371 34.1143 27.0296 36.2777 24.1528 36.2777C23.0077 36.2777 21.908 35.9293 21.0111 35.303L28.3166 28.5479C28.9941 29.3782 29.371 30.3949 29.371 31.4535ZM30.0079 26.9843L31.9986 25.1439L33.0744 26.1264L30.8822 28.2017C30.6388 27.7705 30.3466 27.3625 30.0079 26.9843ZM12.3411 40.2066L7.507 36.195L28.7042 16.9664L33.0768 20.7905L12.3411 40.2066ZM19.3198 36.8666C19.742 37.1897 20.1977 37.4664 20.6819 37.6969C20.3038 38.0564 19.9138 38.4302 19.5214 38.8051C19.0467 39.2583 18.5839 39.6983 18.1366 40.1228L16.9594 39.0499L19.3198 36.8666ZM28.121 52.3229L30.6281 54.6087L29.396 55.7721L26.9032 53.4675L28.121 52.3229ZM33.5825 59.6083L31.0909 57.3313L32.3349 56.1657L34.8373 58.4472L33.5825 59.6083ZM36.5357 59.9965L39.0476 62.2867L37.7678 63.4699L35.2726 61.1631L36.5357 59.9965ZM41.9507 67.3359L39.4555 65.0291L40.7472 63.8349L43.2591 66.1263L41.9507 67.3359ZM64.5458 59.4407L64.0544 58.9864L59.2394 54.5349C59.2394 54.5349 59.2382 54.5349 59.2382 54.5338L57.7747 53.1808C57.3083 52.7496 56.5545 52.7496 56.0882 53.1808C55.6218 53.6119 55.6218 54.3088 56.0882 54.74L61.5258 59.766L59.0306 62.0728L52.2583 55.8118C51.792 55.3806 51.0381 55.3806 50.5718 55.8118C50.1054 56.2429 50.1054 56.9398 50.5718 57.371L52.0377 58.7262L56.0083 62.3981L53.5131 64.7049L49.5973 61.0859L48.2054 59.7991C48.2054 59.7991 48.2042 59.7991 48.2042 59.798L46.7407 58.445C46.2744 58.0138 45.5206 58.0138 45.0542 58.445C44.5878 58.8761 44.5878 59.573 45.0542 60.0042L47.7915 62.5348L50.4907 65.0302L47.9895 67.3425L19.8351 41.671C20.2871 41.242 20.7559 40.7954 21.2342 40.3378C21.9367 39.6674 22.6285 39.0069 23.2439 38.4291C23.5445 38.4621 23.8462 38.4831 24.1528 38.4831C28.3464 38.4831 31.7564 35.3294 31.7564 31.4535C31.7564 31.1635 31.7326 30.8768 31.6944 30.5923L34.7729 27.6768L38.0016 30.6243L26.7422 40.9465C26.5001 41.1681 26.3724 41.4747 26.3915 41.79C26.4106 42.1054 26.5728 42.3965 26.84 42.5928C27.1179 42.799 33.6493 47.3718 44.9898 36.7464L67.041 57.1339L64.5458 59.4407ZM61.6737 49.0545L45.8164 34.3932C45.5886 34.1826 45.3059 34.0657 44.954 34.0702C44.6308 34.0746 44.3255 34.2003 44.1036 34.4175C36.7874 41.6147 31.8864 41.833 29.6763 41.3611L44.2682 27.9833L49.9897 28.5468L49.131 29.3782C48.6753 29.8182 48.6932 30.5162 49.1679 30.9374C49.6438 31.3576 50.3976 31.3432 50.8545 30.9021L57.7103 24.2717L72.7566 38.1821L61.6737 49.0545ZM63.7598 17.3976C63.7598 19.2975 65.432 20.8435 67.4871 20.8435C69.5422 20.8435 71.2144 19.2975 71.2144 17.3976C71.2144 15.4977 69.5422 13.9517 67.4871 13.9517C65.432 13.9517 63.7598 15.4977 63.7598 17.3976ZM68.8289 17.3976C68.8289 18.0812 68.2266 18.6381 67.4871 18.6381C66.7476 18.6381 66.1453 18.0812 66.1453 17.3976C66.1453 16.7139 66.7476 16.1571 67.4871 16.1571C68.2266 16.1571 68.8289 16.7139 68.8289 17.3976Z" fill="#68BFB7"/>
</svg>
