<svg width="166" height="39" viewBox="0 0 166 39" fill="none" xmlns="http://www.w3.org/2000/svg">
<path fill-rule="evenodd" clip-rule="evenodd" d="M128.848 10.9489C128.607 12.37 129.532 13.4455 130.901 13.4071C131.625 13.4071 132.269 13.0998 132.913 12.8694C133.155 13.5991 133.477 14.0601 134.08 14.4058C134.644 14.7514 135.207 14.9051 135.932 14.9435C137.904 15.0587 139.393 14.0601 140.601 13.3687C140.722 13.2919 140.802 13.215 140.842 13.0998C140.883 12.9846 141.285 12.7925 141.366 12.7157C141.446 12.6773 141.446 12.5621 141.486 12.4853C141.527 12.4084 142.01 12.0627 142.412 11.9091C142.493 11.8707 142.573 11.4098 142.332 11.2945C142.09 11.1793 141.728 11.4866 141.446 11.6402C141.124 11.8323 140.802 11.9475 140.561 12.0627C139.997 12.3316 139.434 12.6773 138.749 12.8694C137.059 13.3303 135.57 12.7157 135.127 11.525C135.61 11.1025 136.053 10.68 136.495 10.2575C137.542 9.29722 139.393 6.72375 139.031 6.22442C138.79 5.95555 138.307 6.1476 138.105 6.22442C138.025 6.26283 137.864 6.22442 137.783 6.26283C137.341 6.41647 136.858 6.80057 136.415 7.03103C135.932 7.2999 135.489 7.53036 135.087 7.87605C134 8.79789 133.195 10.1422 132.833 11.4866C131.786 11.7171 131.102 10.7184 131.263 9.71973C132.672 8.64425 133.839 7.37672 135.087 6.07078C135.851 5.26417 136.415 4.38074 136.978 3.49731C137.099 3.30526 137.099 3.19003 137.18 2.95957C137.26 2.72911 137.461 2.46024 137.542 2.11455C137.743 1.57681 137.985 0.654971 137.582 0.270871C137.341 0.0788208 136.053 0.539741 135.489 0.885431C134.926 1.23112 134.402 1.46158 133.919 1.73045C133.638 1.9225 133.356 2.26819 133.074 2.53706C132.792 2.80593 132.591 3.19003 132.35 3.49731C131.384 4.84166 130.699 6.1476 129.935 7.64559C129.693 8.14492 129.411 8.8363 129.21 9.41245C129.13 9.64291 129.13 9.68132 129.009 9.79655C128.848 10.027 128.124 10.4495 127.842 10.5648C127.761 10.6032 126.715 10.9489 126.956 11.5634C127.198 11.7939 128.244 11.1409 128.848 10.9489ZM136.978 7.53036C137.019 7.53036 137.059 7.53036 137.059 7.56877C137.18 7.83764 136.938 8.18333 136.777 8.41379C136.334 9.02835 135.771 9.87337 135.207 10.1422C135.409 9.02835 136.173 8.18333 136.978 7.53036ZM135.207 1.99932C135.248 1.9225 135.328 1.88409 135.529 1.9225C135.69 1.96091 135.207 3.26685 134.926 3.843C134.201 5.22576 133.034 6.33965 132.068 7.41513C132.833 5.60986 133.96 3.53572 135.207 1.99932Z" fill="#E1635A"/>
<path fill-rule="evenodd" clip-rule="evenodd" d="M164.308 20.7434C163.744 20.6666 162.859 20.3977 162.335 20.3593C162.094 20.3209 160.766 20.1288 160.001 20.2825C159.8 20.3209 159.598 20.3209 159.397 20.2825C160.444 20.0136 161.611 19.8984 162.818 20.2057C162.778 20.2057 163.261 20.2441 163.704 20.2825C163.664 20.2825 163.744 20.2825 163.744 20.2825C164.267 20.3977 164.589 20.3209 165.072 20.2441C164.71 19.9752 163.905 20.1288 163.744 19.6679C163.945 19.4759 164.428 19.6679 164.71 19.6679C164.589 19.5143 164.348 19.5143 164.227 19.399C164.348 19.3606 164.469 19.4759 164.549 19.399C164.388 19.3222 164.509 19.2838 164.63 19.2454C164.308 19.1686 163.825 19.1686 163.865 18.8229C164.187 18.8613 164.791 18.9381 164.831 18.9381C164.871 18.8997 164.63 18.8229 164.63 18.7461C164.187 18.6693 163.583 18.4388 163.14 18.2467C163.181 18.1315 163.06 18.0547 162.899 18.0163C163.583 18.0931 164.187 18.2467 164.831 18.2852C164.71 18.2467 164.871 18.2083 164.871 18.2083C164.831 18.2083 164.75 18.1699 164.71 18.1699C164.75 18.1699 164.75 18.1699 164.791 18.1699C164.791 18.1699 164.71 18.1699 164.63 18.1315C164.589 18.1315 164.549 18.0931 164.509 18.0931C164.227 18.0163 163.744 17.8626 163.462 17.6706C163.986 17.709 164.469 17.7474 164.952 17.7858C163.905 17.3633 161.772 17.4017 160.645 17.8242C159.92 18.1315 158.632 18.4772 157.827 18.8997C157.988 18.4772 158.27 17.9011 158.19 17.4401C158.109 17.5554 158.109 17.7858 157.988 17.8242C157.948 17.7858 158.069 17.5938 157.908 17.709C157.988 17.3633 158.27 17.0176 158.23 16.7103C158.069 16.6335 158.069 16.4799 157.827 16.4415C157.787 16.4415 157.787 16.4799 157.707 16.5183C157.747 16.4415 157.868 16.4031 157.787 16.3262C157.505 16.2878 157.344 16.1726 157.023 16.2494C157.063 16.4031 157.143 16.5183 157.023 16.6335C156.54 16.6335 156.459 16.211 156.258 16.019C156.016 15.9806 156.016 16.1726 155.855 16.211C155.815 16.2494 155.855 16.5567 155.775 16.7488C155.614 17.1713 155.453 17.709 155.211 18.1315C155.05 18.4004 154.849 18.8229 154.688 19.0534C154.326 19.5911 154.205 20.2057 153.843 20.6666C153.883 20.8586 153.682 20.897 153.601 21.0507C153.561 21.1275 153.561 21.2811 153.481 21.3964C153.32 21.7036 153.038 22.0109 152.837 22.3566C152.193 23.2785 151.508 24.2387 150.905 25.0837C150.502 25.6599 150.1 26.1976 149.697 26.7354C149.536 26.9658 149.335 27.1195 149.254 27.3499C149.214 27.4651 149.295 27.6188 149.254 27.6956C149.214 27.8877 149.013 28.0413 149.053 28.2718C149.134 28.3102 149.295 28.3102 149.375 28.387C149.254 28.7327 148.932 28.8863 149.013 29.2704C149.214 29.3472 149.375 29.1936 149.496 29.3088C149.657 29.1552 149.818 28.9247 149.979 28.7327C150.14 28.579 150.341 28.2718 150.583 28.387C150.462 28.7327 150.059 28.8863 150.22 29.2704C150.422 29.3856 150.542 29.1936 150.703 29.3088C151.227 28.7711 151.629 28.1565 152.233 27.734C152.837 27.0042 153.4 26.236 153.883 25.4294C154.245 25.0453 154.567 24.6612 154.889 24.2771C155.211 23.893 155.453 23.4321 155.775 23.0096C155.936 22.8175 156.258 22.7023 156.499 22.5487C157.224 22.0109 157.787 21.55 158.673 21.2043C159.598 20.8586 160.564 20.5898 161.53 20.5898C162.094 20.6666 162.738 20.6282 163.181 20.8586C163.181 20.8586 163.221 20.897 163.261 20.897C164.066 20.9739 164.589 21.0891 165.274 20.9354C165.153 20.7818 164.831 20.8202 164.589 20.7818C164.308 20.7818 164.388 20.7434 164.308 20.7434ZM151.307 25.9287C151.227 25.2758 151.71 24.8533 151.991 24.4308C152.032 24.4308 152.555 23.7394 152.837 23.6241C152.313 24.3539 151.75 25.1221 151.307 25.9287ZM154.648 21.1659C154.326 21.7036 153.964 22.203 153.481 22.6639C153.44 22.3182 153.923 21.9341 154.084 21.55C154.769 21.0123 155.05 20.0904 155.533 19.3606C155.574 19.3222 155.493 19.0918 155.493 19.0534C155.694 18.7845 155.855 18.4004 156.057 18.1315C156.097 18.1315 156.097 18.1315 156.137 18.1699C156.137 18.362 156.097 18.5924 156.057 18.6308C156.016 18.6693 156.057 19.1686 155.936 19.399C155.654 20.052 155.05 20.705 154.648 21.1659Z" fill="#E1635A"/>
<path fill-rule="evenodd" clip-rule="evenodd" d="M150.1 19.4759C150.542 18.4388 151.227 17.6706 151.71 16.7103C151.83 16.7103 151.871 16.6335 151.951 16.5951C151.629 16.1726 151.307 16.3262 150.784 16.4415C150.623 16.6719 150.422 16.864 150.261 17.0944C150.381 16.864 150.502 16.6335 150.623 16.4031C150.381 16.3647 150.381 16.5567 150.22 16.5183C150.059 16.7872 149.778 16.9792 149.657 17.3249C149.134 17.6322 148.852 18.5924 148.369 18.9765C148.61 18.5924 148.892 18.1699 149.134 17.7474C149.456 17.2481 149.898 16.7103 149.979 16.1342C149.818 16.0958 149.778 15.9037 149.617 15.8269C148.973 15.8653 148.892 16.4415 148.49 16.7488C148.047 17.056 147.846 17.5938 147.483 17.9011C147.443 17.9779 147.443 17.9395 147.483 18.0547C147.041 18.6308 146.719 19.2838 146.115 19.7063C145.914 20.2057 145.431 20.4361 145.149 20.8586C144.706 21.1659 144.505 21.6652 144.183 22.0877C144.022 22.3182 143.941 22.4718 143.821 22.7023C143.7 22.8944 143.458 23.0096 143.458 23.2785C142.975 23.7394 142.533 24.2771 142.01 24.7764C141.728 25.0069 141.486 25.2758 141.205 25.4678C140.722 25.7751 140.198 26.1976 139.715 26.4665C138.91 26.8506 137.824 26.7354 137.582 25.9288C137.502 25.6215 137.582 25.2758 137.622 24.9685C137.783 23.6241 138.629 22.5871 139.434 21.8573C139.796 21.3195 140.279 20.897 140.681 20.3593C141.124 19.7447 141.567 19.0149 142.01 18.4772C141.969 18.4772 141.969 18.4388 141.969 18.4004C142.332 17.9779 142.654 17.5554 142.975 17.0944C142.895 16.9408 143.016 16.8256 143.056 16.7103C142.774 16.6719 142.694 16.9792 142.533 17.1713C142.291 17.4401 142.01 17.6706 141.768 17.8242C141.929 17.5938 142.13 17.4017 142.251 17.2097C142.171 17.2097 142.211 17.056 142.13 17.056C141.647 17.4017 141.164 17.9395 140.762 18.2852C141.164 17.709 141.607 17.1713 142.211 16.7488C142.13 16.7103 142.171 16.7103 142.171 16.6335C142.211 16.5567 142.291 16.5567 142.291 16.4415C142.05 16.4415 142.01 16.6719 141.808 16.7488C141.849 16.6335 141.768 16.6335 141.728 16.5567C141.486 16.5183 141.366 16.7872 141.164 16.6335C141.124 16.6719 141.084 16.7488 141.003 16.7872C140.963 16.7488 140.963 16.6719 140.883 16.7103C140.762 16.864 140.078 16.9792 139.997 17.056C139.796 17.1713 139.796 17.4401 139.756 17.517C139.756 17.517 139.715 17.6322 139.715 17.7474C139.595 17.7858 139.635 17.8626 139.514 17.8242C139.152 18.362 138.427 18.7461 138.186 19.3606C138.186 19.399 138.186 19.399 138.105 19.4759C138.065 19.5143 137.542 20.3593 137.381 20.705C137.381 20.7434 137.26 20.9354 137.18 21.0507C137.18 21.0123 137.18 20.9739 137.139 20.9739C136.898 21.358 136.616 21.7421 136.375 22.0877C136.334 22.1262 136.254 22.203 136.254 22.203C136.254 22.2414 135.65 22.9712 135.449 23.3553C135.409 23.4321 135.087 23.9314 134.845 24.3155C134.845 24.3539 134.765 24.546 134.563 24.8533C134.443 24.9685 134 25.4294 133.879 25.6983C133.839 25.7367 133.597 26.0824 133.557 26.1976C133.557 26.236 133.195 26.8506 133.114 26.9274C132.873 27.081 132.752 27.2731 132.591 27.4267C132.551 28.0029 131.706 28.3102 132.269 28.8479C132.913 28.387 133.396 27.734 134.04 27.2731C134.08 27.2347 134.201 27.1195 134.241 27.081C134.563 27.6188 134.926 28.1181 135.449 28.4638C135.811 28.387 136.012 28.7327 136.254 28.9247C136.375 29.0015 136.576 29.04 136.737 29.1168C137.18 29.3472 137.502 29.5777 138.025 29.6929C138.709 29.8082 139.192 29.8466 139.756 29.6161C141.164 29.1168 142.654 28.2333 143.539 27.4267C143.7 27.734 143.982 27.9645 144.304 28.1181C144.384 28.1565 144.465 28.1949 144.545 28.2333C144.948 28.4638 145.632 28.6559 146.276 28.579C146.276 28.4638 146.356 28.3486 146.397 28.3486C146.477 28.3102 145.994 28.0413 146.115 28.0797C146.115 28.0797 146.276 28.1565 146.316 28.1181C146.316 28.0797 146.155 27.9261 146.195 27.9261C146.356 27.9645 146.638 28.1565 146.678 28.1565C146.839 28.1949 146.96 28.1949 147.041 28.1565C147.443 28.2718 147.725 28.0029 148.007 27.8108C147.685 27.6956 147.483 27.734 147.121 27.5804C146.96 27.5036 146.477 27.2731 146.477 27.1963C145.753 27.0042 145.27 26.3897 145.431 25.4294C146.236 24.4308 147.161 23.5473 147.926 22.5487C148.329 22.2414 148.57 21.7805 148.812 21.3195C149.456 20.897 149.536 19.9752 150.1 19.4759ZM135.207 26.044C135.046 25.6215 135.449 25.0069 135.811 24.738C135.61 25.0837 135.489 25.7367 135.69 26.1208C135.851 26.4665 136.254 26.8506 136.576 27.0426C136.093 26.9274 135.368 26.5049 135.207 26.044ZM137.824 21.8189C137.904 21.6652 137.985 21.55 138.065 21.3964C138.226 21.1275 138.307 20.7818 138.468 20.5129C138.709 20.1288 138.991 19.6295 139.273 19.399C139.514 19.207 139.836 19.1686 140.037 18.9381C140.078 18.9381 140.078 18.9381 140.118 18.9765C139.997 19.2454 139.756 19.399 139.635 19.7063C139.514 19.7063 139.514 19.86 139.313 19.8216C138.548 20.6666 138.105 21.6652 137.461 22.5871C137.421 22.2798 137.703 22.0878 137.824 21.8189ZM143.499 25.0453C144.787 23.9314 145.954 22.7023 147 21.3964C147.081 21.358 147.081 21.4348 147.121 21.5116C146.356 22.3566 145.833 23.3937 144.867 24.0467C144.465 24.4308 144.263 24.9685 143.499 25.0453ZM145.149 24.2771C145.068 24.3155 144.907 24.1619 144.948 24.1235C145.954 23.2401 146.839 22.2414 147.644 21.1659C147.725 21.1275 147.725 21.2043 147.725 21.2427C147.161 21.9341 145.551 24.1619 145.149 24.2771Z" fill="#E1635A"/>
<path fill-rule="evenodd" clip-rule="evenodd" d="M134.08 21.0891C134.121 20.3977 134 19.9368 133.839 19.3606C133.436 17.8242 132.47 16.9408 131.102 16.2878C130.699 16.019 130.377 15.9037 130.257 15.8653C130.015 15.7501 129.613 15.6349 129.291 15.5965C128.969 15.5581 128.687 15.7501 128.325 15.7117C127.922 15.6733 127.6 15.3276 127.037 15.5196C125.507 16.019 124.3 16.864 123.253 17.8242C123.213 17.8627 123.253 17.9779 123.173 18.0163C122.891 18.3236 122.408 18.5156 122.126 18.8613C122.046 18.9765 122.046 19.0918 121.965 19.207C121.885 19.3222 121.724 19.3991 121.643 19.5527C121.442 19.86 121.281 20.2057 121.04 20.5129C120.597 21.0123 120.275 21.5884 119.953 22.1646C119.752 22.5103 119.591 22.8944 119.47 23.2785C119.269 23.4705 118.987 23.7778 118.866 24.0851C118.745 24.3924 118.786 25.1221 118.786 25.3526C118.786 25.5062 118.705 25.6599 118.705 25.7751C118.705 25.8519 118.745 25.9672 118.786 26.0824C118.786 26.3129 118.705 26.5049 118.745 26.6585C118.866 27.1963 119.148 27.6188 119.309 28.0413C119.43 28.0413 119.309 27.7724 119.43 27.7724C119.591 28.1949 119.832 28.5406 120.194 28.7711C120.436 28.9247 120.758 29.0016 120.999 29.1552C121.12 29.232 121.16 29.3472 121.241 29.4241C121.362 29.5009 121.523 29.5009 121.684 29.6161C121.845 29.7313 121.925 29.885 122.086 29.9618C122.247 30.0386 122.972 30.2307 123.696 30.1539C124.34 30.1154 124.944 29.7698 125.548 29.8082C125.467 29.8082 125.266 30.1154 125.346 30.1154C126.473 29.7313 127.6 29.3472 128.566 28.8095C128.365 29.0016 127.963 29.0784 127.842 29.3472C129.21 28.8095 130.418 27.5804 131.464 26.3129C131.947 25.7367 132.43 25.0837 132.873 24.4692C133.436 23.5857 133.96 22.4334 134.08 21.0891ZM121.241 21.4732C121.281 21.6268 120.677 22.5103 120.637 22.6639C120.557 22.4719 120.999 21.5116 121.241 21.4732ZM123.736 29.3088C123.978 29.0016 124.501 29.2704 124.863 29.232C124.622 29.5009 124.099 29.4625 123.736 29.3088ZM124.541 28.9631C125.346 28.6943 126.031 28.3486 126.836 28.0797C126.675 28.387 126.272 28.5022 125.789 28.7327C125.346 28.9247 125.065 29.1936 124.541 28.9631ZM125.91 29.0016C126.675 28.579 127.319 28.0797 128.164 27.734C128.164 27.6956 128.204 27.6956 128.244 27.6956C127.681 28.3486 126.715 28.6175 125.91 29.0016ZM128.888 25.0837C128.164 26.3129 126.916 27.0426 125.387 27.5036C123.978 27.8493 122.408 27.3115 121.563 26.6585L121.523 26.6201C121.16 26.1592 120.597 26.044 120.677 25.1606C120.718 24.6612 120.999 24.1619 121.201 23.6626C121.321 23.4321 121.362 23.2016 121.482 23.0096C121.684 22.6255 121.925 22.1646 122.247 21.8573C122.811 20.5514 123.535 19.3606 124.541 18.4388C124.622 18.4004 124.622 18.362 124.743 18.2852C124.944 18.1315 125.065 18.0163 125.306 17.8627C125.91 17.4401 126.675 17.2097 127.439 17.0176C127.922 16.9792 128.526 17.1329 129.049 17.1713C129.572 17.1713 130.015 17.4786 130.216 17.6322C130.579 18.1315 131.102 18.5156 131.182 19.2838C131.182 19.4375 131.303 19.5911 131.343 19.7447C131.384 20.0136 131.303 20.3593 131.263 20.5898C131.263 20.6666 131.223 20.8586 131.182 20.9739C131.021 21.358 130.74 22.0109 130.579 22.2798C130.458 22.4334 130.297 22.7407 130.216 22.9328C130.136 23.1632 130.055 23.3937 129.975 23.5473C129.894 23.701 129.693 23.9314 129.653 23.9698C129.452 24.1619 129.291 24.5076 129.21 24.6228C129.21 24.6612 129.13 24.8149 129.09 24.8533C129.009 24.8917 128.969 25.0069 128.888 25.0837ZM130.659 24.7765C130.136 25.5447 129.613 26.3129 129.09 27.0426C129.291 26.2744 129.774 25.2374 130.659 24.7765ZM132.148 23.2016C131.665 24.1619 130.659 25.6599 129.854 26.5433C130.579 25.4294 131.424 23.9314 131.464 23.5857C131.545 23.4321 131.746 23.0864 131.786 22.9712C131.867 22.6255 132.108 22.4334 132.229 22.1262C132.229 22.4719 132.269 22.8944 132.148 23.2016Z" fill="#E1635A"/>
<path fill-rule="evenodd" clip-rule="evenodd" d="M121.402 15.8269C121.402 15.6733 121.442 15.5965 121.482 15.4812C121.442 15.4044 121.281 15.366 121.321 15.2124C121.08 15.2508 120.879 15.4812 120.718 15.5581C120.677 15.5965 120.637 15.5965 120.637 15.6349C120.597 15.6733 120.516 15.6733 120.476 15.7117C120.194 16.019 120.033 16.4031 119.792 16.7872C119.389 17.3633 119.067 17.9011 118.745 18.5156C118.584 18.7845 118.504 19.1302 118.222 19.3222C118.182 19.0534 118.343 18.9381 118.423 18.7461C118.705 18.1699 118.987 17.517 119.349 16.9408C119.792 16.211 120.355 15.4812 120.718 14.8667C120.758 14.7514 120.637 14.6746 120.637 14.521C120.879 14.1753 120.476 13.868 120.355 13.6376C120.235 13.676 120.154 13.868 120.033 13.8296C120.154 13.7912 120.235 13.6376 120.154 13.4839C120.114 13.5991 120.033 13.4839 120.074 13.4839C119.913 13.4455 119.832 13.7144 119.671 13.8296C119.591 13.868 119.55 13.7912 119.47 13.7912C119.027 14.0985 118.826 14.521 118.504 14.9819C118.303 15.2892 118.101 15.5581 117.9 15.8269C117.699 16.0958 117.578 16.4799 117.417 16.7872C117.216 17.0945 117.015 17.4017 116.894 17.709C116.652 18.362 116.612 19.0534 116.25 19.6679C116.25 19.7063 116.129 20.0904 115.968 20.2441C116.089 19.7832 116.33 19.1302 116.532 18.4772C116.33 18.5924 116.33 18.7845 116.25 18.9381C115.968 19.6295 115.606 20.3209 115.324 21.0123C115.083 21.5884 114.761 22.2798 114.439 22.7791C114.117 23.6242 113.513 24.1619 113.272 25.0453C113.352 25.0837 113.473 24.7765 113.634 24.6612C113.674 24.738 113.594 24.9301 113.553 25.0069C113.433 25.199 113.191 25.6215 113.03 25.9672C112.95 26.1208 112.829 26.236 112.789 26.3897C112.668 26.6585 112.668 26.9274 112.587 27.1579C112.507 27.3883 112.346 27.5804 112.185 27.7724C111.863 28.1949 111.702 28.6559 111.38 29.04C111.179 29.2704 111.058 29.5393 111.018 29.6161C110.937 29.8466 110.736 30.1154 110.696 30.1923C110.655 30.2307 110.253 30.9605 109.81 31.1141C109.77 31.1525 109.73 31.1909 109.649 31.2293C109.126 31.9975 108.804 32.6889 107.999 33.1114C107.838 33.1882 107.798 33.2651 107.717 33.3035C107.355 33.7644 106.952 34.0717 106.268 34.2253C106.63 34.0717 107.073 33.6876 107.234 33.4955C107.154 33.4955 106.912 33.6108 106.751 33.6876C106.349 33.918 106.469 33.8796 106.188 33.9949C105.664 34.4558 105.061 34.8015 104.336 34.9935C104.296 34.9935 104.256 34.9935 104.215 35.0319C103.974 35.1087 103.934 34.9935 103.732 34.9167C103.652 34.8783 103.571 34.7631 103.531 34.6862C103.209 34.1101 102.927 33.6876 103.169 32.881C103.37 32.1512 104.135 31.2677 104.698 30.9605C104.819 30.6532 105.141 30.2691 104.9 29.8466C104.9 29.8082 104.859 29.7313 104.859 29.6929C104.819 29.1168 104.739 28.8479 104.497 28.4638C104.578 28.3486 104.698 28.3102 104.698 28.1181C104.618 28.0413 104.578 27.8877 104.537 27.7724C104.537 27.6956 104.497 27.6188 104.336 27.5804C104.256 27.542 104.296 27.3883 104.256 27.3883C103.934 27.3499 104.054 27.6572 103.853 27.734C103.773 27.6956 103.813 27.6572 103.773 27.6572C103.571 27.7724 103.249 27.7724 103.169 27.8493C102.686 28.5406 102.324 29.3472 101.639 29.885C101.639 30.0386 101.599 30.0386 101.519 30.1539C101.438 30.1923 101.438 30.2691 101.358 30.2691C101.036 30.73 100.714 31.3062 100.513 31.8439C100.432 32.0744 100.472 32.2664 100.392 32.5353C100.352 32.6505 100.231 32.7657 100.191 32.881C100.07 33.3035 99.949 33.918 99.9893 34.379C100.03 34.9167 100.11 35.5313 100.352 36.0306C100.392 36.1074 100.432 36.1458 100.432 36.1842C100.593 36.3763 101.076 36.914 101.438 37.0292C101.478 37.0677 101.478 37.1445 101.519 37.1829C102.203 37.6822 103.169 37.9895 104.175 38.0663C104.215 38.0663 104.215 38.1815 104.296 38.1431C106.188 37.8743 107.435 37.0677 108.683 36.1074C110.092 35.0703 111.259 33.9564 112.265 32.6121C112.668 32.0744 113.07 31.575 113.392 30.9989C113.714 30.6916 113.916 30.3075 114.077 29.885C115.485 28.0797 116.169 25.6983 117.176 23.5473C117.176 23.5089 117.256 23.3937 117.256 23.3937C117.578 22.2414 118.222 21.3196 118.745 20.3593C119.671 18.8613 120.436 17.2097 121.402 15.8269ZM109.126 34.5326C109.126 34.6094 107.315 35.9538 107.194 35.9922C106.671 36.3379 106.268 36.4531 106.147 36.4531C106.027 36.4531 104.819 36.2995 104.98 36.1842C105.02 36.1842 105.986 36.261 106.51 36.0306C107.516 35.6465 108.603 34.8015 109.045 34.4174C109.126 34.4558 109.126 34.4942 109.126 34.5326ZM109.488 34.3021C109.367 34.0717 109.931 33.6876 110.052 33.6876C109.931 33.8412 109.689 34.0333 109.488 34.3021Z" fill="#E1635A"/>
<path fill-rule="evenodd" clip-rule="evenodd" d="M122.328 12.2164C122.287 12.2932 122.73 12.37 122.811 12.4468C122.891 12.5237 122.851 12.6389 122.931 12.7157C123.455 13.0998 124.139 12.4468 124.541 12.2932C124.904 11.9859 125.266 11.6018 125.588 11.2177C125.628 11.1793 125.709 10.9873 125.709 10.9488C125.749 10.5647 125.346 10.1806 125.346 9.83496C125.346 9.71973 125.467 9.6045 125.507 9.48927C125.709 8.87471 125.749 8.33696 125.387 7.91445C124.421 7.64558 123.374 8.75948 122.77 9.2204C122.65 9.29722 122.489 9.37404 122.408 9.41245C122.207 9.6045 122.207 9.64291 121.965 9.79655C121.804 9.95019 121.321 10.2191 121.362 10.4879C121.482 11.1409 121.563 11.2561 121.845 11.7555C122.006 11.9859 122.167 12.0627 122.328 12.2164Z" fill="#E1635A"/>
<path fill-rule="evenodd" clip-rule="evenodd" d="M0.0503159 28.1565L3.23001 6.72375H61.9135L58.774 28.1565H28.1443L24.7231 8.26015L12.3263 28.1565H0.0503159ZM9.79064 12.8309H16.955L17.599 9.18199H5.68521L3.31051 26.1208H7.89892L8.90516 19.207H14.8218L15.3048 15.7885H9.38815L9.79064 12.8309ZM35.4697 14.1753C35.6709 14.4058 36.1539 14.6362 36.9589 14.8283C38.9311 15.4044 40.3398 15.9422 41.1448 16.4415C41.9498 16.9792 42.5133 17.5938 42.8353 18.3236C43.1573 19.0534 43.2378 19.86 43.117 20.7434C42.9963 21.7805 42.5938 22.7407 41.9498 23.5857C41.3058 24.4308 40.4606 25.0837 39.4544 25.5062C38.4481 25.9288 37.2004 26.0824 35.7514 26.044C33.1755 25.9288 31.485 25.3142 30.6398 24.2387C30.1165 23.5857 29.7945 22.8175 29.5933 21.9341L33.9402 19.9752C33.9402 20.7434 34.061 21.358 34.3025 21.7805C34.7049 22.4719 35.3489 22.8175 36.2344 22.856C36.9187 22.8944 37.4419 22.7407 37.8444 22.4334C38.2469 22.1262 38.4884 21.7421 38.5286 21.2811C38.5689 20.8586 38.4481 20.4745 38.1664 20.1288C37.8846 19.7832 37.1199 19.4375 35.9124 19.0918C33.9402 18.5156 32.5717 17.7858 31.807 16.9408C31.0423 16.0958 30.7203 15.0203 30.8813 13.7528C31.002 12.9078 31.324 12.1396 31.8472 11.4098C32.4107 10.68 33.1352 10.1422 34.1012 9.75815C35.0672 9.37404 36.3149 9.22041 37.8846 9.25882C39.8166 9.33563 41.2253 9.79656 42.1511 10.6032C42.7548 11.1409 43.1573 11.9091 43.3183 12.8309L39.0519 14.4826C39.0116 13.7528 38.8506 13.1766 38.5286 12.8309C38.2066 12.4853 37.6834 12.2932 37.0394 12.2548C36.5162 12.2164 36.0734 12.3316 35.7514 12.5621C35.4294 12.7925 35.2684 13.0998 35.2282 13.4455C35.1879 13.7144 35.2684 13.9832 35.4697 14.1753ZM53.7429 12.8309H58.2508L58.774 9.2204H44.6868L44.1233 12.8309H49.0337L47.142 26.0824H51.8511L53.7429 12.8309Z" fill="#E1635A"/>
<path d="M11.9239 35.3008L22.8314 17.7858L25.9708 35.3008H11.9239Z" fill="#E1635A"/>
<path d="M33.8195 31.383C32.934 31.383 32.29 31.8055 32.1692 32.4585C32.0485 33.1882 32.5717 33.4187 33.0547 33.5723L33.4975 33.6876C33.9402 33.8028 34.0207 33.918 33.9805 34.0717C33.9402 34.379 33.4975 34.4558 33.256 34.4558C33.0145 34.4558 32.8132 34.379 32.6925 34.2637C32.5717 34.1101 32.5717 33.918 32.5717 33.918V33.8412H31.646V33.918C31.646 33.9564 31.5655 34.4174 31.8875 34.8015C32.129 35.0703 32.5315 35.224 33.0547 35.224C33.7792 35.224 34.6647 34.9551 34.8257 34.1485C34.9464 33.3803 34.3427 33.1114 33.8597 32.9962L33.417 32.881C33.0547 32.7657 33.0145 32.6505 33.0145 32.5353C33.0547 32.3048 33.256 32.1896 33.6182 32.1896C33.8195 32.1896 33.9805 32.228 34.061 32.3432C34.1817 32.4969 34.1415 32.6889 34.1415 32.6889V32.7657H35.0672V32.6889C35.0672 32.6505 35.1477 32.1896 34.8257 31.8055C34.7049 31.4982 34.3427 31.383 33.8195 31.383Z" fill="#E1635A"/>
<path d="M40.7826 32.8426H39.5751L39.8166 31.4598H38.9311L38.2469 35.1087H39.1726L39.4544 33.5724H40.6216L40.3801 35.1087H41.2656L41.9096 31.4598H41.0241L40.7826 32.8426Z" fill="#E1635A"/>
<path fill-rule="evenodd" clip-rule="evenodd" d="M45.21 32.7657C45.371 31.9207 46.0552 31.383 47.0615 31.383C47.5445 31.383 47.947 31.5366 48.1885 31.8055C48.3897 32.036 48.4702 32.3816 48.3897 32.8042L48.2287 33.8028C48.0677 34.6478 47.3835 35.1856 46.3772 35.1856C45.8942 35.1856 45.4918 35.0319 45.2503 34.7631C45.049 34.5326 44.9685 34.1869 45.049 33.7644L45.21 32.7657ZM46.0955 32.8042L45.9345 33.8028C45.8942 34.0333 45.9345 34.1869 46.015 34.3021C46.0955 34.4174 46.2565 34.4558 46.498 34.4558C46.981 34.4558 47.2627 34.2253 47.3432 33.7644L47.5042 32.7657C47.5445 32.5353 47.5042 32.3816 47.4237 32.2664C47.3432 32.1512 47.1822 32.1128 46.9407 32.1128C46.4577 32.1128 46.176 32.3432 46.0955 32.8042Z" fill="#E1635A"/>
<path fill-rule="evenodd" clip-rule="evenodd" d="M54.0246 31.4598C54.5076 31.4598 54.9101 31.575 55.1113 31.8055C55.2723 31.9975 55.3126 32.2664 55.2723 32.5737C55.1113 33.2651 54.5478 33.6492 53.6221 33.6492H52.7366L52.4951 35.1087H51.6096L52.2536 31.4598H54.0246ZM53.8636 32.1896H53.0184L52.8976 32.9194H53.7026C54.2661 32.9194 54.3466 32.7273 54.3868 32.5353C54.4271 32.42 54.3868 32.3432 54.3466 32.3048C54.2661 32.228 54.1051 32.1896 53.8636 32.1896Z" fill="#E1635A"/>
<path d="M83.7688 29.4241C83.5676 29.4241 83.3663 29.2704 83.3663 29.04V9.37404C83.3663 9.18199 83.5273 8.98994 83.7688 8.98994C84.0103 8.98994 84.1713 9.14358 84.1713 9.37404V29.0784C84.1713 29.2704 83.9701 29.4241 83.7688 29.4241Z" fill="#E1635A"/>
<path d="M94.0726 19.5527H73.4247C73.2235 19.5527 73.0223 19.399 73.0223 19.1686C73.0223 18.9765 73.1833 18.7845 73.4247 18.7845H94.0726C94.2739 18.7845 94.4751 18.9381 94.4751 19.1686C94.4349 19.3606 94.2739 19.5527 94.0726 19.5527Z" fill="#E1635A"/>
</svg>
