<svg width="63" height="70" viewBox="0 0 63 70" fill="none" xmlns="http://www.w3.org/2000/svg">
<path d="M55.3446 65.3951H56.0816C56.276 66.0951 56.8798 66.6073 57.5937 66.6073H60.6485C61.5187 66.6073 62.2271 65.8459 62.2271 64.9105V63.8017C62.2271 62.8658 61.5187 62.1048 60.6485 62.1048H57.5937C56.866 62.1048 56.2533 62.6378 56.0713 63.3589H55.6603V58.604C55.6603 57.6681 54.9519 56.9072 54.0816 56.9072H52.6277V55.7157H53.6021C54.0081 55.7157 54.3776 55.5486 54.6573 55.2771H57.2064C58.8867 55.2771 60.2533 53.8051 60.2533 51.9964V51.0414C60.2533 50.4788 59.829 50.0233 59.3061 50.0233C58.7826 50.0233 58.3589 50.4788 58.3589 51.0414V51.9964C58.3589 52.6825 57.8418 53.2404 57.2064 53.2404H55.1808V52.2605H56.5069C57.0298 52.2605 57.4541 51.8044 57.4541 51.2423V45.3378C57.4541 45.28 57.4496 45.2222 57.4403 45.165C57.4052 44.9481 57.3021 44.6824 57.1832 44.5032C57.1512 44.4555 57.1157 44.4109 57.0772 44.3696L51.9953 38.9868L52.6371 38.2954L57.7239 43.6839C58.086 44.0673 58.3589 44.7694 58.3589 45.3166V46.2902C58.3589 46.8528 58.7826 47.3083 59.3061 47.3083C59.829 47.3083 60.2533 46.8528 60.2533 46.2902V45.3166C60.2533 44.2328 59.7713 42.9935 59.0535 42.2337L53.7901 36.6574C53.8956 36.1452 53.7955 35.5868 53.4793 35.1583L47.8996 27.593C47.6307 27.2282 47.242 27.0097 46.8221 26.9784C46.0816 23.5275 45.7437 19.4497 45.9233 15.4229C45.9238 15.4165 45.9238 15.4107 45.9243 15.4043C45.9904 13.0123 46.2952 9.1716 47.3722 4.45648C47.4595 4.07097 47.6204 3.36519 47.1423 2.75909C46.4196 1.67205 45.2908 0.941344 43.9573 0.699013C43.6248 0.639093 43.2809 0.608337 42.9356 0.608337C41.3776 0.608337 39.7644 1.22769 38.3944 2.35185C38.0945 2.59736 37.8074 2.86674 37.5414 3.15308C36.5918 4.17597 35.9233 5.39558 35.609 6.65814C34.0481 6.79972 32.4605 7.57444 31.1838 8.83276C31.0876 8.92768 30.9943 9.02365 30.9075 9.11751C29.7743 10.3382 29.0235 11.8542 28.7758 13.383C27.357 13.6502 25.95 14.4599 24.8168 15.6806C24.727 15.7771 24.6382 15.8773 24.5528 15.9781C23.3925 17.3451 22.6697 19.0743 22.536 20.7457C21.3634 21.0851 20.2307 21.8057 19.2815 22.8291C19.0185 23.1128 18.7684 23.4214 18.5385 23.747C17.2539 25.5658 16.6949 27.7495 17.0052 29.7374C17.2297 31.1739 17.9075 32.3893 18.9174 33.1682C19.1098 33.3427 19.4132 33.5235 19.8439 33.5235C20.0896 33.5235 20.3052 33.4663 20.4966 33.4153C24.871 32.2551 28.4403 31.9264 30.6648 31.8548C30.6707 31.8548 30.6766 31.8542 30.6821 31.8542C31.3313 31.8208 31.9943 31.8033 32.6534 31.8033C35.7279 31.8033 38.761 32.1713 41.391 32.8257C41.4191 33.2738 41.6228 33.6948 41.9539 33.9833L48.9213 40.0506C49.2089 40.3014 49.5764 40.4392 49.9558 40.4392C50.162 40.4392 50.3648 40.3968 50.5542 40.3189L55.5597 45.621V50.2242H54.6573C54.3776 49.9527 54.0081 49.7857 53.6021 49.7857H51.2952V44.3537C51.2952 43.0439 50.3041 41.9781 49.0851 41.9781H41.2538C40.0348 41.9781 39.0437 43.0439 39.0437 44.3537V46.3517H22.5893C21.3708 46.3517 20.3792 47.4175 20.3792 48.7273V49.7857H15.3476C14.4769 49.7857 13.7689 50.5466 13.7689 51.4826V54.0188C13.7689 54.9542 14.4769 55.7157 15.3476 55.7157H16.3215V64.262C16.3215 65.1761 16.9978 65.9217 17.8409 65.9556V67.4669H14.7161C14.1927 67.4669 13.7689 67.9224 13.7689 68.485C13.7689 69.0476 14.1927 69.5031 14.7161 69.5031H61.2799C61.8029 69.5031 62.2271 69.0476 62.2271 68.485C62.2271 67.9224 61.8029 67.4669 61.2799 67.4669H51.1083V65.9556C51.9514 65.9217 52.6277 65.1761 52.6277 64.262V58.9434H53.7659V63.6983C53.7659 64.6342 54.4738 65.3951 55.3446 65.3951ZM57.9094 64.1411H60.3327V64.5711H57.9094V64.1411ZM32.2489 10.5556C32.3185 10.4798 32.3915 10.4055 32.4645 10.3334C33.427 9.38476 34.6446 8.78556 35.7906 8.68641L38.0496 13.8713C38.2109 14.2409 38.5518 14.4578 38.908 14.4578C39.0427 14.4578 39.1793 14.4265 39.3091 14.3613C39.7832 14.1227 39.9869 13.5166 39.7654 13.0075L37.3703 7.51081C37.5518 6.48103 38.0816 5.45391 38.8823 4.59116C39.0876 4.37004 39.3096 4.16165 39.5429 3.97128C40.5858 3.11543 41.7906 2.64456 42.9356 2.64456C43.1759 2.64456 43.4137 2.66524 43.6426 2.70713C44.4477 2.85295 45.1221 3.26603 45.5543 3.87477C45.5469 3.90818 45.539 3.94265 45.5321 3.97287C44.4176 8.85344 44.1004 12.8437 44.0308 15.3349C43.9085 18.0859 44.021 20.8708 44.3337 23.492L41.6579 17.3515C41.4364 16.8419 40.872 16.6224 40.3984 16.8615C39.9248 17.0996 39.7205 17.7057 39.9425 18.2153L44.5054 28.687L44.4127 28.7872L30.6164 13.9217C30.759 12.7413 31.3392 11.5355 32.2489 10.5556ZM32.6534 29.7671C31.9672 29.7671 31.276 29.7851 30.5997 29.8196C28.283 29.8949 24.573 30.2369 20.0422 31.4385C20.0156 31.4459 19.9855 31.4539 19.9564 31.4613C19.392 30.9952 19.0092 30.2682 18.8735 29.4002C18.649 27.9637 19.0772 26.3517 20.0476 24.9778C20.2262 24.7248 20.4196 24.4862 20.6229 24.2672C21.4226 23.405 22.3742 22.835 23.3288 22.6388L38.1483 30.1367C36.387 29.8954 34.5365 29.7671 32.6534 29.7671ZM42.9805 30.3308L24.4221 20.9414C24.5119 19.7053 25.0614 18.4003 25.9529 17.3499C26.0195 17.2714 26.0886 17.1929 26.1581 17.1182C27.0664 16.1398 28.1838 15.5146 29.2765 15.3609L43.0747 30.229L42.9805 30.3308ZM43.4719 32.6841L46.6845 29.2225L51.8636 36.2454L49.9405 38.3176L43.4719 32.6841ZM40.9381 44.3537C40.9381 44.1697 41.0826 44.0143 41.2538 44.0143H49.0851C49.2563 44.0143 49.4008 44.1697 49.4008 44.3537V49.7857H48.5705V48.7273C48.5705 47.4175 47.5789 46.3517 46.3604 46.3517H40.9381V44.3537ZM22.2736 48.7273C22.2736 48.5438 22.4181 48.3879 22.5893 48.3879H46.3604C46.5316 48.3879 46.6761 48.5438 46.6761 48.7273V49.7857H22.2736V48.7273ZM26.9628 67.4669H19.7354V65.9588H26.9628V67.4669ZM18.2159 63.9226V55.7157H23.8335V63.9226H18.2159ZM40.0925 67.4669H28.8572V65.9588H40.0925V67.4669ZM49.2138 67.4669H41.9869V65.9588H49.2138V67.4669ZM50.7333 63.9226H45.1157V55.7157H50.7333V63.9226ZM31.8715 53.6794C31.3481 53.6794 30.9243 54.1349 30.9243 54.6976C30.9243 55.2596 31.3481 55.7157 31.8715 55.7157H43.2213V63.9226H25.7279V55.7157H27.4512C27.9741 55.7157 28.3984 55.2596 28.3984 54.6976C28.3984 54.1349 27.9741 53.6794 27.4512 53.6794H15.6633V51.8219H53.2864V53.6794H31.8715Z" fill="#68BFB7"/>
<path d="M34.4738 63.1089C36.2247 63.1089 37.6495 61.5749 37.6495 59.6898C37.6495 57.8042 36.2252 56.2701 34.4738 56.2701C32.723 56.2701 31.2987 57.8042 31.2987 59.6898C31.2987 61.5749 32.723 63.1089 34.4738 63.1089ZM34.4738 58.3063C35.1803 58.3063 35.755 58.9267 35.755 59.6898C35.755 60.4523 35.1803 61.0727 34.4738 61.0727C33.7674 61.0727 33.1931 60.4523 33.1931 59.6898C33.1931 58.9267 33.7679 58.3063 34.4738 58.3063Z" fill="#68BFB7"/>
<path d="M15.5397 28.048V17.6728C15.5397 17.1892 15.3473 16.7422 15.0123 16.4458C14.6768 16.1494 14.2313 16.0327 13.7898 16.1266L6.9324 17.58C6.14355 17.747 5.54858 18.5244 5.54858 19.3887V27.3422C5.41489 27.3167 5.27823 27.3019 5.1396 27.3019C4.61913 27.3019 4.12481 27.4854 3.72175 27.8237C3.3182 27.4854 2.82387 27.3019 2.3034 27.3019C1.68969 27.3019 1.11199 27.557 0.678834 28.0194C0.240749 28.4844 0 29.1037 0 29.7639C0 30.4236 0.240749 31.0435 0.677848 31.5085L2.86581 33.8395C3.09472 34.0835 3.39861 34.2176 3.72126 34.2176C4.04489 34.2176 4.34928 34.0824 4.5767 33.839L6.76565 31.5085C7.20225 31.0429 7.443 30.4236 7.443 29.7639V19.5473L13.6448 18.2328V25.6263C13.5111 25.6008 13.3749 25.586 13.2363 25.586C12.7163 25.586 12.222 25.7694 11.8179 26.1077C11.4144 25.7694 10.9201 25.586 10.4001 25.586C9.78587 25.586 9.20817 25.841 8.77502 26.3034C8.33743 26.7685 8.09618 27.3878 8.09618 28.048C8.09618 28.7076 8.33693 29.3275 8.77403 29.7926L10.964 32.1252C11.1934 32.3675 11.4963 32.5012 11.8179 32.5012C12.1396 32.5012 12.443 32.3675 12.6739 32.1231L14.8623 29.792C15.2994 29.3265 15.5397 28.7071 15.5397 28.048ZM5.43215 30.0619L3.72126 31.8839L2.01085 30.0619C1.93488 29.9808 1.89442 29.8779 1.89442 29.7645C1.89442 29.651 1.93438 29.5481 2.01184 29.4664C2.09028 29.3827 2.19092 29.3381 2.3034 29.3381C2.41588 29.3381 2.51702 29.3827 2.59595 29.467L3.05475 29.9559C3.42377 30.3483 4.01825 30.3488 4.38776 29.9559L4.84755 29.4664C5.00492 29.2989 5.27379 29.2984 5.43265 29.467C5.50862 29.5481 5.54858 29.6504 5.54858 29.7645C5.54858 29.8779 5.50813 29.9813 5.43215 30.0619ZM13.5288 28.3465L11.8184 30.168L10.1075 28.346C10.0316 28.2649 9.9911 28.1615 9.9911 28.048C9.9911 27.9345 10.0311 27.8322 10.1085 27.7505C10.187 27.6667 10.2881 27.6222 10.4006 27.6222C10.5126 27.6222 10.6142 27.6667 10.6926 27.7505L11.1514 28.2394C11.5205 28.6323 12.1149 28.6323 12.4844 28.2399L12.9442 27.751C13.1026 27.5824 13.371 27.5824 13.5293 27.751C13.6053 27.8316 13.6453 27.9345 13.6453 28.048C13.6453 28.162 13.6048 28.2654 13.5288 28.3465Z" fill="#68BFB7"/>
<path d="M17.9217 16.9091C18.1506 17.153 18.4545 17.2872 18.7772 17.2872C19.0998 17.2872 19.4032 17.153 19.6326 16.9086L21.8206 14.5781C22.2577 14.1125 22.4984 13.4926 22.4984 12.8335C22.4984 12.8213 22.4969 12.8096 22.4969 12.7974C22.4974 12.7858 22.4984 12.7741 22.4984 12.7624V5.70089L25.3021 5.00571C26.0717 4.81481 26.6518 4.03108 26.6518 3.18212V1.57807C26.6518 0.693057 26.0154 0 25.2024 0C25.1028 0 25.0016 0.0106053 24.902 0.0318159L21.9878 0.649575C21.199 0.816609 20.604 1.59398 20.604 2.45831V10.4118C20.4703 10.3863 20.3341 10.3715 20.1955 10.3715C19.6755 10.3715 19.1812 10.5549 18.7772 10.8932C18.3736 10.5549 17.8793 10.3715 17.3588 10.3715C16.7456 10.3715 16.1679 10.6265 15.7342 11.0889C15.2967 11.554 15.0559 12.1733 15.0559 12.8335C15.0559 13.4931 15.2962 14.113 15.7333 14.5781L17.9217 16.9091ZM22.4984 2.61686L24.7574 2.13803V3.05115L22.4984 3.61111V2.61686ZM17.0673 12.536C17.1457 12.4522 17.2468 12.4077 17.3588 12.4077C17.4713 12.4077 17.5724 12.4522 17.6514 12.5365L18.1107 13.0249C18.4797 13.4178 19.0746 13.4178 19.4437 13.0249L19.9025 12.5365C20.0608 12.3684 20.3292 12.3674 20.4881 12.5365C20.564 12.6177 20.6045 12.7205 20.6045 12.8335C20.6045 12.947 20.564 13.0504 20.4876 13.1315L18.7772 14.9535L17.0668 13.1315C16.9903 13.0504 16.9503 12.9475 16.9503 12.8335C16.9498 12.72 16.9903 12.6177 17.0673 12.536Z" fill="#68BFB7"/>
</svg>
