<svg width="73" height="74" viewBox="0 0 73 74" fill="none" xmlns="http://www.w3.org/2000/svg">
<path d="M71.3842 71.2327H67.2339L62.0809 68.2539V62.1675L63.4019 60.6746C68.551 59.5773 72.4454 54.6856 72.4454 48.8332C72.4454 47.9724 71.7938 47.2714 70.9929 47.2714H54.9083L50.3496 44.6366V38.5502L51.6705 37.0573C56.8196 35.96 60.7141 31.0683 60.7141 25.2154C60.7141 24.3545 60.0624 23.6541 59.2615 23.6541H43.0963L38.4734 20.9825V14.8961L39.7949 13.4032C43.2671 12.6629 46.1672 10.1975 47.6888 6.87476C47.6921 6.86882 47.6943 6.86288 47.6976 6.85694C48.4272 5.25647 48.8379 3.45995 48.8379 1.56126C48.8379 0.700427 48.1868 0 47.3859 0H43.722C43.1361 0 42.6607 0.51032 42.6607 1.14064C42.6607 1.77038 43.1361 2.28129 43.722 2.28129H46.6911C46.622 3.30074 46.4048 4.27623 46.066 5.18637H26.0213C25.6824 4.27623 25.4652 3.30074 25.3961 2.28129H38.7696C39.3555 2.28129 39.8308 1.77038 39.8308 1.14064C39.8308 0.51032 39.3555 0 38.7696 0H24.7014C23.9005 0 23.2494 0.700427 23.2494 1.56126C23.2494 3.45995 23.6601 5.25706 24.3896 6.85694C24.393 6.86288 24.3952 6.86882 24.3985 6.87476C25.9201 10.1975 28.8202 12.6635 32.2924 13.4032L33.6133 14.8955V20.9825L28.991 23.6541H13.1109C12.3101 23.6541 11.6584 24.3545 11.6584 25.2154C11.6584 31.0683 15.5528 35.96 20.7019 37.0573L22.0229 38.5502V44.6366L17.4641 47.2714H1.45253C0.651651 47.2714 0 47.9718 0 48.8327C0 54.6856 3.89443 59.5773 9.04352 60.6746L10.364 62.1675V68.2539L5.21155 71.2327H1.06121C0.475335 71.2327 0 71.7436 0 72.3733C0 73.0036 0.475335 73.5139 1.06121 73.5139H71.3842C71.9701 73.5139 72.4454 73.0036 72.4454 72.3733C72.4454 71.743 71.9701 71.2327 71.3842 71.2327ZM61.2154 58.625H58.0865C55.1267 58.625 52.4935 57.0976 50.8288 54.7391H55.0907C55.0587 54.8478 55.0415 54.963 55.0415 55.083C55.0415 55.7134 55.5163 56.2237 56.1028 56.2237C56.6886 56.2237 57.164 55.7134 57.164 55.083C57.164 54.963 57.1463 54.8478 57.1142 54.7391H68.4731C66.8083 57.0976 64.1752 58.625 61.2154 58.625ZM59.0509 60.9253L59.0338 60.9063H60.268L60.2509 60.9259C60.063 61.138 59.9585 61.4195 59.9585 61.7118V67.1263C59.7551 67.0859 59.5462 67.0859 59.3433 67.1263V61.7118C59.3433 61.419 59.2383 61.1374 59.0509 60.9253ZM70.2987 49.5527C70.2296 50.5721 70.0124 51.5476 69.6736 52.4578H49.6283C49.29 51.5482 49.0728 50.5727 49.0031 49.5527H70.2987ZM50.4275 47.2714H45.4116L47.9193 45.8218L50.4275 47.2714ZM35.6225 60.9253L35.6053 60.9063H36.8395L36.8224 60.9259C36.635 61.138 36.53 61.4195 36.53 61.7118V67.1263C36.3272 67.0859 36.1183 67.0859 35.9149 67.1263V61.7118C35.9149 61.419 35.8104 61.1374 35.6225 60.9253ZM34.6585 58.625C31.6987 58.625 29.0651 57.0976 27.4008 54.7391H45.0446C43.3804 57.0976 40.7467 58.625 37.7869 58.625H34.6585ZM26.2003 52.4578C25.8615 51.5476 25.6443 50.5721 25.5752 49.5527H46.8702C46.8011 50.5721 46.5839 51.5476 46.2451 52.4578H26.2003ZM31.4417 47.2714L26.8829 44.636V38.5502L28.2039 37.0573C31.7446 36.3028 34.6906 33.7536 36.1862 30.331C37.6819 33.7536 40.6279 36.3028 44.168 37.0573L45.489 38.5502V44.6366L40.9307 47.2714H31.4417ZM47.3196 37.308L47.3024 37.289H48.5367L48.519 37.3086C48.3316 37.5207 48.2271 37.8017 48.2271 38.0946V43.5085C48.0237 43.4681 47.8148 43.4681 47.6114 43.5091V38.094C47.6114 37.8017 47.5069 37.5201 47.3196 37.308ZM58.5668 25.9354C58.4977 26.9549 58.2805 27.9303 57.9422 28.8405H54.4756C53.8897 28.8405 53.4144 29.3508 53.4144 29.9811C53.4144 30.6109 53.8897 31.1218 54.4756 31.1218H56.7417C55.0769 33.4803 52.4438 35.0077 49.484 35.0077H46.3551C43.3953 35.0077 40.7616 33.4803 39.0974 31.1218H49.5232C50.1091 31.1218 50.5845 30.6109 50.5845 29.9811C50.5845 29.3508 50.1091 28.8405 49.5232 28.8405H37.8969C37.5581 27.9303 37.3409 26.9549 37.2718 25.9354H58.5668ZM27.2218 7.46706H44.8655C43.2013 9.82618 40.5676 11.353 37.6078 11.353H34.4795C31.5191 11.353 28.886 9.82618 27.2218 7.46706ZM35.4434 13.6539L35.4263 13.6343H36.6605L36.6433 13.6539C36.4554 13.866 36.3509 14.1476 36.3509 14.4404V19.8549C36.1481 19.8145 35.9386 19.8145 35.7358 19.8549V14.4398C35.7358 14.1476 35.6313 13.866 35.4434 13.6539ZM36.0436 22.1677L38.6149 23.6541H36.5776C36.4416 23.6541 36.3106 23.6755 36.1862 23.7135C36.0613 23.6755 35.9309 23.6541 35.7949 23.6541H33.4719L36.0436 22.1677ZM14.4303 28.8405C14.092 27.9303 13.8748 26.9549 13.8052 25.9354H35.1007C35.0311 26.9549 34.8144 27.9303 34.4756 28.8405H14.4303ZM15.6308 31.1218H20.0962C20.0945 31.1497 20.0923 31.177 20.0923 31.2055C20.0923 31.8359 20.5676 32.3462 21.1535 32.3462C21.7394 32.3462 22.2147 31.8359 22.2147 31.2055C22.2147 31.177 22.2125 31.1497 22.2108 31.1218H33.2751C31.6103 33.4803 28.9772 35.0077 26.0174 35.0077H22.8885C19.9287 35.0077 17.2956 33.4803 15.6308 31.1218ZM23.853 37.308L23.8358 37.289H25.07L25.0529 37.3086C24.865 37.5207 24.7605 37.8017 24.7605 38.0946V43.5085C24.5577 43.4681 24.3487 43.4681 24.1453 43.5091V38.094C24.1453 37.8017 24.0403 37.5201 23.853 37.308ZM24.4532 45.8218L26.9609 47.2714H21.945L24.4532 45.8218ZM3.97236 54.7391H6.50877C7.09465 54.7391 7.56998 54.2281 7.56998 53.5984C7.56998 52.9681 7.09465 52.4578 6.50877 52.4578H2.77186C2.4336 51.5476 2.21583 50.5721 2.14674 49.5527H23.4423C23.3727 50.5721 23.1554 51.5476 22.8172 52.4578H11.4611C10.8752 52.4578 10.3999 52.9681 10.3999 53.5984C10.3999 54.2281 10.8752 54.7391 11.4611 54.7391H21.6167C19.9519 57.0976 17.3188 58.625 14.359 58.625H11.2301C8.27027 58.625 5.63714 57.0976 3.97236 54.7391ZM12.1945 60.9253L12.1774 60.9063H13.4116L13.3939 60.9259C13.2066 61.138 13.1021 61.4195 13.1021 61.7118V67.1263C12.8987 67.0859 12.6898 67.0859 12.4864 67.1263V61.7118C12.4864 61.419 12.3819 61.1374 12.1945 60.9253ZM9.69241 71.2327L12.7942 69.4391L15.8966 71.2327H9.69241ZM20.3775 71.2327L15.2245 68.2539V62.1675L16.5455 60.6746C20.0707 59.9236 23.0068 57.394 24.5085 53.9941C26.0102 57.394 28.9462 59.9236 32.4714 60.6746L33.7924 62.1675V68.2539L28.6395 71.2327H20.3775ZM33.1203 71.2327L36.2227 69.4391L39.3251 71.2327H33.1203ZM43.806 71.2327L38.6525 68.2539V62.1675L39.974 60.6746C43.4992 59.9236 46.4352 57.394 47.937 53.9941C49.4387 57.394 52.3747 59.9236 55.8999 60.6746L57.2209 62.1675V68.2539L52.0679 71.2327H43.806ZM56.5488 71.2327L59.6512 69.4391L62.753 71.2327H56.5488Z" fill="#84B8E2"/>
<path d="M62.6822 56.4516C62.6822 57.082 62.2069 57.5923 61.621 57.5923C61.0351 57.5923 60.5598 57.082 60.5598 56.4516C60.5598 55.8219 61.0351 55.311 61.621 55.311C62.2069 55.311 62.6822 55.8219 62.6822 56.4516Z" fill="#84B8E2"/>
<path d="M27.3085 33.0305C27.3085 33.6608 26.8331 34.1711 26.2472 34.1711C25.6614 34.1711 25.186 33.6608 25.186 33.0305C25.186 32.4007 25.6614 31.8898 26.2472 31.8898C26.8331 31.8898 27.3085 32.4007 27.3085 33.0305Z" fill="#84B8E2"/>
<path d="M47.1178 21.624C47.1178 22.2543 46.6425 22.7647 46.0566 22.7647C45.4707 22.7647 44.9954 22.2543 44.9954 21.624C44.9954 20.9943 45.4707 20.4834 46.0566 20.4834C46.6425 20.4834 47.1178 20.9943 47.1178 21.624Z" fill="#84B8E2"/>
<path d="M54.0511 20.4073C54.0511 21.0376 53.5758 21.548 52.9899 21.548C52.404 21.548 51.9287 21.0376 51.9287 20.4073C51.9287 19.7776 52.404 19.2667 52.9899 19.2667C53.5758 19.2667 54.0511 19.7776 54.0511 20.4073Z" fill="#84B8E2"/>
<path d="M12.027 44.7411C12.027 45.3714 11.5516 45.8817 10.9658 45.8817C10.3799 45.8817 9.90454 45.3714 9.90454 44.7411C9.90454 44.1113 10.3799 43.6004 10.9658 43.6004C11.5516 43.6004 12.027 44.1113 12.027 44.7411Z" fill="#84B8E2"/>
<path d="M7.92369 42.0035C7.92369 42.6338 7.44836 43.1441 6.86248 43.1441C6.2766 43.1441 5.80127 42.6338 5.80127 42.0035C5.80127 41.3738 6.2766 40.8629 6.86248 40.8629C7.44836 40.8629 7.92369 41.3738 7.92369 42.0035Z" fill="#84B8E2"/>
<path d="M15.14 40.9389C15.14 41.5692 14.6647 42.0795 14.0788 42.0795C13.4929 42.0795 13.0176 41.5692 13.0176 40.9389C13.0176 40.3091 13.4929 39.7982 14.0788 39.7982C14.6647 39.7982 15.14 40.3091 15.14 40.9389Z" fill="#84B8E2"/>
<path d="M50.0892 17.5177C50.0892 18.148 49.6139 18.6583 49.028 18.6583C48.4421 18.6583 47.9668 18.148 47.9668 17.5177C47.9668 16.888 48.4421 16.377 49.028 16.377C49.6139 16.377 50.0892 16.888 50.0892 17.5177Z" fill="#84B8E2"/>
</svg>
