<svg width="64" height="78" viewBox="0 0 64 78" fill="none" xmlns="http://www.w3.org/2000/svg">
<path d="M61.9242 43.566H57.8532C57.3117 38.231 55.3291 33.1382 52.1339 28.9791C51.7602 28.4923 51.0903 28.4232 50.6374 28.8255C50.1845 29.2272 50.1208 29.9473 50.4946 30.4341C53.3752 34.1837 55.1801 38.7624 55.7122 43.566H8.87153C10.249 30.9964 20.2269 21.2119 32.2932 21.2119C37.7351 21.2119 42.8464 23.146 47.0758 26.8046C47.5331 27.2003 48.2024 27.1224 48.5701 26.6308C48.9382 26.1393 48.8657 25.4198 48.409 25.0241C44.5888 21.7195 39.9364 19.6635 35.0776 19.091V17.8865C36.4755 17.1421 37.3846 15.8424 37.3846 14.3338C37.3846 11.9665 35.1484 10.1122 32.2932 10.1122C29.4381 10.1122 27.2019 11.9665 27.2019 14.3338C27.2019 15.8424 28.1109 17.1421 29.5089 17.8865V19.0892C17.5478 20.4799 8.02222 30.7167 6.73277 43.566H2.66231C1.68512 43.566 0.890625 44.4205 0.890625 45.4703V47.9417C0.890625 48.9921 1.68512 49.846 2.66231 49.846H4.22195C4.26901 49.9436 4.32161 50.0406 4.38306 50.1364L6.37068 53.2351C7.01015 54.2319 8.34113 54.9835 9.46781 54.9835H14.5393L16.7688 59.5865C17.4016 60.8921 18.8345 62.4793 20.0304 63.1981L27.6902 67.803H27.4881C26.5109 67.803 25.7164 68.6569 25.7164 69.7073V76.0956C25.7164 77.1459 26.5109 77.9999 27.4881 77.9999H47.1411C48.1183 77.9999 48.9128 77.1459 48.9128 76.0956V69.7073C48.9128 68.6569 48.1183 67.803 47.1411 67.803H45.9701V67.3739C45.9701 66.2623 46.3145 64.4603 46.722 63.4391L49.8916 55.4952C49.9592 55.3244 50.0112 55.1537 50.0505 54.9829H55.1192C56.2454 54.9829 57.5769 54.2319 58.2164 53.2351L60.2034 50.1364C60.2649 50.0406 60.3175 49.9436 60.3645 49.846H61.9242C62.9014 49.846 63.6959 48.9921 63.6959 47.9417V45.4703C63.6959 44.4205 62.9014 43.566 61.9242 43.566ZM32.9515 18.9369C32.7323 18.9309 32.513 18.9267 32.2932 18.9267C32.0734 18.9267 31.8536 18.9303 31.6349 18.9363V18.5209C31.8503 18.5429 32.0696 18.5554 32.2932 18.5554C32.5169 18.5554 32.7362 18.5429 32.9515 18.5209V18.9369ZM29.3279 14.3338C29.3279 13.1924 30.8908 12.3974 32.2932 12.3974C33.6956 12.3974 35.2586 13.1924 35.2586 14.3338C35.2586 15.4752 33.6956 16.2702 32.2932 16.2702C30.8908 16.2702 29.3279 15.4752 29.3279 14.3338ZM46.7868 70.0881V75.7147H42.7108V70.0881H46.7868ZM44.7681 62.5382C44.2499 63.8367 43.8441 65.9612 43.8441 67.3739V67.803H39.0965C38.5097 67.803 38.0335 68.3142 38.0335 68.9455C38.0335 69.5763 38.5097 70.0881 39.0965 70.0881H40.5847V75.7147H27.8424V70.0881H34.1358C34.7227 70.0881 35.1988 69.5763 35.1988 68.9455C35.1988 68.3142 34.7227 67.803 34.1358 67.803H30.8593C30.4407 67.1061 29.8932 66.5086 29.2836 66.1421L21.0685 61.2034C20.2275 60.6981 19.0997 59.449 18.6551 58.5308L16.9366 54.9829H20.4107L20.9799 56.1921C21.6421 57.6001 23.1973 59.0182 24.5969 59.4913L30.5099 61.4896C31.7346 61.9038 33.6995 62.2281 34.9829 62.2281H37.4992C39.0279 62.2281 40.8394 61.2117 41.7136 59.8644L44.5633 55.4726C44.6729 55.3036 44.8224 55.1382 44.9962 54.9829H47.7828L44.7681 62.5382ZM22.7931 54.9829H42.2883L39.9696 58.5576C39.499 59.2824 38.322 59.943 37.4992 59.943H34.9823C33.9188 59.943 32.1626 59.6532 31.1472 59.3098L25.2347 57.3115C24.397 57.0282 23.2731 56.0029 22.8767 55.1608L22.7931 54.9829ZM56.4657 51.9378C56.2193 52.3216 55.5527 52.6977 55.1192 52.6977H9.46781C9.03375 52.6977 8.36715 52.3216 8.12077 51.9378L6.77927 49.846H57.8072L56.4657 51.9378ZM61.5698 47.5609H3.01665V45.8512H61.5698V47.5609Z" fill="#84B8E2"/>
<path d="M14.0669 18.1258H17.9485C18.5354 18.1258 19.0115 17.6141 19.0115 16.9833C19.0115 16.3519 18.5354 15.8407 17.9485 15.8407H14.0669C12.7353 15.8407 11.6524 14.6749 11.6524 13.2431C11.6524 11.8107 12.7353 10.6455 14.0669 10.6455H16.6557C17.2426 10.6455 17.7188 10.1337 17.7188 9.50293C17.7188 8.87154 17.2426 8.36035 16.6557 8.36035H14.0669C11.5633 8.36035 9.52637 10.5509 9.52637 13.2431C9.52637 15.9353 11.5633 18.1258 14.0669 18.1258Z" fill="#84B8E2"/>
<path d="M20.3007 2.28516H23.73C25.2863 2.28516 26.5531 3.64792 26.5531 5.32252C26.5531 6.99771 25.2863 8.36047 23.73 8.36047H21.6632C21.0764 8.36047 20.6002 8.87166 20.6002 9.50305C20.6002 10.1338 21.0764 10.6456 21.6632 10.6456H23.73C26.459 10.6456 28.6791 8.25752 28.6791 5.32252C28.6791 2.38811 26.459 0 23.73 0H20.3007C19.7133 0 19.2377 0.511185 19.2377 1.14258C19.2377 1.77397 19.7133 2.28516 20.3007 2.28516Z" fill="#84B8E2"/>
<path d="M41.0808 18.2049C41.6677 18.2049 42.1438 17.6937 42.1438 17.0623V14.7968C42.1438 13.8607 42.8514 13.0996 43.7207 13.0996H49.9731C52.2967 13.0996 54.1864 11.0668 54.1864 8.56797C54.1864 6.06977 52.2962 4.03693 49.9731 4.03693H47.7994C47.212 4.03693 46.7364 4.54811 46.7364 5.17951C46.7364 5.8109 47.212 6.32209 47.7994 6.32209H49.9731C51.1241 6.32209 52.0603 7.32958 52.0603 8.56797C52.0603 9.80695 51.1241 10.8144 49.9731 10.8144H43.7207C41.6788 10.8144 40.0178 12.6009 40.0178 14.7968V17.0623C40.0178 17.6937 40.494 18.2049 41.0808 18.2049Z" fill="#84B8E2"/>
<path d="M31.5845 71.3731H29.742C29.1551 71.3731 28.679 71.8843 28.679 72.5157C28.679 73.1471 29.1551 73.6582 29.742 73.6582H31.5845C32.1714 73.6582 32.6475 73.1471 32.6475 72.5157C32.6475 71.8843 32.1714 71.3731 31.5845 71.3731Z" fill="#84B8E2"/>
</svg>
