<svg width="73" height="78" viewBox="0 0 73 78" fill="none" xmlns="http://www.w3.org/2000/svg">
<path d="M29.2228 45.0325C29.2228 45.6639 29.734 46.1751 30.3654 46.1751H41.928C42.5594 46.1751 43.0706 45.6639 43.0706 45.0325C43.0706 44.4017 42.5594 43.8899 41.928 43.8899H30.3654C29.734 43.8899 29.2228 44.4017 29.2228 45.0325Z" fill="#E2645A"/>
<path d="M38.9726 47.2807H33.3198C32.689 47.2807 32.1772 47.7925 32.1772 48.4233C32.1772 49.0541 32.689 49.5659 33.3198 49.5659H38.9726C39.604 49.5659 40.1152 49.0541 40.1152 48.4233C40.1152 47.7925 39.604 47.2807 38.9726 47.2807Z" fill="#E2645A"/>
<path d="M70.3882 71.4129H65.4257V62.9114C67.0806 62.7936 68.6207 62.0961 69.8044 60.9125C71.4088 59.3087 72.1211 57.0176 71.7099 54.7854C71.6468 54.4415 71.4831 54.1284 71.2332 53.8785C70.9862 53.6321 70.6738 53.4685 70.331 53.4054C69.9186 53.3298 69.4973 53.2912 69.079 53.2912C68.7731 53.2912 68.4714 53.3126 68.1732 53.3513C68.347 53.0168 68.491 52.6633 68.5993 52.2932L69.8175 48.14C69.9246 47.7752 69.8835 47.3902 69.7014 47.0564C69.5187 46.7219 69.217 46.4785 68.8516 46.3714C68.7183 46.3327 68.5862 46.2988 68.4541 46.2685L68.7903 44.5933C68.9403 43.8387 68.4488 43.1014 67.6936 42.949C67.2818 42.8669 66.8747 42.8247 66.4844 42.8247C66.4028 42.8247 66.3231 42.8306 66.2433 42.8342C66.0386 42.3099 65.7631 41.8154 65.4257 41.3643V33.3615C65.4251 33.3615 65.4251 33.3615 65.4245 33.3615C65.4251 33.3549 65.4257 33.349 65.4257 33.343V26.847C65.4257 16.809 58.1911 8.42889 48.6607 6.64064C48.6453 4.87262 47.9508 3.2135 46.6993 1.96262C45.4341 0.696854 43.7512 0 41.9606 0C40.1705 0 38.4876 0.696854 37.2219 1.96262L36.1465 3.03735L35.0712 1.96262C33.8054 0.696854 32.1225 0 30.3319 0C28.5418 0 26.8589 0.696854 25.5938 1.96202C24.3417 3.2135 23.6472 4.87262 23.6317 6.64005C14.1013 8.42889 6.86737 16.8084 6.86737 26.847V41.4304C6.57697 41.8118 6.33238 42.2266 6.13719 42.6646C5.99377 42.6539 5.84917 42.6479 5.70218 42.6479C5.39511 42.6479 5.07555 42.6729 4.75301 42.7217C4.38405 42.7782 4.05853 42.9746 3.83716 43.2751C3.61578 43.5763 3.52473 43.9452 3.58127 44.3148L3.83835 46.0019C3.70505 46.0263 3.57056 46.0536 3.43488 46.0864C2.67256 46.2726 2.20363 47.0445 2.3893 47.8062L3.41167 52.0129C3.52533 52.4794 3.69077 52.921 3.90143 53.3334C3.65208 53.306 3.40036 53.2912 3.14566 53.2912C2.72672 53.2912 2.30539 53.3298 1.89359 53.4054C1.54903 53.4691 1.2366 53.6327 0.988449 53.8809C0.741486 54.1284 0.577835 54.4409 0.514755 54.7842C0.102951 57.0176 0.815277 59.3087 2.41965 60.9125C3.61995 62.1122 5.18623 62.8138 6.86737 62.9168V71.4129H1.9043C0.854553 71.4129 0 72.2669 0 73.3172V76.0957C0 77.146 0.854553 78 1.9043 78H70.3882C71.4385 78 72.2925 77.146 72.2925 76.0957V73.3172C72.2925 72.2669 71.4385 71.4129 70.3882 71.4129ZM69.079 55.5763C69.2248 55.5763 69.3717 55.5835 69.5181 55.5971C69.6479 56.9611 69.1658 58.3197 68.1887 59.2962C67.4371 60.0478 66.4701 60.5072 65.4257 60.6185V57.3729C65.5453 57.217 65.675 57.067 65.8161 56.926C66.6867 56.0554 67.8453 55.5763 69.079 55.5763ZM67.3597 48.4001L66.4064 51.6499C66.1428 52.5491 65.5507 53.2912 64.7854 53.7643C64.6961 53.2424 64.5604 52.5878 64.3569 51.8808C64.2218 51.4113 64.0713 50.9697 63.9058 50.5531C64.3468 49.8069 64.8484 49.2457 65.4078 48.8791C65.9976 48.4929 66.6319 48.3364 67.3597 48.4001ZM64.8169 45.6763C65.268 45.3211 65.772 45.136 66.3552 45.1128L66.141 46.1816C65.437 46.303 64.7711 46.5648 64.1564 46.9677C63.9463 47.1046 63.7434 47.2587 63.5476 47.4271C63.8939 46.6559 64.3182 46.0691 64.8169 45.6763ZM64.0302 43.4608C63.8142 43.584 63.6047 43.7227 63.403 43.881C63.1846 44.0535 62.9763 44.2457 62.7793 44.457C62.593 44.2374 62.3955 44.0351 62.1854 43.853C61.9742 43.6697 61.7528 43.509 61.5225 43.3674C61.8212 42.7985 62.2586 42.3046 62.8019 41.938C63.3393 42.3373 63.7588 42.8645 64.0302 43.4608ZM52.1896 67.5645C51.5582 67.5645 51.0471 68.0762 51.0471 68.707V71.4129H37.2891V54.8057H46.1173C47.1671 54.8057 48.0216 53.9517 48.0216 52.9014V40.5544C48.0216 39.504 47.1671 38.6501 46.1173 38.6501H34.7754C34.144 38.6501 33.6329 39.1619 33.6329 39.7927C33.6329 40.4235 34.144 40.9352 34.7754 40.9352H45.7365V52.5205H26.5566V40.9352H29.4434C30.0742 40.9352 30.586 40.4235 30.586 39.7927C30.586 39.1619 30.0742 38.6501 29.4434 38.6501H26.1758C25.1254 38.6501 24.2715 39.504 24.2715 40.5544V52.9014C24.2715 53.9517 25.1254 54.8057 26.1758 54.8057H35.004V71.4129H21.246V44.1035C21.246 40.5556 19.8725 37.2112 17.3797 34.6868C17.0304 34.3327 16.6644 34.0018 16.2835 33.6936C23.9352 31.29 29.6374 24.444 30.3509 16.1931L34.5648 20.4051C34.9879 20.8271 35.5491 21.0591 36.1465 21.0591C36.7428 21.0591 37.3046 20.8271 37.7289 20.4045L41.9415 16.1931C42.6551 24.444 48.3572 31.29 56.0095 33.6936C55.6287 34.0018 55.2621 34.3327 54.9128 34.6868C52.4199 37.2112 51.0471 40.5556 51.0471 44.1035V63.2227C51.0471 63.8535 51.5582 64.3652 52.1896 64.3652C52.8204 64.3652 53.3322 63.8535 53.3322 63.2227V44.1035C53.3322 41.1602 54.4712 38.3865 56.5392 36.2923C57.2884 35.5336 58.1299 34.898 59.0368 34.3916C59.3748 34.4422 59.7146 34.485 60.0574 34.519V41.4339C59.7681 41.8154 59.5224 42.2278 59.3272 42.6652C59.1838 42.6539 59.0392 42.6479 58.8922 42.6479C58.5851 42.6479 58.2655 42.6729 57.943 42.7217C57.574 42.7782 57.2485 42.9746 57.0271 43.2751C56.8058 43.5763 56.7147 43.9452 56.7713 44.3148L57.0283 46.0019C56.895 46.0263 56.7605 46.0536 56.6255 46.0864C55.8625 46.2726 55.3936 47.0445 55.5793 47.8062L56.6017 52.0129C56.7153 52.4794 56.8819 52.921 57.0926 53.3334C56.8427 53.306 56.5903 53.2912 56.3356 53.2912C55.9167 53.2912 55.4954 53.3298 55.0836 53.4054C54.7396 53.4691 54.4266 53.6327 54.1784 53.8809C53.9315 54.1284 53.7678 54.4409 53.7047 54.7842C53.2935 57.0176 54.0053 59.3087 55.6096 60.9125C56.8099 62.1122 58.3756 62.8138 60.0574 62.9168V71.4129H53.3322V68.707C53.3322 68.0762 52.8204 67.5645 52.1896 67.5645ZM12.2184 48.8791C12.8076 48.4929 13.4408 48.3364 14.1698 48.3995L13.2164 51.6499C12.9534 52.5485 12.3607 53.2912 11.5954 53.7643C11.5061 53.2424 11.3704 52.5878 11.1675 51.8808C11.0324 51.4113 10.8813 50.9697 10.7164 50.5531C11.1568 49.8063 11.6585 49.2457 12.2184 48.8791ZM10.3588 47.4253C10.7045 46.6553 11.1282 46.0691 11.6275 45.6763C12.078 45.3211 12.582 45.136 13.1652 45.1128L12.951 46.1816C12.2476 46.303 11.5811 46.5648 10.9664 46.9677C10.7569 47.1046 10.5546 47.2575 10.3588 47.4253ZM15.8884 55.5763C16.0348 55.5763 16.1818 55.5835 16.3282 55.5971C16.4579 56.9611 15.9759 58.3197 14.9987 59.2962C14.2471 60.0478 13.2801 60.5072 12.2357 60.6185V57.3723C12.3559 57.2164 12.485 57.067 12.6261 56.926C13.4967 56.0554 14.6559 55.5763 15.8884 55.5763ZM12.2357 62.9114C13.8913 62.7936 15.4308 62.0956 16.6144 60.9125C18.2188 59.3087 18.9311 57.0176 18.5199 54.7854C18.4574 54.4415 18.2932 54.1284 18.0438 53.8785C17.7962 53.6321 17.4838 53.4685 17.1411 53.4054C16.7287 53.3298 16.3073 53.2912 15.8884 53.2912C15.5825 53.2912 15.2802 53.3126 14.9821 53.3519C15.1558 53.0168 15.301 52.6639 15.4093 52.2932L16.6269 48.1412C16.7346 47.7758 16.6935 47.3908 16.5114 47.057C16.3293 46.7219 16.0276 46.4791 15.6617 46.3714C15.5284 46.3327 15.3962 46.2994 15.2641 46.2691L15.6004 44.5933C15.7503 43.8387 15.2588 43.1014 14.5036 42.9496C14.0918 42.8669 13.6848 42.8253 13.2944 42.8253C13.2128 42.8253 13.1337 42.8312 13.0534 42.8348C12.8486 42.3099 12.5737 41.8148 12.2357 41.3631V34.519C12.5797 34.485 12.9212 34.4422 13.2599 34.391C14.1656 34.8974 15.0053 35.5348 15.7539 36.2929C17.8218 38.3865 18.9608 41.1608 18.9608 44.1035V71.4129H12.2357V62.9114ZM60.6888 45.5799C60.9738 45.8269 61.2279 46.1429 61.4534 46.5214C61.3981 46.6452 61.3445 46.7731 61.2928 46.9034C61.2916 46.9022 61.2904 46.901 61.2892 46.9005C60.6929 46.469 60.0401 46.1756 59.3432 46.0221L59.179 44.945C59.7598 44.9962 60.2561 45.205 60.6888 45.5799ZM57.2253 59.2962C56.2482 58.3197 55.7661 56.9617 55.8959 55.5971C56.0423 55.5835 56.1893 55.5763 56.3356 55.5763C57.5687 55.5763 58.7267 56.0554 59.5974 56.926C59.7658 57.0944 59.9187 57.2747 60.0568 57.4639V60.6257C58.9868 60.5275 57.9936 60.0645 57.2253 59.2962ZM58.8225 51.4731L58.0221 48.1817C58.7493 48.1525 59.379 48.3388 59.9491 48.7518C60.8958 49.4367 61.6403 50.7025 62.161 52.5128C62.361 53.2078 62.4859 53.844 62.5609 54.3141C62.5419 54.3135 62.5228 54.3135 62.5038 54.3135L62.4401 54.3141C60.7167 54.3141 59.229 53.146 58.8225 51.4731ZM62.3419 56.6011H63.1405V71.4129H62.3419V56.6011ZM62.3419 39.6082V34.6124C62.6073 34.6082 62.8733 34.5999 63.1405 34.5856V39.5683C63.0471 39.5493 62.9531 39.5356 62.8579 39.5338C62.8489 39.5332 62.8293 39.5332 62.8204 39.5332C62.6579 39.5332 62.4972 39.5606 62.3419 39.6082ZM62.9299 24.0786C59.9431 22.9718 57.3211 21.096 55.2794 18.5842C53.2049 16.0312 51.9034 13.0236 51.4577 9.80534C57.458 12.1345 61.9319 17.5421 62.9299 24.0786ZM48.0811 9.43282C48.1591 9.25786 48.2305 9.07993 48.2936 8.89842C48.5548 8.94841 48.8143 9.00256 49.0719 9.06326C49.4165 13.0932 50.9393 16.8673 53.506 20.0255C56.0339 23.136 59.3504 25.3849 63.137 26.5673C63.1387 26.6608 63.1405 26.7536 63.1405 26.847V28.2193C59.1736 27.5962 55.5311 25.6556 52.7794 22.6724C49.7248 19.3619 48.0424 15.0564 48.0424 10.5492C48.0424 10.1779 48.0567 9.80534 48.0811 9.43282ZM51.0994 24.2221C54.2844 27.6748 58.528 29.8897 63.1405 30.53V32.2981C62.774 32.3201 62.4092 32.3314 62.0473 32.3314C52.1783 32.3314 44.1493 24.306 44.1493 14.4411C44.1493 14.2864 44.1529 14.1329 44.1565 13.9787L45.8352 12.3006C46.2185 16.7394 48.0526 20.9193 51.0994 24.2221ZM27.2088 3.57829C28.0432 2.74457 29.1524 2.28516 30.3319 2.28516C31.5119 2.28516 32.6212 2.74457 33.4555 3.57829L35.3384 5.46057C35.7847 5.90689 36.5078 5.90689 36.9541 5.46057L38.8369 3.57829C39.6719 2.74457 40.7811 2.28516 41.9606 2.28516C43.1407 2.28516 44.2493 2.74457 45.0836 3.57889C45.918 4.41202 46.3768 5.52068 46.3768 6.69955C46.3768 7.87903 45.918 8.98709 45.0836 9.82082L36.1465 18.7549L27.2088 9.82141C26.3751 8.98709 25.9157 7.87903 25.9157 6.70015C25.9157 5.52068 26.3751 4.41202 27.2088 3.57829ZM20.8348 9.80534C20.3897 13.0236 19.0876 16.0312 17.0131 18.5842C14.9719 21.0966 12.35 22.9718 9.36319 24.0786C10.3612 17.5421 14.8351 12.1345 20.8348 9.80534ZM9.15253 30.5277C12.7766 30.0254 16.1764 28.5561 19.0406 26.2394C19.5315 25.8425 19.6077 25.123 19.2102 24.6321C18.8139 24.1417 18.0944 24.0656 17.6034 24.4625C15.1475 26.4495 12.2464 27.7325 9.15253 28.2175V26.847C9.15253 26.7536 9.15431 26.6608 9.1555 26.5673C12.9421 25.3849 16.2585 23.136 18.7865 20.0249C21.3531 16.8673 22.8766 13.0932 23.2205 9.06326C23.4782 9.00256 23.7377 8.94662 23.9989 8.89664C24.062 9.07874 24.1334 9.25726 24.2113 9.43282C24.2346 9.80534 24.25 10.1779 24.25 10.5492C24.25 14.19 23.1628 17.6933 21.1056 20.6801C20.7473 21.1996 20.8788 21.9113 21.3983 22.269C21.5965 22.4052 21.8221 22.4707 22.0452 22.4707C22.4088 22.4707 22.7659 22.2981 22.9872 21.9762C24.9766 19.0888 26.1585 15.7735 26.4566 12.3L28.1354 13.9787C28.1396 14.1323 28.1425 14.2864 28.1425 14.4405C28.1425 24.3054 20.1135 32.3314 10.2451 32.3314C9.8833 32.3314 9.51791 32.3201 9.15193 32.2975V30.5277H9.15253ZM9.15253 34.5856C9.41972 34.5999 9.68573 34.6082 9.95055 34.6124V39.5683C9.85771 39.5493 9.76369 39.5362 9.66847 39.5338C9.65955 39.5338 9.63931 39.5332 9.63039 39.5332C9.46793 39.5332 9.30725 39.5606 9.15253 39.6082V34.5856ZM9.61253 41.938C10.1493 42.3373 10.5688 42.8645 10.8408 43.4608C10.6248 43.584 10.4147 43.7227 10.2136 43.881C9.99458 44.0535 9.7869 44.2457 9.58992 44.457C9.40306 44.2374 9.20549 44.0351 8.99542 43.853C8.78416 43.6703 8.56279 43.509 8.33308 43.3674C8.63182 42.7985 9.06862 42.3046 9.61253 41.938ZM9.95055 56.6011V71.4129H9.15253V56.6011H9.95055ZM7.49936 45.5799C7.78381 45.8269 8.03851 46.1429 8.26346 46.5208C8.20811 46.6452 8.15456 46.7731 8.10278 46.9034C8.10159 46.9022 8.1004 46.9016 8.09921 46.9005C7.50293 46.469 6.85011 46.1762 6.15326 46.0221L5.98901 44.945C6.56982 44.9962 7.06613 45.205 7.49936 45.5799ZM6.75966 48.7518C7.70645 49.4367 8.45032 50.7025 8.97162 52.5128C9.17157 53.2072 9.29594 53.844 9.37093 54.3141C9.35188 54.3135 9.33284 54.3135 9.31439 54.3135L9.25012 54.3141C7.52673 54.3141 6.0396 53.146 5.63255 51.4731L4.83275 48.1817C5.55995 48.1525 6.18896 48.3388 6.75966 48.7518ZM4.03532 59.2962C3.05818 58.3197 2.57616 56.9617 2.70648 55.5971C2.85228 55.5835 2.99927 55.5763 3.14566 55.5763C4.37869 55.5763 5.53734 56.0554 6.40796 56.926C6.57637 57.0944 6.72871 57.2747 6.86737 57.4639V60.6257C5.7968 60.5275 4.80359 60.0645 4.03532 59.2962ZM70.0073 75.7148H2.28516V73.6981H70.0073V75.7148Z" fill="#E2645A"/>
</svg>
