<svg width="74" height="77" viewBox="0 0 74 77" fill="none" xmlns="http://www.w3.org/2000/svg">
<path d="M42.8595 3.3349H35.218C34.354 3.3349 33.6509 4.03694 33.6509 4.90094V9.80824C33.6509 10.6717 34.354 11.3743 35.218 11.3743H42.8595C43.7236 11.3743 44.4267 10.6717 44.4267 9.80824V4.90094C44.4267 4.03694 43.7236 3.3349 42.8595 3.3349ZM42.1879 9.13707H35.8896V5.57211H42.1879V9.13707Z" fill="#EA8079"/>
<path d="M39.0392 30.7528C35.8839 30.7528 33.3181 33.3163 33.3181 36.4676C33.3181 39.6195 35.8839 42.1835 39.0392 42.1835C42.1933 42.1835 44.7597 39.6195 44.7597 36.4676C44.7597 33.3169 42.1933 30.7528 39.0392 30.7528ZM39.0392 39.9463C37.1188 39.9463 35.5569 38.3861 35.5569 36.4682C35.5569 34.5502 37.1188 32.99 39.0392 32.99C40.9591 32.99 42.521 34.5502 42.521 36.4682C42.521 38.3861 40.9591 39.9463 39.0392 39.9463Z" fill="#EA8079"/>
<path d="M42.2708 26.3299C42.8894 26.3299 43.3902 25.8294 43.3902 25.2113C43.3902 24.5937 42.8894 24.0927 42.2708 24.0927H35.8064C35.1884 24.0927 34.687 24.5937 34.687 25.2113C34.687 25.8294 35.1884 26.3299 35.8064 26.3299H42.2708Z" fill="#EA8079"/>
<path d="M16.6848 45.7234C16.6848 45.1845 16.3804 44.6829 15.8709 44.3811L11.1724 41.6009C10.8995 41.4395 10.6022 41.3545 10.3124 41.3545C9.4729 41.3545 8.84033 42.0314 8.84033 42.9292V48.5182C8.84033 49.416 9.4729 50.093 10.3124 50.093C10.6022 50.093 10.8995 50.0079 11.1724 49.8465L15.8709 47.0663C16.3804 46.7645 16.6848 46.2629 16.6848 45.7234ZM11.0791 47.3017V44.1457L13.7452 45.7234L11.0791 47.3017Z" fill="#EA8079"/>
<path d="M3.48735 42.1441H4.84926C5.09005 42.1441 5.28769 41.9472 5.28769 41.706V40.345C5.28769 40.1044 5.09063 39.9069 4.84926 39.9069H3.48735C3.24598 39.9069 3.04834 40.1038 3.04834 40.345V41.706C3.04834 41.9472 3.24598 42.1441 3.48735 42.1441Z" fill="#EA8079"/>
<path d="M3.48735 45.276H4.84926C5.09005 45.276 5.28769 45.0791 5.28769 44.8379V43.4769C5.28769 43.2363 5.09063 43.0388 4.84926 43.0388H3.48735C3.24598 43.0388 3.04834 43.2357 3.04834 43.4769V44.8379C3.04834 45.0791 3.24598 45.276 3.48735 45.276Z" fill="#EA8079"/>
<path d="M3.48735 48.4081H4.84926C5.09005 48.4081 5.28769 48.2112 5.28769 47.9706V46.609C5.28769 46.3678 5.09063 46.1709 4.84926 46.1709H3.48735C3.24598 46.1709 3.04834 46.3678 3.04834 46.609V47.9706C3.04834 48.2112 3.24598 48.4081 3.48735 48.4081Z" fill="#EA8079"/>
<path d="M3.48735 51.5402H4.84926C5.09005 51.5402 5.28769 51.3433 5.28769 51.1021V49.7411C5.28769 49.5005 5.09063 49.303 4.84926 49.303H3.48735C3.24598 49.303 3.04834 49.4999 3.04834 49.7411V51.1021C3.04834 51.3433 3.24598 51.5402 3.48735 51.5402Z" fill="#EA8079"/>
<path d="M20.5603 42.1445H21.9222C22.1635 42.1445 22.3606 41.947 22.3606 41.7063V40.3454C22.3606 40.1042 22.1635 39.9073 21.9222 39.9073H20.5603C20.3195 39.9073 20.1218 40.1042 20.1218 40.3454V41.7063C20.1218 41.947 20.3189 42.1445 20.5603 42.1445Z" fill="#EA8079"/>
<path d="M20.5603 45.276H21.9222C22.1635 45.276 22.3606 45.0791 22.3606 44.8379V43.4769C22.3606 43.2363 22.1635 43.0388 21.9222 43.0388H20.5603C20.3195 43.0388 20.1218 43.2363 20.1218 43.4769V44.8379C20.1218 45.0791 20.3189 45.276 20.5603 45.276Z" fill="#EA8079"/>
<path d="M20.5603 48.4081H21.9222C22.1635 48.4081 22.3606 48.2112 22.3606 47.97V46.609C22.3606 46.3678 22.1635 46.1709 21.9222 46.1709H20.5603C20.3195 46.1709 20.1218 46.3678 20.1218 46.609V47.97C20.1218 48.2112 20.3189 48.4081 20.5603 48.4081Z" fill="#EA8079"/>
<path d="M20.5603 51.5402H21.9222C22.1635 51.5402 22.3606 51.3433 22.3606 51.1021V49.7411C22.3606 49.4999 22.1635 49.303 21.9222 49.303H20.5603C20.3195 49.303 20.1218 49.4999 20.1218 49.7411V51.1021C20.1218 51.3433 20.3189 51.5402 20.5603 51.5402Z" fill="#EA8079"/>
<path d="M45.5296 61.5365H48.4295C49.4585 61.5365 50.2951 60.6999 50.2951 59.6721V59.2515H52.4896C52.9315 60.3229 53.9862 61.0791 55.2163 61.0791C56.8424 61.0791 58.1652 59.7572 58.1652 58.1329C58.1652 56.508 56.8424 55.1861 55.2163 55.1861C53.9868 55.1861 52.9315 55.9429 52.4896 57.0143H50.2951V56.5931C50.2951 55.5654 49.4585 54.7287 48.4295 54.7287H42.5207V53.6655H45.2288C46.2572 53.6655 47.0944 52.8294 47.0944 51.8011V49.4002H53.6201C56.1258 49.4002 58.1652 47.3634 58.1652 44.8594V38.7782C58.1652 38.16 57.6638 37.6596 57.0458 37.6596C56.4272 37.6596 55.9264 38.16 55.9264 38.7782V42.9858H45.4678C46.2047 42.261 46.8192 41.4121 47.2781 40.4747C47.5183 40.519 47.766 40.5429 48.0191 40.5429C50.2677 40.5429 52.0972 38.7147 52.0972 36.4682C52.0972 34.221 50.2677 32.3934 48.0191 32.3934C47.7655 32.3934 47.5177 32.4173 47.2775 32.4622C46.8933 31.6762 46.4006 30.952 45.8176 30.3118H55.9264V33.558C55.9264 34.1762 56.4272 34.6766 57.0458 34.6766C57.6638 34.6766 58.1652 34.1762 58.1652 33.558V28.4381C58.1652 25.9341 56.1258 23.8973 53.6201 23.8973H48.3531L47.2926 21.9333C46.8315 21.0781 45.7908 20.4576 44.8183 20.4576H42.8454V18.7931H45.4929C46.6671 18.7931 47.6226 17.8382 47.6226 16.6648V2.12826C47.6226 0.954307 46.6671 0 45.4929 0H32.585C31.4103 0 30.4553 0.954307 30.4553 2.12826V16.6648C30.4553 17.8382 31.4103 18.7931 32.585 18.7931H35.2319V20.4576H33.259C32.2871 20.4576 31.2464 21.0781 30.7841 21.9333L29.7236 23.8973H24.4573C21.9515 23.8973 19.9121 25.9341 19.9121 28.4381V36.9884H1.86563C0.837203 36.9884 0 37.8245 0 38.8528V52.5947C0 53.623 0.837203 54.459 1.86563 54.459H9.6873C10.3053 54.459 10.8067 53.9585 10.8067 53.3404C10.8067 52.7222 10.3053 52.2218 9.6873 52.2218H8.18372V39.2256H17.2256V52.2218H14.9111C14.2925 52.2218 13.7917 52.7222 13.7917 53.3404C13.7917 53.9585 14.2925 54.459 14.9111 54.459H23.5443C24.5727 54.459 25.4099 53.623 25.4099 52.5947V49.4002H30.9835V51.8011C30.9835 52.8294 31.8201 53.6655 32.8491 53.6655H35.5566V54.7287H29.6478C28.6188 54.7287 27.7822 55.5654 27.7822 56.5931V59.6721C27.7822 60.6999 28.6188 61.5365 29.6478 61.5365H32.2428L19.8439 73.9261C19.3764 74.3934 19.2283 74.9882 19.4475 75.5178C19.6673 76.0474 20.1926 76.3632 20.8537 76.3632H25.8291C26.5415 76.3632 27.391 76.0119 27.8947 75.5085L35.633 67.7756V74.4988C35.633 75.5271 36.4696 76.3632 37.4986 76.3632H40.5793C41.6083 76.3632 42.4449 75.5271 42.4449 74.4988V68.0803L49.8789 75.5085C50.3826 76.0119 51.2315 76.3632 51.9439 76.3632H56.9193C57.5804 76.3632 58.1063 76.0474 58.3255 75.5178C58.5447 74.9882 58.3967 74.3934 57.9297 73.9261L45.5296 61.5365ZM55.2163 57.4233C55.6075 57.4233 55.9264 57.7414 55.9264 58.1329C55.9264 58.5238 55.6075 58.8419 55.2163 58.8419C54.8246 58.8419 54.5062 58.5238 54.5062 58.1329C54.5062 57.7414 54.8246 57.4233 55.2163 57.4233ZM48.0185 34.6306C49.0329 34.6306 49.8579 35.455 49.8579 36.4676C49.8579 37.4813 49.0329 38.3057 48.0185 38.3057H48.0179C48.1398 37.7114 48.2039 37.0974 48.2039 36.4676C48.2039 35.8384 48.1386 35.2243 48.0167 34.6306H48.0185ZM5.94496 52.2218H2.23876V39.2256H5.94496V52.2218ZM45.9651 36.4682C45.9651 40.283 42.8583 43.3872 39.039 43.3872C35.2191 43.3872 32.1122 40.283 32.1122 36.4682C32.1122 32.6527 35.2191 29.5486 39.039 29.5486C42.8583 29.5486 45.9651 32.6527 45.9651 36.4682ZM32.6941 16.5559V2.2372H45.3839V16.5559H32.6941ZM40.6067 18.7931V20.4576H37.4707V18.7931H40.6067ZM24.4573 26.1345H30.3918C30.8034 26.1345 31.1817 25.909 31.377 25.5472L32.7541 22.996C32.8229 22.869 33.1156 22.6948 33.2596 22.6948H44.8183C44.9618 22.6948 45.2544 22.8684 45.3226 22.9954L46.7003 25.5472C46.8956 25.909 47.274 26.1345 47.6856 26.1345H53.6201C54.7674 26.1345 55.7195 26.9769 55.895 28.0746H42.6968C41.5751 27.5846 40.3385 27.3113 39.039 27.3113C37.7388 27.3113 36.5023 27.5846 35.3806 28.0746H22.1824C22.3579 26.9769 23.3099 26.1345 24.4573 26.1345ZM23.1712 52.2218H19.4644V39.2256H23.1712V52.2218ZM23.5443 36.9884H22.1515V30.3118H32.2597C30.7777 31.939 29.8735 34.0999 29.8735 36.4676C29.8735 39.0165 30.9217 41.3242 32.6095 42.9858H25.4099V38.8528C25.4099 37.8245 24.5727 36.9884 23.5443 36.9884ZM25.4099 47.163V45.223H36.3554C37.2042 45.4834 38.1056 45.6244 39.039 45.6244C39.9724 45.6244 40.8731 45.4834 41.722 45.223H55.8944C55.7189 46.3206 54.7674 47.163 53.6201 47.163H25.4099ZM33.2223 51.4283V49.4002H44.8557V51.4283H33.2223ZM35.633 64.6109L26.3118 73.9261C26.225 74.0095 25.9498 74.1236 25.8285 74.126H22.8103L35.4091 61.5365H35.633V64.6109ZM40.2056 74.126H37.8718V61.5365H40.2062V74.126H40.2056ZM30.0204 59.2993V56.9659H48.0564V59.2993H30.0204ZM51.9445 74.126C51.8232 74.1236 51.548 74.01 51.4612 73.9261L42.4449 64.9156V61.6169L54.9627 74.126H51.9445Z" fill="#EA8079"/>
<path d="M72.8807 9.62006C73.4993 9.62006 74.0001 9.11902 74.0001 8.50146V5.53424C74.0001 4.49779 73.1559 3.65417 72.1187 3.65417H52.3015C51.2638 3.65417 50.4202 4.49779 50.4202 5.53424V19.2447C50.4202 20.2812 51.2638 21.1248 52.3015 21.1248H72.1187C73.1559 21.1248 74.0001 20.2812 74.0001 19.2447V13.8708C74.0001 13.2526 73.4993 12.7522 72.8807 12.7522C72.2621 12.7522 71.7613 13.2526 71.7613 13.8708V16.6049L67.998 11.21C67.7175 10.808 67.2873 10.5773 66.8185 10.5773C66.3498 10.5773 65.9201 10.808 65.6391 11.2106L60.4923 18.5881L57.1942 13.8603C56.9137 13.4577 56.4835 13.227 56.0147 13.227C55.5454 13.227 55.1157 13.4577 54.8347 13.8603L52.6589 16.9795V5.89138H71.7613V8.50146C71.7613 9.11902 72.2627 9.62006 72.8807 9.62006ZM66.8185 13.4315L70.625 18.8876H63.0126L66.8185 13.4315ZM56.0142 16.0806L57.9725 18.8876H54.0564L56.0142 16.0806Z" fill="#EA8079"/>
<path d="M55.6018 9.64759C55.6018 11.3564 56.9929 12.7465 58.7028 12.7465C60.4128 12.7465 61.8039 11.3564 61.8039 9.64759C61.8039 7.9388 60.4128 6.54871 58.7028 6.54871C56.9929 6.54871 55.6018 7.9388 55.6018 9.64759ZM59.5651 9.64759C59.5651 10.123 59.1786 10.5093 58.7028 10.5093C58.2277 10.5093 57.8406 10.123 57.8406 9.64759C57.8406 9.17218 58.2277 8.78591 58.7028 8.78591C59.1786 8.78591 59.5651 9.17218 59.5651 9.64759Z" fill="#EA8079"/>
<path d="M43.8162 13.8545C43.8162 14.4721 43.3148 14.9731 42.6968 14.9731C42.0788 14.9731 41.5774 14.4721 41.5774 13.8545C41.5774 13.2364 42.0788 12.7359 42.6968 12.7359C43.3148 12.7359 43.8162 13.2364 43.8162 13.8545Z" fill="#EA8079"/>
<path d="M41.0732 13.8545C41.0732 14.4721 40.5718 14.9731 39.9539 14.9731C39.3353 14.9731 38.8345 14.4721 38.8345 13.8545C38.8345 13.2364 39.3353 12.7359 39.9539 12.7359C40.5718 12.7359 41.0732 13.2364 41.0732 13.8545Z" fill="#EA8079"/>
</svg>
