<svg width="74" height="74" viewBox="0 0 74 74" fill="none" xmlns="http://www.w3.org/2000/svg">
<path d="M71.6781 66.5691C70.3498 66.5691 67.7304 63.9496 67.7304 62.6213C67.7304 61.9801 67.2105 61.4603 66.5693 61.4603C65.928 61.4603 65.4083 61.9801 65.4083 62.6213C65.4083 63.9494 62.7888 66.5691 61.4606 66.5691C60.8193 66.5691 60.2996 67.0888 60.2996 67.7301C60.2996 68.3714 60.8194 68.8911 61.4606 68.8911C62.7888 68.8911 65.4083 71.5106 65.4083 72.8388C65.4083 73.4801 65.9282 73.9998 66.5693 73.9998C67.2106 73.9998 67.7304 73.4801 67.7304 72.8388C67.7304 71.5107 70.3498 68.8911 71.6781 68.8911C72.3194 68.8911 72.8391 68.3714 72.8391 67.7301C72.8393 67.0888 72.3194 66.5691 71.6781 66.5691ZM66.5693 69.8686C65.988 69.0628 65.2366 68.3114 64.4308 67.7301C65.2366 67.1488 65.988 66.3974 66.5693 65.5916C67.1506 66.3974 67.9021 67.1488 68.7078 67.7301C67.9019 68.3114 67.1506 69.0628 66.5693 69.8686Z" fill="#86D0CB"/>
<path d="M2.01258 17.0293C3.34082 17.0293 5.96031 19.6487 5.96031 20.977C5.96031 21.6183 6.48019 22.138 7.12133 22.138C7.76247 22.138 8.28235 21.6183 8.28235 20.977C8.28235 19.6489 10.9018 17.0293 12.2301 17.0293C12.8714 17.0293 13.3911 16.5095 13.3911 15.8682C13.3911 15.227 12.8712 14.7072 12.2301 14.7072C10.9018 14.7072 8.28235 12.0877 8.28235 10.7595C8.28235 10.1182 7.76247 9.59848 7.12133 9.59848C6.48019 9.59848 5.96031 10.1182 5.96031 10.7595C5.96031 12.0876 3.34082 14.7072 2.01258 14.7072C1.3713 14.7072 0.851562 15.227 0.851562 15.8682C0.851562 16.5095 1.3713 17.0293 2.01258 17.0293ZM7.12133 13.7298C7.70263 14.5355 8.45405 15.2869 9.25981 15.8682C8.45405 16.4496 7.70263 17.201 7.12133 18.0067C6.54002 17.201 5.78861 16.4496 4.98284 15.8682C5.78861 15.2869 6.54002 14.5355 7.12133 13.7298Z" fill="#86D0CB"/>
<path d="M12.5399 66.5691C11.2116 66.5691 8.59216 63.9496 8.59216 62.6213C8.59216 61.9801 8.07228 61.4603 7.43114 61.4603C6.79 61.4603 6.27012 61.9801 6.27012 62.6213C6.27012 63.9494 3.65064 66.5691 2.3224 66.5691C1.68111 66.5691 1.16138 67.0888 1.16138 67.7301C1.16138 68.3714 1.68126 68.8911 2.3224 68.8911C3.65064 68.8911 6.27012 71.5106 6.27012 72.8388C6.27012 73.4801 6.79 73.9998 7.43114 73.9998C8.07228 73.9998 8.59216 73.4801 8.59216 72.8388C8.59216 71.5107 11.2116 68.8911 12.5399 68.8911C13.1812 68.8911 13.7009 68.3714 13.7009 67.7301C13.7009 67.0888 13.181 66.5691 12.5399 66.5691ZM7.431 69.8686C6.84969 69.0628 6.09828 68.3114 5.29251 67.7301C6.09828 67.1488 6.84969 66.3974 7.431 65.5916C8.0123 66.3974 8.76372 67.1488 9.56934 67.7301C8.76372 68.3114 8.0123 69.0628 7.431 69.8686Z" fill="#86D0CB"/>
<path d="M61.7702 17.0293C63.0984 17.0293 65.7179 19.6487 65.7179 20.977C65.7179 21.6183 66.2378 22.138 66.8789 22.138C67.5201 22.138 68.0399 21.6183 68.0399 20.977C68.0399 19.6489 70.6594 17.0293 71.9877 17.0293C72.629 17.0293 73.1487 16.5095 73.1487 15.8682C73.1487 15.227 72.6288 14.7072 71.9877 14.7072C70.6594 14.7072 68.0399 12.0877 68.0399 10.7595C68.0399 10.1182 67.5201 9.59848 66.8789 9.59848C66.2378 9.59848 65.7179 10.1182 65.7179 10.7595C65.7179 12.0876 63.0984 14.7072 61.7702 14.7072C61.1289 14.7072 60.6091 15.227 60.6091 15.8682C60.6091 16.5095 61.1289 17.0293 61.7702 17.0293ZM66.8789 13.7298C67.4602 14.5355 68.2116 15.2869 69.0174 15.8682C68.2116 16.4496 67.4602 17.201 66.8789 18.0067C66.2976 17.201 65.5462 16.4496 64.7404 15.8682C65.5462 15.2869 66.2976 14.5355 66.8789 13.7298Z" fill="#86D0CB"/>
<path d="M65.7854 43.5208C65.8432 42.7773 65.8726 42.0158 65.8726 41.2573C65.8726 40.4988 65.8432 39.7373 65.7854 38.9939C65.7068 37.9805 65.5732 36.9618 65.3887 35.9659C65.2717 35.3351 64.6651 34.9177 64.0354 35.036C63.405 35.1529 62.9886 35.7588 63.1054 36.3892C63.1392 36.572 63.1698 36.7562 63.1999 36.9404C61.7143 36.2172 59.8575 35.5754 57.6473 35.0217C57.3166 31.968 56.7321 29.036 55.9305 26.3797C58.0131 27.4023 59.7385 28.5975 61.0016 29.8995C61.1759 30.2672 61.3448 30.6403 61.5015 31.0144C61.7492 31.6058 62.4295 31.8845 63.021 31.6367C63.6125 31.389 63.8912 30.7087 63.6435 30.1171C63.4391 29.6295 63.2185 29.141 62.9879 28.6657C60.166 22.8485 55.4085 18.0908 49.5915 15.2693C47.1358 14.0772 44.5502 13.249 41.8765 12.7948V8.51462H44.1212C46.4687 8.51462 48.3785 6.60479 48.3785 4.25731C48.3785 1.90984 46.469 0 44.1215 0H29.8788C27.5313 0 25.6215 1.90984 25.6215 4.25731C25.6215 6.60479 27.5313 8.51462 29.8788 8.51462H32.1235V12.7949C29.4498 13.2492 26.8642 14.0773 24.4087 15.2693C18.5916 18.091 13.8339 22.8487 11.0123 28.6656C9.43586 31.9128 8.49467 35.3876 8.21472 38.9937C8.1569 39.7371 8.12756 40.4987 8.12756 41.2572C8.12756 42.0157 8.1569 42.7772 8.21472 43.5205C8.30273 44.6542 8.45912 45.7921 8.67938 46.9027C8.78908 47.4554 9.27413 47.838 9.81699 47.838C9.89186 47.838 9.96788 47.8307 10.0442 47.8156C10.673 47.6908 11.0818 47.0798 10.9571 46.4506C10.8994 46.1604 10.8479 45.8677 10.7999 45.574C12.2856 46.2973 14.1424 46.9391 16.3525 47.4928C16.6832 50.5465 17.2677 53.4784 18.0693 56.1348C15.9864 55.1121 14.2606 53.9165 12.9975 52.6141C12.8448 52.2918 12.6959 51.9655 12.5569 51.6388C12.3058 51.0487 11.6241 50.7743 11.0338 51.025C10.4438 51.2761 10.1691 51.9581 10.4201 52.5481C10.6058 52.9844 10.8049 53.4219 11.012 53.8484C13.8338 59.6657 18.5913 64.4234 24.4083 67.2449C27.6559 68.8214 31.1309 69.7628 34.7363 70.0424C35.4789 70.1003 36.2405 70.1296 37 70.1296C37.7595 70.1296 38.521 70.1003 39.2633 70.0424C42.8691 69.7628 46.3439 68.8214 49.5914 67.245C55.4085 64.4234 60.1662 59.6657 62.9879 53.8487C64.5644 50.6018 65.5056 47.1269 65.7854 43.5208ZM48.3567 65.2602C46.1137 66.3238 43.7548 67.0596 41.3168 67.4576C42.0402 65.9719 42.6821 64.1149 43.2358 61.9046C46.2893 61.5739 49.2213 60.9894 51.8776 60.1879C50.8549 62.271 49.6592 63.9968 48.3567 65.2602ZM37.0001 59.9121C35.5298 59.9121 34.0708 59.8533 32.6466 59.7436C31.8843 56.1849 31.4613 52.4355 31.2277 49.5259C33.1985 49.6361 35.1708 49.6946 37.0001 49.6946C38.8296 49.6946 40.8019 49.6361 42.7726 49.5259C42.5392 52.4354 42.116 56.1849 41.3537 59.7436C39.9296 59.8533 38.4705 59.9121 37.0001 59.9121ZM25.6436 65.2602C24.3411 63.9968 23.1452 62.2708 22.1225 60.1879C24.7789 60.9894 27.711 61.5739 30.7643 61.9046C31.318 64.1148 31.96 65.9717 32.6834 67.4575C30.2456 67.0597 27.8867 66.3239 25.6436 65.2602ZM12.9973 29.9008C14.2605 28.5983 15.9864 27.4025 18.0694 26.3797C17.2679 29.0359 16.6834 31.9681 16.3527 35.0217C14.1424 35.5754 12.2854 36.2174 10.7997 36.9406C11.1978 34.5025 11.9336 32.1436 12.9973 29.9008ZM25.6436 17.2544C27.8866 16.1908 30.2455 15.455 32.6834 15.057C31.96 16.5428 31.3182 18.3997 30.7645 20.61C27.711 20.9407 24.7789 21.5252 22.1227 22.3268C23.1454 20.2436 24.3411 18.5178 25.6436 17.2544ZM48.3567 17.2544C49.6592 18.5178 50.855 20.2438 51.8777 22.3268C49.2214 21.5252 46.2893 20.9407 43.2358 20.61C42.6821 18.3998 42.0401 16.5429 41.3167 15.0571C43.7547 15.4549 46.1136 16.1907 48.3567 17.2544ZM63.5504 41.2573C63.5504 41.7528 63.5361 42.2492 63.5093 42.7403C62.2096 43.6041 60.3132 44.3743 57.8553 45.0394C57.9345 43.7959 57.9773 42.5305 57.9773 41.2573C57.9773 39.9841 57.9346 38.7188 57.8554 37.4752C60.3133 38.1403 62.2097 38.9107 63.5095 39.7743C63.5361 40.2654 63.5504 40.7619 63.5504 41.2573ZM43.7746 59.5042C44.4965 55.9079 44.8953 52.209 45.1141 49.3713C47.9524 49.1525 51.6511 48.7536 55.2471 48.0318C54.8295 51.3998 54.0907 54.5816 53.0844 57.3418C50.324 58.3478 47.1425 59.0865 43.7746 59.5042ZM18.5139 45.611C18.4042 44.1875 18.3453 42.7285 18.3453 41.2573C18.3453 39.7863 18.4042 38.3274 18.514 36.9037C22.0722 36.1416 25.8218 35.7184 28.7316 35.4849C28.6215 37.4556 28.563 39.4277 28.563 41.2575C28.563 43.0872 28.6215 45.0595 28.7316 47.03C25.8218 46.7962 22.0721 46.373 18.5139 45.611ZM30.2257 23.0104C29.5037 26.6068 29.1048 30.3056 28.8862 33.1433C26.0478 33.3621 22.3491 33.7611 18.7532 34.4828C19.1708 31.1148 19.9096 27.933 20.9158 25.1729C23.6762 24.1668 26.8578 23.4281 30.2257 23.0104ZM35.5172 14.7483C36.4977 14.6948 37.5024 14.6948 38.483 14.7483C39.3466 16.0482 40.1171 17.9446 40.7822 20.4023C39.5381 20.3231 38.2727 20.2805 37.0001 20.2805C35.7274 20.2805 34.462 20.3231 33.218 20.4023C33.8832 17.9444 34.6537 16.0482 35.5172 14.7483ZM55.4864 36.9036C55.5961 38.3271 55.6549 39.7861 55.6549 41.2573C55.6549 42.7283 55.5961 44.1872 55.4863 45.6109C51.928 46.373 48.1785 46.7962 45.2686 47.0297C45.3788 45.0591 45.4373 43.0869 45.4373 41.2572C45.4373 39.4274 45.3788 37.4551 45.2686 35.4846C48.1785 35.7184 51.9282 36.1416 55.4864 36.9036ZM37.0001 22.6025C38.4705 22.6025 39.9295 22.6613 41.3537 22.771C42.116 26.3298 42.539 30.0791 42.7726 32.9887C40.8017 32.8785 38.8295 32.82 37.0001 32.82C35.1707 32.82 33.1984 32.8785 31.2277 32.9887C31.4611 30.0793 31.8843 26.3297 32.6466 22.771C34.0706 22.6613 35.5298 22.6025 37.0001 22.6025ZM31.0663 47.1913C30.9477 45.1672 30.885 43.1346 30.885 41.2573C30.885 39.3801 30.9476 37.3479 31.0663 35.3233C33.0907 35.2048 35.1231 35.1422 37.0001 35.1422C38.8772 35.1422 40.9094 35.2048 42.934 35.3233C43.0525 37.3475 43.1152 39.38 43.1152 41.2573C43.1152 43.1345 43.0527 45.1667 42.934 47.1913C40.9096 47.3098 38.8772 47.3724 37.0001 47.3724C35.1231 47.3724 33.0909 47.3098 31.0663 47.1913ZM45.1141 33.1433C44.8954 30.3053 44.4965 26.6068 43.7746 23.0104C47.1425 23.4281 50.3243 24.1668 53.0844 25.173C54.0907 27.9333 54.8294 31.1147 55.2471 34.4828C51.6511 33.7611 47.9521 33.3621 45.1141 33.1433ZM10.4499 41.2573C10.4499 40.7619 10.4642 40.2654 10.4909 39.7743C11.7907 38.9106 13.6871 38.1403 16.145 37.4752C16.0658 38.7188 16.023 39.9841 16.023 41.2573C16.023 42.5305 16.0657 43.7959 16.1449 45.0394C13.687 44.3743 11.7906 43.6039 10.4908 42.7403C10.4642 42.2494 10.4499 41.7528 10.4499 41.2573ZM28.8862 49.3713C29.1048 52.2093 29.5037 55.9079 30.2257 59.5042C26.8578 59.0865 23.6759 58.3478 20.9158 57.3416C19.9096 54.5814 19.1709 51.3999 18.7532 48.0318C22.3491 48.7536 26.0481 49.1525 28.8862 49.3713ZM57.6474 47.493C59.8577 46.9393 61.7147 46.2973 63.2005 45.574C62.8024 48.0121 62.0666 50.371 61.003 52.614C59.7398 53.9165 58.0138 55.1122 55.9308 56.1351C56.7324 53.4787 57.3169 50.5465 57.6474 47.493ZM57.749 24.6976C56.8593 24.2257 55.9035 23.7843 54.8824 23.375C54.4732 22.3541 54.0318 21.398 53.5598 20.5083C55.106 21.745 56.5123 23.1514 57.749 24.6976ZM27.9437 4.25731C27.9437 3.19024 28.8117 2.32218 29.8788 2.32218H44.1215C45.1886 2.32218 46.0566 3.19024 46.0566 4.25731C46.0566 5.32439 45.1886 6.19244 44.1215 6.19244H29.8788C28.8117 6.19244 27.9437 5.32439 27.9437 4.25731ZM39.5546 8.51462V12.3849H34.4458V8.51462H39.5546ZM20.4405 20.5083C19.9684 21.398 19.5272 22.3539 19.1179 23.3749C18.0968 23.7842 17.141 24.2255 16.2512 24.6975C17.488 23.1514 18.8943 21.745 20.4405 20.5083ZM16.2512 57.817C17.141 58.2889 18.0968 58.7303 19.1179 59.1396C19.527 60.1605 19.9684 61.1166 20.4405 62.0064C18.8943 60.7696 17.488 59.3632 16.2512 57.817ZM35.5172 67.7664C34.6537 66.4664 33.8832 64.5701 33.218 62.1123C34.4622 62.1915 35.7275 62.2341 37.0001 62.2341C38.2729 62.2341 39.5382 62.1915 40.7822 62.1122C40.1171 64.5701 39.3467 66.4663 38.4832 67.7662C37.5025 67.82 36.498 67.82 35.5172 67.7664ZM53.5598 62.0064C54.0318 61.1166 54.4731 60.1607 54.8824 59.1397C55.9035 58.7304 56.8593 58.2892 57.749 57.8171C56.5123 59.3632 55.106 60.7696 53.5598 62.0064Z" fill="#86D0CB"/>
</svg>
