<svg width="79" height="72" viewBox="0 0 79 72" fill="none" xmlns="http://www.w3.org/2000/svg">
<path d="M74.8889 12.6167H58.087V7.48148V7.48142C58.0826 3.87575 55.1613 0.954465 51.5556 0.95H51.5556L28.2222 0.95L28.2222 0.95C24.6165 0.954465 21.6952 3.87575 21.6907 7.48142V7.48148V12.6167H4.88889C2.71365 12.6167 0.95 14.3803 0.95 16.5556L0.949999 45.4108L0.950001 45.4111C0.958275 47.0647 1.99295 48.537 3.54259 49.1056V67.1111C3.54259 69.2863 5.30624 71.05 7.48148 71.05H72.2963C74.4715 71.05 76.2352 69.2863 76.2352 67.1111V49.1069C77.7848 48.5377 78.8201 47.0647 78.8278 45.411V45.4108V16.5556C78.8278 14.3803 77.0641 12.6167 74.8889 12.6167ZM74.7042 46.6955L74.711 46.7451L74.7042 46.6955L45.1241 50.7747V48.963C45.1241 46.7877 43.3604 45.0241 41.1852 45.0241H38.5926C36.4174 45.0241 34.6537 46.7877 34.6537 48.963V50.7747L4.71545 46.6462C4.10022 46.5598 3.64198 46.0328 3.64259 45.4109V16.5556C3.64259 15.8673 4.20063 15.3093 4.88889 15.3093H74.8889C75.5772 15.3093 76.1352 15.8673 76.1352 16.5556V45.4108C76.1358 46.0322 75.6788 46.5592 75.0635 46.6462L74.7042 46.6955ZM24.3833 7.48148C24.3833 5.36147 26.1022 3.64259 28.2222 3.64259H51.5556C53.6756 3.64259 55.3944 5.36147 55.3944 7.48148V12.6167H52.9019V7.48148C52.9019 6.73799 52.299 6.13518 51.5556 6.13518H28.2222C27.4787 6.13518 26.8759 6.73799 26.8759 7.48148V12.6167H24.3833V7.48148ZM50.2093 12.6167H29.5685V8.82778H50.2093V12.6167ZM73.5426 67.1111C73.5426 67.7994 72.9846 68.3574 72.2963 68.3574H7.48148C6.79322 68.3574 6.23519 67.7994 6.23519 67.1111V49.5735L34.6537 53.4929V56.7407C34.6537 58.916 36.4174 60.6796 38.5926 60.6796H41.1852C43.3604 60.6796 45.1241 58.916 45.1241 56.7407V53.4929L73.5426 49.5735V67.1111ZM42.4315 56.7407C42.4315 57.429 41.8734 57.987 41.1852 57.987H38.5926C37.9043 57.987 37.3463 57.429 37.3463 56.7407V48.963C37.3463 48.2747 37.9043 47.7167 38.5926 47.7167H41.1852C41.8734 47.7167 42.4315 48.2747 42.4315 48.963V56.7407Z" fill="#84B8E2" stroke="#84B8E2" stroke-width="0.1"/>
</svg>
