<svg width="68" height="70" viewBox="0 0 68 70" fill="none" xmlns="http://www.w3.org/2000/svg">
<path d="M32.4663 26.56H34.7584H37.0506C37.0506 28.6767 34.7584 29.2001 34.7584 29.2001C34.7584 29.2001 32.4663 28.6767 32.4663 26.56ZM28.5398 16.2706C27.513 15.4244 27.3946 13.1311 27.3828 12.4487C27.3782 12.2009 27.4729 11.9613 27.6442 11.7847C27.8155 11.6081 28.0487 11.5082 28.2938 11.5082H33.7636C34.0296 11.5082 34.2811 11.6257 34.4551 11.831C34.4715 11.8504 34.4751 11.8763 34.4897 11.8966H35.1593C35.1739 11.8763 35.1775 11.8504 35.1939 11.831C35.3661 11.6266 35.6194 11.5082 35.8854 11.5082H41.3561C41.6012 11.5082 41.8344 11.6081 42.0066 11.7847C42.1778 11.9613 42.2717 12.2009 42.2671 12.4496C42.2544 13.1321 42.1359 15.4244 41.1101 16.2706C40.4642 16.8032 39.4602 17.1343 38.4909 17.1343C37.548 17.1343 36.7508 16.8254 36.2471 16.265C35.746 15.7083 35.4125 14.6264 35.2094 13.7461H34.4396C34.2364 14.6264 33.903 15.7083 33.401 16.265C32.8963 16.8254 32.1001 17.1343 31.1571 17.1343C30.1887 17.1343 29.1857 16.8032 28.5398 16.2706ZM36.9959 13.3568C37.1736 14.1086 37.405 14.8077 37.5935 15.0176C37.7411 15.1822 38.0855 15.2848 38.4909 15.2848C39.0357 15.2848 39.6406 15.0999 39.9604 14.8354C40.1207 14.681 40.2829 14.0633 40.374 13.3568H36.9959ZM29.2759 13.3568C29.367 14.0633 29.53 14.6828 29.6913 14.8372C30.2452 15.295 31.7083 15.4032 32.0563 15.0166C32.2458 14.8058 32.4763 14.1076 32.654 13.3568H29.2759ZM68 53.5334V59.5977C68 60.1082 67.5928 60.5225 67.089 60.5225L64.0352 60.5234V69.0753C64.0352 69.5857 63.628 70 63.1242 70C62.6204 70 62.2132 69.5857 62.2132 69.0753V60.5243L60.6334 60.5252V69.0753C60.6334 69.5857 60.2262 70 59.7224 70C59.2186 70 58.8114 69.5857 58.8114 69.0753V60.5252L9.18862 60.5465V69.0743C9.18862 69.5848 8.78139 69.9991 8.2776 69.9991C7.7738 69.9991 7.36657 69.5848 7.36657 69.0743V60.5474L5.78685 60.5484V69.0753C5.78685 69.5857 5.37962 70 4.87582 70C4.37202 70 3.96479 69.5857 3.96479 69.0753V60.5493L0.911027 60.5502C0.668694 60.5502 0.437293 60.4531 0.266931 60.2793C0.0965689 60.1054 0 59.8705 0 59.6255V53.5325C0 53.3438 0.0573948 53.1598 0.163074 53.0054L8.81783 40.3486C8.9882 40.0999 9.26697 39.951 9.56579 39.951H12.6788V19.6495C12.6788 13.3013 18.5522 10.9784 21.6579 10.6362C22.1498 10.5835 22.6053 10.9469 22.6609 11.4546C22.7165 11.9623 22.3548 12.4182 21.8555 12.4755C21.5549 12.5097 14.5008 13.3827 14.5008 19.6495V21.044H26.9728C26.2002 19.7623 25.629 18.2227 25.4086 16.3899C24.544 15.8739 22.9552 14.5534 23.0335 11.8569C23.0481 11.363 23.0909 9.86037 24.2115 9.43129C24.3627 9.37304 24.513 9.34807 24.6615 9.34067C25.4787 4.14 29.9172 0 34.8231 0C34.8249 0 34.8268 0 34.8268 0C39.7326 0 44.1703 4.14 44.9874 9.34159C45.1359 9.34807 45.2863 9.37303 45.4366 9.43037C46.5562 9.85944 46.6 11.3621 46.6155 11.8569C46.6929 14.5543 45.1041 15.8739 44.2404 16.3899C44.0199 18.2218 43.4496 19.7623 42.6762 21.044H55.2502V19.6495C55.2502 13.3827 48.1961 12.5088 47.8955 12.4755C47.3962 12.4182 47.0354 11.9623 47.0901 11.4546C47.1448 10.9469 47.5994 10.5835 48.0931 10.6362C51.1988 10.9774 57.0722 13.3004 57.0722 19.6495V36.9891H63.1269C63.4048 36.9891 63.6672 37.1176 63.8393 37.3377C64.0115 37.5578 64.0771 37.8463 64.0143 38.121L62.4591 44.9898L67.8406 53.0118C67.9453 53.1663 68 53.3475 68 53.5334ZM61.9836 38.8385H45.2097L43.2119 48.895H59.706L61.9836 38.8385ZM41.5237 48.035L42.2179 44.5376H37.7475L41.5237 48.035ZM55.2511 26.9308H47.5666C48.371 27.5199 49.1982 28.2421 49.9771 29.1178H55.2511V26.9308ZM51.3737 30.9673C51.7965 31.6303 52.1818 32.3581 52.5162 33.1542H55.252V30.9673H51.3737ZM55.2511 36.9891V35.0037H53.1575C53.3297 35.6288 53.4682 36.2918 53.5712 36.9891H55.2511ZM27.1723 15.7176C27.6907 21.9863 32.5519 24.0152 34.8249 24.0152C37.098 24.0152 41.9592 21.9872 42.4776 15.7176C42.5067 15.3616 42.7354 15.0536 43.0661 14.9288C43.1317 14.902 44.8599 14.1798 44.7934 11.9114C44.7852 11.6201 44.7579 11.4204 44.7296 11.29C44.6121 11.3695 44.4773 11.4823 44.3771 11.5887C44.0327 11.9576 43.4542 11.9743 43.0907 11.6257C42.7263 11.2761 42.7062 10.6945 43.0488 10.3227C43.088 10.2802 43.1663 10.2025 43.2629 10.1137C42.7928 5.55669 39.0093 1.84945 34.8268 1.84945C34.8258 1.84945 34.8258 1.84945 34.8249 1.84945H34.824C30.6406 1.84945 26.8571 5.55484 26.3861 10.1128C26.4827 10.2016 26.5619 10.2802 26.6011 10.3227C26.9445 10.6954 26.9245 11.2807 26.5574 11.6303C26.193 11.978 25.6154 11.9604 25.2701 11.5868C25.1726 11.4823 25.0369 11.3704 24.9202 11.2909C24.892 11.4222 24.8638 11.6201 24.8565 11.9123C24.79 14.1807 26.5182 14.9029 26.592 14.9334C26.9136 15.061 27.1441 15.368 27.1723 15.7176ZM14.5017 22.8935V25.0805H25.4751C26.1091 24.7596 26.51 24.6088 26.53 24.6014C26.5419 24.5977 26.5537 24.6005 26.5647 24.5968L26.5355 24.0466C26.5082 23.5362 26.8926 23.1006 27.3946 23.0729C27.8884 23.0414 28.3266 23.4354 28.3539 23.9458L28.5407 27.4061L30.6087 26.4213C31.0669 26.204 31.6072 26.4037 31.8204 26.8652C32.0336 27.3275 31.8386 27.8778 31.3831 28.0951L28.0924 29.6625C27.9695 29.7207 27.8374 29.7503 27.7053 29.7503C27.5431 29.7503 27.3818 29.7069 27.2379 29.619C26.9773 29.4618 26.8115 29.1825 26.7961 28.8755L26.6703 26.5397C24.79 27.3784 18.052 31.0015 17.6129 39.9519H23.0326V38.3808C23.0326 37.8704 23.4398 37.4561 23.9436 37.4561C24.4474 37.4561 24.8547 37.8704 24.8547 38.3808V39.9519H31.4988C31.927 37.4283 33.2279 29.57 33.3536 29.3795C34.1098 29.9149 34.7603 29.988 34.7603 29.988C34.7603 29.988 35.4107 29.9149 36.1669 29.3795C36.2926 29.57 37.5936 37.4283 38.0217 39.9519H43.1317L43.5726 37.7307C43.6564 37.2989 44.03 36.9891 44.4636 36.9891H51.7063C50.4591 29.5765 44.4727 27.0362 42.8766 26.4916L42.7481 28.8755C42.7317 29.1825 42.5668 29.4609 42.3063 29.619C42.1633 29.7059 42.0011 29.7503 41.8389 29.7503C41.7068 29.7503 41.5747 29.7217 41.4518 29.6625L38.1611 28.0951C37.7056 27.8778 37.5097 27.3275 37.7238 26.8652C37.937 26.4028 38.4763 26.2031 38.9355 26.4213L41.0044 27.4061L41.1912 23.9458C41.2176 23.4354 41.6458 23.0433 42.1505 23.0729C42.6534 23.1006 43.0378 23.5371 43.0096 24.0466L42.9805 24.5894C43.1317 24.632 43.6264 24.7827 44.3251 25.0805H55.2529V22.8935H41.2695C39.3245 24.9112 36.8119 25.8637 34.8258 25.8637C32.8398 25.8637 30.3272 24.9103 28.3822 22.8935H14.5017ZM22.5552 26.9308H14.5008V29.1178H20.1747C20.9637 28.2523 21.7799 27.5273 22.5552 26.9308ZM14.5017 33.1542H17.4444C17.8243 32.3627 18.2515 31.6349 18.7089 30.9673H14.5017V33.1542ZM14.5017 39.9519H15.7908C15.8737 38.1108 16.2017 36.4657 16.6964 35.0028H14.5017V39.9519ZM2.65291 52.6087H65.3671L61.9043 47.4468L61.3203 50.0277C61.2256 50.4476 60.8566 50.7453 60.4321 50.7453H42.0995C41.9765 50.7453 41.8553 50.7139 41.7405 50.663C41.7023 50.6464 41.6722 50.6196 41.6358 50.5974C41.5848 50.5659 41.5301 50.5456 41.4855 50.5031L34.7849 44.2972C34.507 44.0401 34.4132 43.636 34.5489 43.28C34.6846 42.924 35.0226 42.6891 35.3989 42.6891H42.5869L42.7627 41.8023H10.0432L2.65291 52.6087ZM66.1779 58.673V54.4581H1.82297V58.7008L4.87582 58.6998L66.1779 58.673Z" fill="#68BFB7"/>
</svg>
