<svg width="70" height="70" viewBox="0 0 70 70" fill="none" xmlns="http://www.w3.org/2000/svg">
<mask id="path-1-inside-1" fill="white">
<path d="M8.52925 36.288C8.54573 35.7419 8.59622 34.0807 9.88622 33.6093C11.1597 33.1459 12.4095 34.3508 12.6465 34.5959C13.035 34.9985 13.0133 35.6293 12.5981 36.005C12.1829 36.3807 11.5307 36.3598 11.1412 35.9582C11.0103 35.8246 10.8269 35.6831 10.6775 35.5924C10.6394 35.7399 10.5992 35.9781 10.5889 36.3468C10.5116 38.9109 12.5631 39.7271 12.6496 39.76C13.0144 39.8995 13.274 40.2293 13.307 40.607C13.917 47.6426 19.6457 49.9187 22.3246 49.9187C25.0035 49.9187 30.7333 47.6426 31.3433 40.607C31.3763 40.2234 31.6359 39.8915 32.0089 39.757C32.0872 39.7271 34.1386 38.9109 34.0613 36.3468C34.05 35.9781 34.0098 35.7399 33.9727 35.5924C33.8223 35.6841 33.6389 35.8256 33.506 35.9612C33.1145 36.3598 32.4633 36.3777 32.0501 36.002C31.6369 35.6263 31.6153 34.9985 32.0027 34.5979C32.2407 34.3517 33.4916 33.1449 34.763 33.6113C36.053 34.0827 36.1035 35.7439 36.12 36.29C36.2117 39.3036 34.3385 40.7695 33.336 41.3355C32.4241 48.6252 26.4161 51.9138 22.3236 51.9138C18.231 51.9138 12.2231 48.6262 11.3112 41.3355C10.3107 40.7675 8.43755 39.3016 8.52925 36.288ZM22.3256 56.7351C22.6451 56.7351 25.2457 56.1112 25.2457 53.592H22.3256H19.4056C19.4046 56.1112 22.0062 56.7351 22.3256 56.7351ZM24.1988 57.1018C23.9309 57.0559 23.6527 57.1097 23.4261 57.2582C22.949 57.5741 22.5214 57.7017 22.3256 57.7475C22.1237 57.7007 21.6982 57.5721 21.2221 57.2582C20.9965 57.1097 20.7193 57.0549 20.4494 57.1018C20.1805 57.1506 19.9435 57.3011 19.7889 57.5193C19.3696 58.1143 17.3532 68.2162 17.3357 68.3148C17.2357 68.857 17.6097 69.3742 18.1702 69.4698C18.7359 69.5685 19.2655 69.2048 19.3644 68.6626C19.7075 66.7911 20.7884 61.7805 21.318 59.5313C21.8064 59.7027 22.1515 59.7446 22.2123 59.7516C22.2855 59.7596 22.3617 59.7596 22.4349 59.7516C22.4957 59.7456 22.8408 59.7037 23.3292 59.5313C23.8588 61.7805 24.9396 66.7911 25.2838 68.6626C25.3724 69.146 25.8062 69.4848 26.2966 69.4848C26.3564 69.4848 26.4172 69.4798 26.478 69.4688C27.0385 69.3732 27.4115 68.856 27.3125 68.3139C27.294 68.2152 25.2786 58.1133 24.8583 57.5183C24.7058 57.3011 24.4677 57.1506 24.1988 57.1018ZM9.55651 65.3472C8.98775 65.3472 8.52616 65.7936 8.52616 66.3437V68.4883C8.52616 69.0383 8.98775 69.4848 9.55651 69.4848C10.1253 69.4848 10.5869 69.0383 10.5869 68.4883V66.3437C10.5869 65.7936 10.1253 65.3472 9.55651 65.3472ZM13.309 27.8324C12.3673 28.9296 11.7604 30.3028 11.5513 31.8076C11.4761 32.3527 11.8717 32.854 12.4353 32.9277C12.4817 32.9337 12.528 32.9367 12.5734 32.9367C13.0813 32.9367 13.5234 32.5729 13.5934 32.0727C13.75 30.9406 14.2003 29.9142 14.8948 29.106C15.2585 28.6824 15.1977 28.0546 14.7598 27.7028C14.3229 27.3511 13.6728 27.4089 13.309 27.8324ZM30.4654 32.9287C30.4654 33.4788 30.927 33.9252 31.4958 33.9252C32.0645 33.9252 32.5261 33.4788 32.5261 32.9287C32.5261 27.2016 28.1121 25.632 25.7639 25.6011H16.364C15.7953 25.6011 15.3337 26.0476 15.3337 26.5977C15.3337 27.1478 15.7953 27.5942 16.364 27.5942H25.7444C26.2286 27.6052 30.4654 27.8483 30.4654 32.9287ZM33.8913 30.7064C33.9315 30.7064 33.9717 30.7044 34.0129 30.6994C34.5776 30.6357 34.9825 30.1404 34.9165 29.5943C34.2262 23.8861 29.1569 22.4271 26.5573 22.4909H17.6932C17.1244 22.4909 16.6628 22.9374 16.6628 23.4875C16.6628 24.0376 17.1244 24.484 17.6932 24.484H26.5697C26.7994 24.493 32.2253 24.496 32.8703 29.8265C32.9311 30.3327 33.3762 30.7064 33.8913 30.7064ZM68.9717 0H1.22612C0.657364 0 0.195767 0.44645 0.195767 0.996541V52.9602C0.195767 53.5102 0.657364 53.9567 1.22612 53.9567H7.48756C3.89782 56.5407 0 61.0541 0 68.4892C0 69.0393 0.461597 69.4858 1.03035 69.4858C1.59911 69.4858 2.0607 69.0393 2.0607 68.4892C2.0607 58.4461 9.81307 54.438 12.8031 53.2661L12.9412 55.7146C12.9598 56.0454 13.1473 56.3454 13.4409 56.5158C13.6037 56.6095 13.7861 56.6573 13.9695 56.6573C14.1189 56.6573 14.2683 56.6264 14.4074 56.5626L17.8426 55.0031C18.3578 54.7689 18.5793 54.1759 18.3372 53.6777C18.095 53.1784 17.4799 52.9661 16.9668 53.1993L14.9143 54.1311L14.6928 50.2067C14.6619 49.6566 14.1715 49.2411 13.6078 49.266C13.0401 49.2959 12.6043 49.7652 12.6352 50.3153L12.6847 51.1863C12.2365 51.3497 11.5976 51.6039 10.8393 51.9676C10.8331 51.9676 10.8269 51.9636 10.8207 51.9636H2.25647V1.99308H67.9414V51.9636H49.8381C53.1259 45.1991 52.4335 37.0753 52.3954 36.6577C52.348 36.1435 51.9029 35.7499 51.3692 35.7499H46.303C45.7342 35.7499 45.2726 36.1964 45.2726 36.7464C45.2726 41.8418 43.8662 45.5449 41.0914 47.7522C37.8695 50.3153 33.5843 50.2137 31.8482 50.0443C31.7482 49.6217 31.3866 49.2909 30.9167 49.266C30.3521 49.2371 29.8627 49.6566 29.8318 50.2067L29.6092 54.1311L27.7237 53.2751C27.2085 53.0419 26.5954 53.2541 26.3533 53.7534C26.1112 54.2517 26.3327 54.8446 26.8479 55.0788L30.1161 56.5626C30.2552 56.6254 30.4046 56.6573 30.554 56.6573C30.7374 56.6573 30.9198 56.6105 31.0826 56.5158C31.3763 56.3464 31.5638 56.0454 31.5823 55.7146L31.7905 52.0473C33.9233 52.2446 38.6485 52.2666 42.3856 49.3028C45.4756 46.8534 47.1314 42.9668 47.3158 37.743H50.3904C50.4893 40.625 50.3656 49.6746 45.3664 54.9542C42.8451 57.617 39.3883 58.9663 35.0927 58.9663C34.524 58.9663 34.0624 59.4128 34.0624 59.9628C34.0624 60.5129 34.524 60.9594 35.0927 60.9594C39.9931 60.9594 43.963 59.3898 46.8913 56.2946C47.5796 55.5661 48.1813 54.7798 48.7129 53.9567H53.772V69.0035C53.772 69.5536 54.2336 70 54.8023 70C55.3711 70 55.8327 69.5536 55.8327 69.0035V53.9567H58.4085V69.0035C58.4085 69.5536 58.8701 70 59.4389 70C60.0077 70 60.4692 69.5536 60.4692 69.0035V53.9567H68.9696C69.5384 53.9567 70 53.5102 70 52.9602V0.996541C70.0021 0.44645 69.5405 0 68.9717 0ZM35.0948 62.229C34.526 62.229 34.0644 62.6754 34.0644 63.2255V68.4883C34.0644 69.0383 34.526 69.4848 35.0948 69.4848C35.6635 69.4848 36.1251 69.0383 36.1251 68.4883V63.2255C36.1251 62.6754 35.6635 62.229 35.0948 62.229ZM30.8611 8.17861C31.4298 8.17861 31.8914 7.73216 31.8914 7.18207C31.8914 6.63198 31.4298 6.18553 30.8611 6.18553H12.493C11.9243 6.18553 11.4627 6.63198 11.4627 7.18207C11.4627 7.73216 11.9243 8.17861 12.493 8.17861H30.8611ZM7.06409 11.1274C7.06409 11.6775 7.52569 12.1239 8.09444 12.1239H30.8611C31.4298 12.1239 31.8914 11.6775 31.8914 11.1274C31.8914 10.5773 31.4298 10.1308 30.8611 10.1308H8.09444C7.52569 10.1308 7.06409 10.5773 7.06409 11.1274ZM8.09444 16.0692H30.8611C31.4298 16.0692 31.8914 15.6228 31.8914 15.0727C31.8914 14.5226 31.4298 14.0761 30.8611 14.0761H8.09444C7.52569 14.0761 7.06409 14.5226 7.06409 15.0727C7.06409 15.6228 7.52569 16.0692 8.09444 16.0692ZM8.09444 20.0145H30.8611C31.4298 20.0145 31.8914 19.5681 31.8914 19.018C31.8914 18.4679 31.4298 18.0214 30.8611 18.0214H8.09444C7.52569 18.0214 7.06409 18.4679 7.06409 19.018C7.06409 19.5681 7.52569 20.0145 8.09444 20.0145ZM65.6014 8.98282C66.0352 8.62805 66.0898 7.99923 65.722 7.57869C65.3552 7.15915 64.705 7.10533 64.2702 7.4621L53.1094 16.5954L47.2694 10.67C46.9253 10.2514 46.2988 10.1727 45.8527 10.4866L38.8484 16.1768C38.3899 16.5027 38.2909 17.1265 38.6279 17.57C38.9638 18.0125 39.6088 18.1091 40.0683 17.7833L46.2741 12.6601L52.1584 18.6393C52.3315 18.8496 52.5871 18.9841 52.8642 19.011C52.8982 19.014 52.9312 19.016 52.9652 19.016C53.2073 19.016 53.4443 18.9333 53.6308 18.7798L65.6014 8.98282ZM47.6723 19.0618L47.3415 26.2967C47.8248 26.2449 48.2534 26.2439 48.5357 26.2439C49.6506 26.2439 53.0425 26.2439 53.0425 29.4538V30.829C53.0425 33.2326 51.0209 35.1879 48.5357 35.1879C46.0505 35.1879 44.029 33.2326 44.029 30.829V29.4538C44.029 28.1991 44.5493 27.4387 45.2479 26.9734L45.6136 18.9741C45.6394 18.424 46.1597 18.0085 46.6883 18.0224C47.256 18.0473 47.697 18.5127 47.6723 19.0618ZM48.5357 28.237C46.0897 28.237 46.0897 28.8837 46.0897 29.4538V30.829C46.0897 32.1335 47.187 33.1948 48.5357 33.1948C49.8844 33.1948 50.9818 32.1335 50.9818 30.829V29.4538C50.9818 28.8837 50.9818 28.237 48.5357 28.237ZM22.4431 36.7464V41.7929H21.1778C20.6091 41.7929 20.1475 42.2394 20.1475 42.7895C20.1475 43.3396 20.6091 43.786 21.1778 43.786H23.4735C24.0422 43.786 24.5038 43.3396 24.5038 42.7895V36.7464C24.5038 36.1964 24.0422 35.7499 23.4735 35.7499C22.9047 35.7499 22.4431 36.1954 22.4431 36.7464Z"/>
</mask>
<path d="M8.52925 36.288C8.54573 35.7419 8.59622 34.0807 9.88622 33.6093C11.1597 33.1459 12.4095 34.3508 12.6465 34.5959C13.035 34.9985 13.0133 35.6293 12.5981 36.005C12.1829 36.3807 11.5307 36.3598 11.1412 35.9582C11.0103 35.8246 10.8269 35.6831 10.6775 35.5924C10.6394 35.7399 10.5992 35.9781 10.5889 36.3468C10.5116 38.9109 12.5631 39.7271 12.6496 39.76C13.0144 39.8995 13.274 40.2293 13.307 40.607C13.917 47.6426 19.6457 49.9187 22.3246 49.9187C25.0035 49.9187 30.7333 47.6426 31.3433 40.607C31.3763 40.2234 31.6359 39.8915 32.0089 39.757C32.0872 39.7271 34.1386 38.9109 34.0613 36.3468C34.05 35.9781 34.0098 35.7399 33.9727 35.5924C33.8223 35.6841 33.6389 35.8256 33.506 35.9612C33.1145 36.3598 32.4633 36.3777 32.0501 36.002C31.6369 35.6263 31.6153 34.9985 32.0027 34.5979C32.2407 34.3517 33.4916 33.1449 34.763 33.6113C36.053 34.0827 36.1035 35.7439 36.12 36.29C36.2117 39.3036 34.3385 40.7695 33.336 41.3355C32.4241 48.6252 26.4161 51.9138 22.3236 51.9138C18.231 51.9138 12.2231 48.6262 11.3112 41.3355C10.3107 40.7675 8.43755 39.3016 8.52925 36.288ZM22.3256 56.7351C22.6451 56.7351 25.2457 56.1112 25.2457 53.592H22.3256H19.4056C19.4046 56.1112 22.0062 56.7351 22.3256 56.7351ZM24.1988 57.1018C23.9309 57.0559 23.6527 57.1097 23.4261 57.2582C22.949 57.5741 22.5214 57.7017 22.3256 57.7475C22.1237 57.7007 21.6982 57.5721 21.2221 57.2582C20.9965 57.1097 20.7193 57.0549 20.4494 57.1018C20.1805 57.1506 19.9435 57.3011 19.7889 57.5193C19.3696 58.1143 17.3532 68.2162 17.3357 68.3148C17.2357 68.857 17.6097 69.3742 18.1702 69.4698C18.7359 69.5685 19.2655 69.2048 19.3644 68.6626C19.7075 66.7911 20.7884 61.7805 21.318 59.5313C21.8064 59.7027 22.1515 59.7446 22.2123 59.7516C22.2855 59.7596 22.3617 59.7596 22.4349 59.7516C22.4957 59.7456 22.8408 59.7037 23.3292 59.5313C23.8588 61.7805 24.9396 66.7911 25.2838 68.6626C25.3724 69.146 25.8062 69.4848 26.2966 69.4848C26.3564 69.4848 26.4172 69.4798 26.478 69.4688C27.0385 69.3732 27.4115 68.856 27.3125 68.3139C27.294 68.2152 25.2786 58.1133 24.8583 57.5183C24.7058 57.3011 24.4677 57.1506 24.1988 57.1018ZM9.55651 65.3472C8.98775 65.3472 8.52616 65.7936 8.52616 66.3437V68.4883C8.52616 69.0383 8.98775 69.4848 9.55651 69.4848C10.1253 69.4848 10.5869 69.0383 10.5869 68.4883V66.3437C10.5869 65.7936 10.1253 65.3472 9.55651 65.3472ZM13.309 27.8324C12.3673 28.9296 11.7604 30.3028 11.5513 31.8076C11.4761 32.3527 11.8717 32.854 12.4353 32.9277C12.4817 32.9337 12.528 32.9367 12.5734 32.9367C13.0813 32.9367 13.5234 32.5729 13.5934 32.0727C13.75 30.9406 14.2003 29.9142 14.8948 29.106C15.2585 28.6824 15.1977 28.0546 14.7598 27.7028C14.3229 27.3511 13.6728 27.4089 13.309 27.8324ZM30.4654 32.9287C30.4654 33.4788 30.927 33.9252 31.4958 33.9252C32.0645 33.9252 32.5261 33.4788 32.5261 32.9287C32.5261 27.2016 28.1121 25.632 25.7639 25.6011H16.364C15.7953 25.6011 15.3337 26.0476 15.3337 26.5977C15.3337 27.1478 15.7953 27.5942 16.364 27.5942H25.7444C26.2286 27.6052 30.4654 27.8483 30.4654 32.9287ZM33.8913 30.7064C33.9315 30.7064 33.9717 30.7044 34.0129 30.6994C34.5776 30.6357 34.9825 30.1404 34.9165 29.5943C34.2262 23.8861 29.1569 22.4271 26.5573 22.4909H17.6932C17.1244 22.4909 16.6628 22.9374 16.6628 23.4875C16.6628 24.0376 17.1244 24.484 17.6932 24.484H26.5697C26.7994 24.493 32.2253 24.496 32.8703 29.8265C32.9311 30.3327 33.3762 30.7064 33.8913 30.7064ZM68.9717 0H1.22612C0.657364 0 0.195767 0.44645 0.195767 0.996541V52.9602C0.195767 53.5102 0.657364 53.9567 1.22612 53.9567H7.48756C3.89782 56.5407 0 61.0541 0 68.4892C0 69.0393 0.461597 69.4858 1.03035 69.4858C1.59911 69.4858 2.0607 69.0393 2.0607 68.4892C2.0607 58.4461 9.81307 54.438 12.8031 53.2661L12.9412 55.7146C12.9598 56.0454 13.1473 56.3454 13.4409 56.5158C13.6037 56.6095 13.7861 56.6573 13.9695 56.6573C14.1189 56.6573 14.2683 56.6264 14.4074 56.5626L17.8426 55.0031C18.3578 54.7689 18.5793 54.1759 18.3372 53.6777C18.095 53.1784 17.4799 52.9661 16.9668 53.1993L14.9143 54.1311L14.6928 50.2067C14.6619 49.6566 14.1715 49.2411 13.6078 49.266C13.0401 49.2959 12.6043 49.7652 12.6352 50.3153L12.6847 51.1863C12.2365 51.3497 11.5976 51.6039 10.8393 51.9676C10.8331 51.9676 10.8269 51.9636 10.8207 51.9636H2.25647V1.99308H67.9414V51.9636H49.8381C53.1259 45.1991 52.4335 37.0753 52.3954 36.6577C52.348 36.1435 51.9029 35.7499 51.3692 35.7499H46.303C45.7342 35.7499 45.2726 36.1964 45.2726 36.7464C45.2726 41.8418 43.8662 45.5449 41.0914 47.7522C37.8695 50.3153 33.5843 50.2137 31.8482 50.0443C31.7482 49.6217 31.3866 49.2909 30.9167 49.266C30.3521 49.2371 29.8627 49.6566 29.8318 50.2067L29.6092 54.1311L27.7237 53.2751C27.2085 53.0419 26.5954 53.2541 26.3533 53.7534C26.1112 54.2517 26.3327 54.8446 26.8479 55.0788L30.1161 56.5626C30.2552 56.6254 30.4046 56.6573 30.554 56.6573C30.7374 56.6573 30.9198 56.6105 31.0826 56.5158C31.3763 56.3464 31.5638 56.0454 31.5823 55.7146L31.7905 52.0473C33.9233 52.2446 38.6485 52.2666 42.3856 49.3028C45.4756 46.8534 47.1314 42.9668 47.3158 37.743H50.3904C50.4893 40.625 50.3656 49.6746 45.3664 54.9542C42.8451 57.617 39.3883 58.9663 35.0927 58.9663C34.524 58.9663 34.0624 59.4128 34.0624 59.9628C34.0624 60.5129 34.524 60.9594 35.0927 60.9594C39.9931 60.9594 43.963 59.3898 46.8913 56.2946C47.5796 55.5661 48.1813 54.7798 48.7129 53.9567H53.772V69.0035C53.772 69.5536 54.2336 70 54.8023 70C55.3711 70 55.8327 69.5536 55.8327 69.0035V53.9567H58.4085V69.0035C58.4085 69.5536 58.8701 70 59.4389 70C60.0077 70 60.4692 69.5536 60.4692 69.0035V53.9567H68.9696C69.5384 53.9567 70 53.5102 70 52.9602V0.996541C70.0021 0.44645 69.5405 0 68.9717 0ZM35.0948 62.229C34.526 62.229 34.0644 62.6754 34.0644 63.2255V68.4883C34.0644 69.0383 34.526 69.4848 35.0948 69.4848C35.6635 69.4848 36.1251 69.0383 36.1251 68.4883V63.2255C36.1251 62.6754 35.6635 62.229 35.0948 62.229ZM30.8611 8.17861C31.4298 8.17861 31.8914 7.73216 31.8914 7.18207C31.8914 6.63198 31.4298 6.18553 30.8611 6.18553H12.493C11.9243 6.18553 11.4627 6.63198 11.4627 7.18207C11.4627 7.73216 11.9243 8.17861 12.493 8.17861H30.8611ZM7.06409 11.1274C7.06409 11.6775 7.52569 12.1239 8.09444 12.1239H30.8611C31.4298 12.1239 31.8914 11.6775 31.8914 11.1274C31.8914 10.5773 31.4298 10.1308 30.8611 10.1308H8.09444C7.52569 10.1308 7.06409 10.5773 7.06409 11.1274ZM8.09444 16.0692H30.8611C31.4298 16.0692 31.8914 15.6228 31.8914 15.0727C31.8914 14.5226 31.4298 14.0761 30.8611 14.0761H8.09444C7.52569 14.0761 7.06409 14.5226 7.06409 15.0727C7.06409 15.6228 7.52569 16.0692 8.09444 16.0692ZM8.09444 20.0145H30.8611C31.4298 20.0145 31.8914 19.5681 31.8914 19.018C31.8914 18.4679 31.4298 18.0214 30.8611 18.0214H8.09444C7.52569 18.0214 7.06409 18.4679 7.06409 19.018C7.06409 19.5681 7.52569 20.0145 8.09444 20.0145ZM65.6014 8.98282C66.0352 8.62805 66.0898 7.99923 65.722 7.57869C65.3552 7.15915 64.705 7.10533 64.2702 7.4621L53.1094 16.5954L47.2694 10.67C46.9253 10.2514 46.2988 10.1727 45.8527 10.4866L38.8484 16.1768C38.3899 16.5027 38.2909 17.1265 38.6279 17.57C38.9638 18.0125 39.6088 18.1091 40.0683 17.7833L46.2741 12.6601L52.1584 18.6393C52.3315 18.8496 52.5871 18.9841 52.8642 19.011C52.8982 19.014 52.9312 19.016 52.9652 19.016C53.2073 19.016 53.4443 18.9333 53.6308 18.7798L65.6014 8.98282ZM47.6723 19.0618L47.3415 26.2967C47.8248 26.2449 48.2534 26.2439 48.5357 26.2439C49.6506 26.2439 53.0425 26.2439 53.0425 29.4538V30.829C53.0425 33.2326 51.0209 35.1879 48.5357 35.1879C46.0505 35.1879 44.029 33.2326 44.029 30.829V29.4538C44.029 28.1991 44.5493 27.4387 45.2479 26.9734L45.6136 18.9741C45.6394 18.424 46.1597 18.0085 46.6883 18.0224C47.256 18.0473 47.697 18.5127 47.6723 19.0618ZM48.5357 28.237C46.0897 28.237 46.0897 28.8837 46.0897 29.4538V30.829C46.0897 32.1335 47.187 33.1948 48.5357 33.1948C49.8844 33.1948 50.9818 32.1335 50.9818 30.829V29.4538C50.9818 28.8837 50.9818 28.237 48.5357 28.237ZM22.4431 36.7464V41.7929H21.1778C20.6091 41.7929 20.1475 42.2394 20.1475 42.7895C20.1475 43.3396 20.6091 43.786 21.1778 43.786H23.4735C24.0422 43.786 24.5038 43.3396 24.5038 42.7895V36.7464C24.5038 36.1964 24.0422 35.7499 23.4735 35.7499C22.9047 35.7499 22.4431 36.1954 22.4431 36.7464Z" fill="#68BFB7" stroke="#68BFB7" stroke-width="0.4" mask="url(#path-1-inside-1)"/>
</svg>
