<?xml version="1.0" encoding="utf-8"?>
<!-- Generator: Adobe Illustrator 19.2.1, SVG Export Plug-In . SVG Version: 6.00 Build 0)  -->
<svg version="1.1" id="Layer_1" xmlns="http://www.w3.org/2000/svg" xmlns:xlink="http://www.w3.org/1999/xlink" x="0px" y="0px"
	 viewBox="0 0 88.5 72.5" style="enable-background:new 0 0 88.5 72.5;" xml:space="preserve">
<style type="text/css">
	.st0{fill:#E2645A;}
	.st1{fill:#FFFFFF;filter:url(#Adobe_OpacityMaskFilter);}
	.st2{mask:url(#path-1-inside-1);fill:#FCFCFC;stroke:#FFFFFF;}
	.st3{fill:none;stroke:#E2645A;stroke-width:5;}
	.st4{fill:none;stroke:#E2645A;stroke-width:5;stroke-linecap:round;}
</style>
<path class="st0" d="M64.8,19.9h10.3v24.9c2.9,0,5.6,0.8,8,2.2V15.9c0-2.2-1.8-4-4-4H64.8c-1.1,0-2.2-0.5-2.9-1.3l-8.6-9.3
	C52.6,0.5,51.5,0,50.4,0H34.1c-1.2,0-2.3,0.5-3.1,1.4l-7.6,9c-0.8,0.9-1.9,1.4-3.1,1.4H4c-2.2,0-4,1.8-4,4v48.4c0,2.2,1.8,4,4,4
	h56.1c-1-2.1-1.6-4.6-1.6-7.1c0-0.3,0-0.6,0-0.9H8V19.9h12.4c3.5,0,6.9-1.6,9.2-4.3L36,8h12.6l7.4,8C58.3,18.5,61.5,19.9,64.8,19.9z
	"/>
<defs>
	<filter id="Adobe_OpacityMaskFilter" filterUnits="userSpaceOnUse" x="-2.5" y="-2.5" width="88.1" height="73.3">
		<feColorMatrix  type="matrix" values="1 0 0 0 0  0 1 0 0 0  0 0 1 0 0  0 0 0 1 0"/>
	</filter>
</defs>
<mask maskUnits="userSpaceOnUse" x="-2.5" y="-2.5" width="88.1" height="73.3" id="path-1-inside-1">
	<path class="st1" d="M64.8,19.9h10.3v24.9c2.9,0,5.6,0.8,8,2.2V15.9c0-2.2-1.8-4-4-4H64.8c-1.1,0-2.2-0.5-2.9-1.3l-8.6-9.3
		C52.6,0.5,51.5,0,50.4,0H34.1c-1.2,0-2.3,0.5-3.1,1.4l-7.6,9c-0.8,0.9-1.9,1.4-3.1,1.4H4c-2.2,0-4,1.8-4,4v48.4c0,2.2,1.8,4,4,4
		h56.1c-1-2.1-1.6-4.6-1.6-7.1c0-0.3,0-0.6,0-0.9H8V19.9h12.4c3.5,0,6.9-1.6,9.2-4.3L36,8h12.6l7.4,8C58.3,18.5,61.5,19.9,64.8,19.9
		z"/>
</mask>
<path class="st2" d="M75.1,19.9h2v-2h-2V19.9z M75.1,44.8h-2v2l2,0L75.1,44.8z M83.1,47l-1,1.7l3,1.7V47H83.1z M61.9,10.6l-1.5,1.4
	l0,0L61.9,10.6z M53.3,1.3l-1.5,1.4l0,0L53.3,1.3z M31.1,1.4l-1.5-1.3l0,0L31.1,1.4z M23.5,10.5l1.5,1.3l0,0L23.5,10.5z M60.1,68.3
	v2h3.2l-1.4-2.9L60.1,68.3z M58.6,60.3l2,0.1l0.1-2.1h-2.1V60.3z M8,60.3H6v2h2V60.3z M8,19.9v-2H6v2H8z M29.6,15.6l1.5,1.3
	L29.6,15.6z M36,8V6h-0.9l-0.6,0.7L36,8z M48.6,8l1.5-1.4L49.5,6h-0.9V8z M56,16l1.5-1.4L56,16z M75.1,17.9H64.8v4h10.3V17.9z
	 M77.1,44.8V19.9h-4v24.9H77.1z M75.1,46.8c2.6,0,5,0.7,7,1.9l2-3.5c-2.6-1.5-5.7-2.4-9-2.5L75.1,46.8z M85.1,47V15.9h-4V47H85.1z
	 M85.1,15.9c0-3.3-2.7-6-6-6v4c1.1,0,2,0.9,2,2H85.1z M79.1,9.9H64.8v4h14.3V9.9z M64.8,9.9c-0.6,0-1.1-0.2-1.5-0.6l-2.9,2.7
	c1.1,1.2,2.7,1.9,4.4,1.9V9.9z M63.4,9.2l-8.6-9.3l-2.9,2.7l8.6,9.3L63.4,9.2z M54.8-0.1C53.7-1.3,52.1-2,50.4-2v4
	c0.6,0,1.1,0.2,1.5,0.6L54.8-0.1z M50.4-2H34.1v4h16.2V-2z M34.1-2c-1.8,0-3.4,0.8-4.6,2.1l3.1,2.6C33,2.3,33.6,2,34.1,2V-2z
	 M29.6,0.1l-7.6,9l3.1,2.6l7.6-9L29.6,0.1z M21.9,9.2c-0.4,0.5-0.9,0.7-1.5,0.7v4c1.8,0,3.4-0.8,4.6-2.1L21.9,9.2z M20.4,9.9H4v4
	h16.4V9.9z M4,9.9c-3.3,0-6,2.7-6,6h4c0-1.1,0.9-2,2-2V9.9z M-2,15.9v48.4h4V15.9H-2z M-2,64.3c0,3.3,2.7,6,6,6v-4c-1.1,0-2-0.9-2-2
	H-2z M4,70.3h56.1v-4H4V70.3z M61.9,67.4c-0.9-1.9-1.4-4-1.4-6.2h-4c0,2.9,0.6,5.6,1.8,8L61.9,67.4z M60.5,61.2c0-0.3,0-0.5,0-0.8
	l-4-0.2c0,0.3,0,0.7,0,1H60.5z M8,62.3h50.6v-4H8V62.3z M6,19.9v40.4h4V19.9H6z M20.4,17.9H8v4h12.4V17.9z M28,14.3
	c-1.9,2.3-4.7,3.6-7.6,3.6v4c4.1,0,8-1.8,10.7-5L28,14.3z M34.5,6.7L28,14.3l3.1,2.6l6.4-7.6L34.5,6.7z M48.6,6H36v4h12.6V6z
	 M57.5,14.7l-7.4-8l-2.9,2.7l7.4,8L57.5,14.7z M64.8,17.9c-2.8,0-5.5-1.2-7.4-3.2l-2.9,2.7c2.7,2.9,6.4,4.5,10.3,4.5V17.9z"/>
<circle class="st3" cx="42.7" cy="38.1" r="16.8"/>
<path class="st4" d="M65,59.3h8.7 M82.5,59.3h-8.8 M73.8,59.3V50 M73.8,59.3v8.2"/>
</svg>
