<svg width="71" height="70" viewBox="0 0 71 70" fill="none" xmlns="http://www.w3.org/2000/svg">
<path d="M52.5284 17.5756C48.5987 17.5756 45.4019 20.8001 45.4019 24.7633C45.4019 28.7265 48.5987 31.951 52.5284 31.951C56.4578 31.951 59.6549 28.7267 59.6549 24.7633C59.6549 20.7998 56.458 17.5756 52.5284 17.5756ZM52.5284 29.1617C50.1237 29.1617 48.1674 27.1886 48.1674 24.7633C48.1674 22.338 50.1237 20.365 52.5284 20.365C54.9329 20.365 56.8893 22.338 56.8893 24.7633C56.8893 27.1883 54.933 29.1617 52.5284 29.1617Z" fill="#E2645A"/>
<path d="M52.5776 62.2219C52.5431 62.1368 52.5002 62.0559 52.4504 61.9806C52.4006 61.9039 52.3425 61.8328 52.2789 61.7686C52.2153 61.7044 52.1448 61.6459 52.0687 61.5957C51.9941 61.5455 51.9139 61.5022 51.8295 61.4674C51.7465 61.4325 51.6594 61.4046 51.5709 61.3879C51.3925 61.3516 51.21 61.3516 51.0316 61.3879C50.9431 61.4046 50.856 61.4325 50.773 61.4674C50.6887 61.5022 50.6085 61.5455 50.5338 61.5957C50.4578 61.6459 50.3872 61.7044 50.3236 61.7686C50.26 61.8328 50.2019 61.9039 50.1522 61.9806C50.1024 62.0559 50.0595 62.1368 50.0249 62.2219C49.9904 62.3056 49.9627 62.3934 49.9461 62.4827C49.9281 62.5719 49.9185 62.664 49.9185 62.7546C49.9185 62.8453 49.9281 62.9373 49.9461 63.0266C49.9627 63.1159 49.9904 63.2037 50.0249 63.2874C50.0595 63.3725 50.1024 63.4534 50.1522 63.5287C50.2019 63.6054 50.26 63.6765 50.3236 63.7407C50.3553 63.7726 50.3888 63.8032 50.4236 63.832C50.4589 63.861 50.4956 63.8885 50.5338 63.9136C50.6085 63.9638 50.6887 64.0071 50.773 64.0419C50.856 64.0768 50.9431 64.1047 51.0316 64.1214C51.1201 64.1395 51.2114 64.1493 51.3013 64.1493C51.3912 64.1493 51.4824 64.1395 51.5709 64.1214C51.6594 64.1047 51.7465 64.0768 51.8295 64.0419C51.9139 64.0071 51.9941 63.9638 52.0687 63.9136C52.1069 63.8884 52.1437 63.861 52.179 63.832C52.2139 63.8032 52.2473 63.7726 52.2789 63.7407C52.3425 63.6765 52.4006 63.6054 52.4504 63.5287C52.5002 63.4534 52.5431 63.3725 52.5776 63.2874C52.6122 63.2037 52.6398 63.1159 52.6578 63.0266C52.6758 62.9373 52.6841 62.8453 52.6841 62.7546C52.6841 62.664 52.6758 62.5719 52.6578 62.4827C52.6398 62.3933 52.6122 62.3054 52.5776 62.2219Z" fill="#E2645A"/>
<path d="M30.8154 7.03106C30.7808 6.94738 30.738 6.86649 30.6882 6.78978C30.6384 6.71447 30.5803 6.64195 30.5167 6.5778C30.4531 6.51364 30.3826 6.45507 30.3065 6.40486C30.2319 6.35465 30.1517 6.31142 30.0673 6.27655C29.9843 6.24169 29.8972 6.21519 29.8087 6.19706C29.6303 6.1608 29.4478 6.1608 29.2694 6.19706C29.1809 6.21519 29.0938 6.24169 29.0094 6.27655C28.9265 6.31142 28.8463 6.35465 28.7716 6.40486C28.6956 6.45507 28.625 6.51364 28.5614 6.5778C28.4978 6.64195 28.4397 6.71447 28.3886 6.78978C28.3388 6.86649 28.2973 6.94738 28.2627 7.03106C28.2282 7.11474 28.2005 7.2026 28.1839 7.29186C28.1659 7.38251 28.1562 7.47316 28.1562 7.56521C28.1562 7.65586 28.1659 7.74651 28.1839 7.83716C28.2005 7.92642 28.2282 8.01429 28.2627 8.09796C28.2973 8.18164 28.3388 8.26253 28.3886 8.33924C28.4397 8.41455 28.4978 8.48707 28.5614 8.55123C28.625 8.61538 28.6956 8.67395 28.7716 8.72416C28.8463 8.77437 28.9265 8.8176 29.0094 8.85247C29.0938 8.88734 29.1809 8.91383 29.2694 8.93197C29.3579 8.9501 29.4492 8.95986 29.5391 8.95986C29.629 8.95986 29.7202 8.9501 29.8087 8.93197C29.8972 8.91383 29.9843 8.88734 30.0673 8.85247C30.1517 8.8176 30.2319 8.77437 30.3065 8.72416C30.3826 8.67395 30.4531 8.61538 30.5167 8.55123C30.5803 8.48707 30.6384 8.41455 30.6882 8.33924C30.738 8.26253 30.7808 8.18164 30.8154 8.09796C30.85 8.01429 30.8776 7.92642 30.8942 7.83716C30.9122 7.74651 30.9219 7.65586 30.9219 7.56521C30.9219 7.47316 30.9122 7.38251 30.8942 7.29186C30.8776 7.2026 30.85 7.11474 30.8154 7.03106Z" fill="#E2645A"/>
<path d="M63.0737 6.17474C62.2446 2.6394 59.0913 2.69811e-09 55.3361 2.69811e-09H11.9498C5.36073 -0.000139464 0 5.40655 0 12.0521V55.8104C0 60.1563 3.44554 63.7035 7.72603 63.8253C8.55516 67.3606 11.7085 70 15.4637 70H62.8472C67.2323 70 70.7998 66.4019 70.7998 61.9793V51.4554V14.1895C70.7998 9.84368 67.3542 6.29649 63.0737 6.17474ZM68.0342 61.9796C68.0342 64.8642 65.7073 67.211 62.8472 67.211H15.4637C13.2498 67.211 11.3564 65.8044 10.6135 63.8313C10.3965 63.2553 10.2768 62.6314 10.2768 61.9796V61.0419V54.5806L26.141 27.451C26.624 26.6251 27.4854 26.1428 28.4304 26.1582C29.3811 26.1746 30.22 26.687 30.6747 27.5293L37.5052 40.1792L47.4339 58.5668C47.6848 59.0315 48.1595 59.2947 48.6495 59.2947C48.873 59.2947 49.0996 59.2399 49.3097 59.1245C49.9804 58.7561 50.228 57.9091 49.8628 57.2327L46.6409 51.2656C48.0555 51.3314 49.4469 50.8694 50.5549 49.9424L56.7735 44.7394C57.7708 43.905 59.2434 43.9417 60.1986 44.8249L60.5233 45.1251L63.2889 47.6819L68.0342 52.0691V61.9796ZM68.0342 48.2851L63.2888 43.8978L60.5232 41.7738C58.7212 41.0137 56.5787 41.2781 55.0077 42.5925L48.7891 47.7954C48.1051 48.3678 47.2121 48.599 46.3393 48.4298C45.4664 48.2608 44.7221 47.7122 44.297 46.925L39.934 38.8449L37.4977 34.333V34.3329L33.1036 26.195C32.1663 24.4593 30.437 23.4029 28.4777 23.3691C26.5189 23.3382 24.7543 24.3316 23.7589 26.0339L10.2766 49.0898V14.1895C10.2766 11.3049 12.6035 8.95807 15.4635 8.95807H24.0082C24.7719 8.95807 25.391 8.33368 25.391 7.5634C25.391 6.79313 24.7719 6.16874 24.0082 6.16874H15.4635C11.0785 6.16874 7.511 9.76683 7.511 14.1895V54.1999V61.0214C4.85698 60.7945 2.76562 58.5449 2.76562 55.8104V12.0521C2.76562 6.94445 6.88569 2.78919 11.9498 2.78919H55.3361C57.55 2.78919 59.4433 4.19571 60.1863 6.16888H35.0706C34.3069 6.16888 33.6878 6.79327 33.6878 7.56354C33.6878 8.33382 34.3069 8.95821 35.0706 8.95821H60.523L63.2886 8.97857C65.9428 9.20534 68.0342 11.4549 68.0342 14.1895V48.2851Z" fill="#E2645A"/>
</svg>
