<svg width="71" height="70" viewBox="0 0 71 70" fill="none" xmlns="http://www.w3.org/2000/svg">
<path fill-rule="evenodd" clip-rule="evenodd" d="M35.4275 0C15.8922 0 0 15.7005 0 35C0 54.2995 15.8922 70 35.4275 70C54.9627 70 70.8549 54.2995 70.8549 35C70.8549 15.7005 54.9627 0 35.4275 0ZM35.4261 66.0373C18.1 66.0373 4.00928 52.1133 4.00928 34.9996C4.00928 17.8859 18.1 3.96185 35.4261 3.96185C52.7521 3.96185 66.8429 17.8859 66.8429 34.9996C66.8429 52.1133 52.7521 66.0373 35.4261 66.0373ZM46.9887 46.4209C47.7707 45.6483 47.7707 44.3903 46.9887 43.6209L37.4333 34.1775V12.4841C37.4333 11.3912 36.5342 10.503 35.4279 10.503C34.3217 10.503 33.4226 11.3912 33.4226 12.4841V34.9997C33.4226 35.5247 33.6332 36.0299 34.0108 36.3997L44.1545 46.4209C44.5455 46.8072 45.0602 47.002 45.5716 47.002C46.0829 47.002 46.5976 46.8072 46.9887 46.4209Z" fill="#E2645A"/>
</svg>
