<svg width="72" height="70" viewBox="0 0 72 70" fill="none" xmlns="http://www.w3.org/2000/svg">
<path d="M31.4027 53.8324C37.6487 53.8324 43.6389 51.4018 48.0555 47.0753C52.4721 42.7488 54.9533 36.8808 54.9533 30.7622C54.9533 24.6436 52.4721 18.7756 48.0555 14.4491C43.6389 10.1226 37.6487 7.69201 31.4027 7.69201C25.1567 7.69201 19.1666 10.1226 14.75 14.4491C10.3334 18.7756 7.85217 24.6436 7.85217 30.7622C7.85217 36.8808 10.3334 42.7488 14.75 47.0753C19.1666 51.4018 25.1567 53.8324 31.4027 53.8324ZM56.2093 49.626L70.2612 63.3912C70.6358 63.7462 70.9345 64.1706 71.1399 64.6399C71.3452 65.1091 71.4531 65.6138 71.4573 66.1243C71.4615 66.6348 71.3618 67.1411 71.1641 67.6135C70.9664 68.0859 70.6746 68.515 70.3058 68.8757C69.937 69.2365 69.4986 69.5217 69.0161 69.7147C68.5336 69.9077 68.0166 70.0046 67.4955 69.9998C66.9743 69.995 66.4594 69.8886 65.9806 69.6868C65.5019 69.4849 65.069 69.1917 64.7072 68.8242L50.6553 55.059C44.3456 59.857 36.4064 62.1192 28.454 61.3849C20.5016 60.6506 13.1338 56.975 7.8504 51.1065C2.56701 45.238 -0.234768 37.6177 0.0154218 29.7968C0.265612 21.9759 3.54896 14.5424 9.19708 9.00949C14.8452 3.47658 22.4335 0.260194 30.4172 0.0151072C38.401 -0.22998 46.18 2.51465 52.1707 7.69028C58.1613 12.8659 61.9134 20.0835 62.663 27.8737C63.4126 35.6639 61.1033 43.4411 56.2054 49.6221L56.2093 49.626Z" fill="#E2645A"/>
</svg>
