<svg width="76" height="70" viewBox="0 0 76 70" fill="none" xmlns="http://www.w3.org/2000/svg">
<path fill-rule="evenodd" clip-rule="evenodd" d="M74.5979 6.17555C74.8486 6.42564 75.0475 6.72274 75.1832 7.04983C75.319 7.37692 75.3888 7.72757 75.3888 8.0817C75.3888 8.43583 75.319 8.78648 75.1832 9.11357C75.0475 9.44066 74.8486 9.73776 74.5979 9.98785L36.9056 47.6801C36.6555 47.9308 36.3584 48.1298 36.0313 48.2655C35.7042 48.4012 35.3536 48.4711 34.9994 48.4711C34.6453 48.4711 34.2947 48.4012 33.9676 48.2655C33.6405 48.1298 33.3434 47.9308 33.0933 47.6801L16.9395 31.5263C16.6891 31.276 16.4906 30.9788 16.3551 30.6517C16.2196 30.3247 16.1499 29.9741 16.1499 29.6201C16.1499 29.2661 16.2196 28.9156 16.3551 28.5885C16.4906 28.2615 16.6891 27.9643 16.9395 27.714C17.1898 27.4637 17.4869 27.2651 17.814 27.1296C18.1411 26.9942 18.4916 26.9244 18.8456 26.9244C19.1996 26.9244 19.5502 26.9942 19.8772 27.1296C20.2043 27.2651 20.5014 27.4637 20.7518 27.714L34.9994 41.9671L70.7856 6.17555C71.0356 5.92482 71.3327 5.7259 71.6598 5.59017C71.9869 5.45445 72.3376 5.38458 72.6917 5.38458C73.0458 5.38458 73.3965 5.45445 73.7236 5.59017C74.0507 5.7259 74.3478 5.92482 74.5979 6.17555Z" fill="#E2645A"/>
<path fill-rule="evenodd" clip-rule="evenodd" d="M35 5.38916C29.1427 5.38916 23.4168 7.12607 18.5466 10.3802C13.6764 13.6344 9.88051 18.2597 7.63899 23.6712C5.39748 29.0827 4.811 35.0374 5.95371 40.7822C7.09643 46.527 9.91701 51.804 14.0588 55.9457C18.2006 60.0875 23.4775 62.9081 29.2223 64.0508C34.9672 65.1935 40.9218 64.607 46.3333 62.3655C51.7448 60.124 56.3701 56.3281 59.6243 51.4579C62.8785 46.5877 64.6154 40.8619 64.6154 35.0045C64.6154 34.2905 64.899 33.6057 65.4039 33.1008C65.9088 32.5959 66.5936 32.3122 67.3077 32.3122C68.0217 32.3122 68.7065 32.5959 69.2114 33.1008C69.7163 33.6057 70 34.2905 70 35.0045C69.999 42.709 67.4558 50.1979 62.765 56.3098C58.0741 62.4216 51.4976 66.8149 44.0554 68.8083C36.6133 70.8016 28.7213 70.2837 21.6035 67.3347C14.4857 64.3857 8.53985 59.1706 4.68803 52.4981C0.836212 45.8255 -0.706308 38.0685 0.299699 30.4299C1.30571 22.7914 4.80402 15.6982 10.2521 10.2505C15.7002 4.80278 22.7936 1.30492 30.4322 0.299406C38.0708 -0.70611 45.8277 0.836906 52.5 4.68916C52.8217 4.85746 53.1061 5.08912 53.336 5.37018C53.5659 5.65124 53.7366 5.9759 53.8377 6.32463C53.9389 6.67336 53.9685 7.03895 53.9247 7.39941C53.8809 7.75987 53.7647 8.10775 53.583 8.42211C53.4012 8.73648 53.1578 9.01084 52.8673 9.22869C52.5768 9.44654 52.2453 9.60338 51.8926 9.68977C51.5399 9.77615 51.1734 9.79031 50.8151 9.73137C50.4568 9.67244 50.1141 9.54164 49.8077 9.34684C45.3074 6.74441 40.1986 5.37898 35 5.38916Z" fill="#E2645A"/>
</svg>
