<svg width="71" height="70" viewBox="0 0 71 70" fill="none" xmlns="http://www.w3.org/2000/svg">
<path d="M51.0806 2.71042L10.6374 0.00531356C9.31901 -0.0820231 8.17556 0.917694 8.08726 2.23568L7.77091 6.96623H2.3956C1.07473 6.96623 0 8.04097 0 9.36183V67.6044C0 68.9253 1.07473 70 2.3956 70H33.3523C33.6206 70 33.8865 69.8904 34.0768 69.7009L38.7499 65.0484C38.7975 65.0585 38.8459 65.0666 38.8957 65.0699L46.874 65.6035C48.1474 65.6875 49.3388 64.6518 49.4242 63.3731L53.3109 5.2607C53.3984 3.95641 52.3847 2.79762 51.0806 2.71042ZM34.379 66.4883V59.3563C34.379 59.1677 34.5326 59.0141 34.7212 59.0141H41.8259L34.379 66.4883ZM47.3753 63.2362C47.3419 63.4429 47.2205 63.5491 47.0112 63.5547L40.6759 63.1309L45.0224 58.8037C45.216 58.6111 45.3248 58.3492 45.3248 58.0761V9.36197C45.3248 8.0411 44.2501 6.96637 42.9292 6.96637H32.2527C30.9252 6.96637 30.9252 9.01974 32.2527 9.01974H42.9292C43.118 9.01974 43.2715 9.17333 43.2715 9.36197V56.9607H34.7212C33.4004 56.9607 32.3256 58.0354 32.3256 59.3563V67.9466H2.3956C2.20696 67.9466 2.05337 67.793 2.05337 67.6044V9.36197C2.05337 9.17333 2.20696 9.01974 2.3956 9.01974H26.7852C28.1127 9.01974 28.1127 6.96637 26.7852 6.96637H9.82879L10.136 2.37285C10.1694 2.16601 10.2908 2.05991 10.5002 2.0543L50.9434 4.75927C51.1502 4.79267 51.2565 4.9141 51.2621 5.12354L47.3753 63.2362Z" fill="#E2645A"/>
<path d="M36.6649 32.4053H8.6634C8.0964 32.4053 7.63672 32.865 7.63672 33.432C7.63672 33.999 8.0964 34.4587 8.6634 34.4587H36.6649C37.2321 34.4587 37.6916 33.999 37.6916 33.432C37.6916 32.865 37.2321 32.4053 36.6649 32.4053Z" fill="#E2645A"/>
<path d="M36.6649 39.563H8.6634C8.0964 39.563 7.63672 40.0227 7.63672 40.5897C7.63672 41.1567 8.0964 41.6164 8.6634 41.6164H36.6649C37.2321 41.6164 37.6916 41.1567 37.6916 40.5897C37.6916 40.0227 37.2321 39.563 36.6649 39.563Z" fill="#E2645A"/>
<path d="M7.63672 26.2748C7.63672 26.8418 8.0964 27.3015 8.6634 27.3015H36.6649C37.2321 27.3015 37.6916 26.8418 37.6916 26.2748C37.6916 25.7078 37.2321 25.2481 36.6649 25.2481H8.6634C8.0964 25.2481 7.63672 25.7078 7.63672 26.2748Z" fill="#E2645A"/>
<path d="M12.5688 19.1176C12.5688 19.6846 13.0285 20.1442 13.5955 20.1442H31.7318C32.2988 20.1442 32.7585 19.6846 32.7585 19.1176C32.7585 18.5506 32.2988 18.0909 31.7318 18.0909H13.5955C13.0285 18.0909 12.5688 18.5506 12.5688 19.1176Z" fill="#E2645A"/>
<path d="M26.6632 60.0217C24.8167 60.0267 22.9702 60.0306 21.1236 60.0335C20.503 60.0345 19.8825 60.0353 19.2619 60.0357C18.1374 60.0365 17.3797 59.8108 17.1278 58.5738C16.9148 57.528 15.4353 57.6686 15.1478 58.5738C14.4373 60.8102 13.2623 59.934 12.6041 58.4297C11.9474 56.929 11.779 55.2493 11.4922 53.6522C11.2814 52.4786 9.5065 52.8076 9.47557 53.9251C9.43477 55.3969 9.29733 56.8452 8.92376 58.2725C8.53841 59.7452 7.96086 61.1605 7.38756 62.5676C6.88777 63.7943 8.87516 64.322 9.36756 63.1136C9.87556 61.8668 10.3843 60.6131 10.7629 59.3198C11.4665 61.0117 12.9222 62.9255 14.9965 61.7976C15.3824 61.5878 15.7429 61.2895 16.0592 60.9416C17.1379 62.1882 18.7435 62.0899 20.2459 62.0881C22.3851 62.0854 24.5243 62.0807 26.6635 62.0751C27.9844 62.0717 27.9868 60.0183 26.6632 60.0217Z" fill="#E2645A"/>
<path d="M69.2555 33.6915C68.7221 33.1606 67.9886 32.8884 67.2439 32.8682L66.468 32.8721V31.4047C66.468 30.511 65.9372 29.5667 65.1767 29.0965V27.0297C65.1767 22.7766 58.555 22.7951 58.555 27.0497V29.1167C57.7804 29.5956 57.2607 30.4502 57.2607 31.4236V32.927C53.8431 33.1597 53.8334 38.3677 57.2646 38.5713C57.2865 43.1674 57.2854 47.6882 57.2607 52.3613C57.254 53.65 59.3071 53.7255 59.3141 52.3721C59.3387 47.6951 59.3398 43.1703 59.3181 38.5703L64.4119 38.545C64.4119 38.545 64.4054 53.7191 64.4054 60.5549C64.4054 63.8866 59.3104 63.9087 59.3104 60.5203L59.3122 58.648C59.3923 57.3229 57.3427 57.1993 57.2625 58.5243V60.2811C57.2625 61.7869 57.7282 63.0622 58.6298 63.9593C58.71 66.1075 59.6151 68.1862 61.1443 69.7027C61.5831 70.138 62.1905 70.0049 62.6151 69.6778C64.1709 68.1193 65.0475 66.0647 65.1023 63.8717C65.78 63.1966 66.4586 62.517 66.4586 60.1898L66.4594 50.8332C68.2349 51.3382 70.0862 49.9642 70.0862 48.1027V35.6905C70.0862 34.9345 69.7912 34.2246 69.2555 33.6915ZM59.3141 32.9075V31.4235C59.3141 31.1197 59.5226 30.865 59.8032 30.7893L63.9134 30.7689C64.0284 30.7974 64.1344 30.8517 64.2204 30.9374C64.3457 31.0621 64.4147 31.228 64.4147 31.4047V32.8823L59.3141 32.9075ZM61.87 25.7892C62.5002 25.7892 63.1232 26.4071 63.1232 27.0297V28.6951L60.6083 28.7076V27.0497C60.6084 26.358 61.174 25.7926 61.87 25.7892ZM61.8685 67.3906C61.3911 66.7141 61.0459 65.949 60.8532 65.1447C61.171 65.2136 61.493 65.2495 61.8151 65.2495C62.1747 65.2495 62.5342 65.2048 62.8882 65.1185C62.7001 65.9349 62.3554 66.7046 61.8685 67.3906ZM68.0328 48.1027C68.0328 49.0748 66.4652 49.1513 66.4652 48.1207C66.4652 48.1207 66.4669 38.4049 66.468 37.5143C66.4687 36.9399 65.9912 36.4864 65.4334 36.4864L57.4405 36.5261C56.4491 36.5261 56.4722 34.975 57.4506 34.9702L67.2541 34.9216C67.7281 34.962 67.9877 35.2184 68.0327 35.6905V48.1027H68.0328Z" fill="#E2645A"/>
</svg>
