<svg width="68" height="70" viewBox="0 0 68 70" fill="none" xmlns="http://www.w3.org/2000/svg">
<path fill-rule="evenodd" clip-rule="evenodd" d="M43.726 45.9697C42.2965 49.9379 38.2993 52.0808 34.5715 52.4662L34.2361 56.5252C34.1506 57.5529 33.3176 58.3428 32.3172 58.3449H32.1523C31.0944 58.2518 30.3096 57.2929 30.3983 56.202L30.7172 52.3585C28.518 52.0694 26.709 51.2985 23.2397 48.9175C22.356 48.3086 22.1185 47.0763 22.7091 46.1653C23.2997 45.2542 24.4948 45.0093 25.3785 45.6182C28.2485 47.591 29.5846 48.1919 31.0416 48.413L31.6299 41.2758C31.7195 40.18 32.6537 39.3666 33.7165 39.459C34.7793 39.5513 35.5683 40.5145 35.4787 41.6103L34.9289 48.413C36.9522 48.0332 39.3275 46.8937 40.1522 44.5808C40.3756 43.9799 40.4567 43.3327 40.3886 42.6931C40.1769 41.0529 39.0615 39.6883 37.5295 39.1954C28.4245 36.0435 24.1139 33.5265 24.2183 27.8576C24.2404 25.2672 25.3323 22.8094 27.2204 21.1002C28.8545 19.6554 30.9092 18.8136 33.0595 18.708L33.3564 14.4563C33.4323 13.3605 34.3554 12.5356 35.4182 12.6139C36.481 12.6922 37.2811 13.6439 37.2051 14.7397L36.8423 19.0141C41.3893 20.0061 43.2477 22.4835 43.4401 22.7952C44.0702 23.6781 43.8868 24.9205 43.0305 25.5702C42.1742 26.2198 40.9692 26.0307 40.3391 25.1478C40.2622 25.0401 39.201 23.7306 36.5399 23.022L36.254 27.7839L36.1165 30.2668C36.0583 31.3159 35.2168 32.1363 34.1976 32.1376H34.0932C33.031 32.0737 32.2193 31.1354 32.2787 30.0401L32.4162 27.5288L32.7516 22.6819C31.6356 22.8221 30.5841 23.2972 29.7276 24.0481C28.6576 25.028 28.0453 26.433 28.0451 27.9086C27.9956 30.4766 29.5846 32.2623 38.7336 35.4312C41.6929 36.4177 43.8248 39.0895 44.1934 42.2736C44.3202 43.5263 44.1601 44.7923 43.726 45.9697Z" fill="#E2645A"/>
<path fill-rule="evenodd" clip-rule="evenodd" d="M33.9447 70C18.7384 69.9981 5.38847 59.5699 1.27102 44.4772C-2.84643 29.3845 3.27325 13.3099 16.2488 5.13491C29.2244 -3.0401 45.8899 -1.32082 57.0373 9.34281C57.5808 9.81172 57.8304 10.5507 57.6869 11.2663C57.5434 11.9819 57.03 12.5583 56.3506 12.7665C55.6713 12.9746 54.9359 12.7809 54.4366 12.2623C43.991 2.26721 28.1776 1.19732 16.5547 9.69931C4.93183 18.2013 0.686935 33.9435 6.38581 47.4108C12.0847 60.8781 26.1644 68.3771 40.1147 65.3751C54.065 62.3732 64.0601 49.6935 64.0585 35.0002C64.0652 29.8 62.8001 24.682 60.3802 20.1194C60.0061 19.4954 59.9965 18.7095 60.3552 18.0759C60.7139 17.4424 61.3824 17.0646 62.0933 17.0936C62.8042 17.1227 63.4416 17.5538 63.7506 18.2146C65.2355 20.9899 66.3454 23.9615 67.0495 27.0468C69.3906 37.4483 67.0031 48.3828 60.5646 56.7464C54.1261 65.11 44.3396 69.9896 33.9832 70H33.9447Z" fill="#E2645A"/>
</svg>
