<svg width="86" height="41" viewBox="0 0 86 41" fill="none" xmlns="http://www.w3.org/2000/svg">
<rect x="0.5" y="0.5" width="85" height="39.85" rx="4.5" fill="white" stroke="#E2645A"/>
<path d="M24.6692 24.7189L24.6622 25.8249H18.4812V15.7939H24.6622V16.8999H19.8392V20.2319H23.7452V21.2959H19.8392V24.7189H24.6692ZM35.2553 20.8129C35.2553 21.5642 35.1363 22.2479 34.8983 22.8639C34.6603 23.4799 34.3243 24.0072 33.8903 24.4459C33.4563 24.8846 32.9336 25.2252 32.3223 25.4679C31.7156 25.7059 31.0436 25.8249 30.3063 25.8249H26.5613V15.7939H30.3063C31.0436 15.7939 31.7156 15.9152 32.3223 16.1579C32.9336 16.3959 33.4563 16.7366 33.8903 17.1799C34.3243 17.6186 34.6603 18.1459 34.8983 18.7619C35.1363 19.3779 35.2553 20.0616 35.2553 20.8129ZM33.8623 20.8129C33.8623 20.1969 33.7783 19.6462 33.6103 19.1609C33.4423 18.6756 33.2043 18.2649 32.8963 17.9289C32.5883 17.5929 32.2149 17.3362 31.7763 17.1589C31.3376 16.9816 30.8476 16.8929 30.3063 16.8929H27.9193V24.7259H30.3063C30.8476 24.7259 31.3376 24.6372 31.7763 24.4599C32.2149 24.2826 32.5883 24.0282 32.8963 23.6969C33.2043 23.3609 33.4423 22.9502 33.6103 22.4649C33.7783 21.9796 33.8623 21.4289 33.8623 20.8129ZM38.5697 25.8249H37.2117V15.7939H38.5697V25.8249ZM47.9185 16.9349H44.6705V25.8249H43.3195V16.9349H40.0645V15.7939H47.9185V16.9349ZM53.7496 22.1009L52.1746 18.0199C52.1279 17.8986 52.0789 17.7586 52.0276 17.5999C51.9763 17.4366 51.9273 17.2639 51.8806 17.0819C51.7826 17.4599 51.6823 17.7749 51.5796 18.0269L50.0046 22.1009H53.7496ZM56.5776 25.8249H55.5276C55.4063 25.8249 55.3083 25.7946 55.2336 25.7339C55.1589 25.6732 55.1029 25.5962 55.0656 25.5029L54.1276 23.0809H49.6266L48.6886 25.5029C48.6606 25.5869 48.6069 25.6616 48.5276 25.7269C48.4483 25.7922 48.3503 25.8249 48.2336 25.8249H47.1836L51.1946 15.7939H52.5666L56.5776 25.8249ZM60.6762 20.6519C61.0682 20.6519 61.4135 20.6052 61.7122 20.5119C62.0155 20.4139 62.2675 20.2786 62.4682 20.1059C62.6735 19.9286 62.8275 19.7186 62.9302 19.4759C63.0329 19.2332 63.0842 18.9649 63.0842 18.6709C63.0842 18.0736 62.8882 17.6232 62.4962 17.3199C62.1042 17.0166 61.5162 16.8649 60.7322 16.8649H59.2482V20.6519H60.6762ZM65.3102 25.8249H64.1062C63.8589 25.8249 63.6769 25.7292 63.5602 25.5379L60.9562 21.9539C60.8769 21.8419 60.7905 21.7626 60.6972 21.7159C60.6085 21.6646 60.4685 21.6389 60.2772 21.6389H59.2482V25.8249H57.8972V15.7939H60.7322C61.3669 15.7939 61.9152 15.8592 62.3772 15.9899C62.8392 16.1159 63.2195 16.3002 63.5182 16.5429C63.8215 16.7856 64.0455 17.0796 64.1902 17.4249C64.3349 17.7656 64.4072 18.1482 64.4072 18.5729C64.4072 18.9276 64.3512 19.2589 64.2392 19.5669C64.1272 19.8749 63.9639 20.1526 63.7492 20.3999C63.5392 20.6426 63.2802 20.8502 62.9722 21.0229C62.6689 21.1956 62.3235 21.3262 61.9362 21.4149C62.1089 21.5129 62.2582 21.6552 62.3842 21.8419L65.3102 25.8249Z" fill="#E2645A"/>
</svg>
