<svg width="72" height="70" viewBox="0 0 72 70" fill="none" xmlns="http://www.w3.org/2000/svg">
<path d="M35.8397 20.9436C28.5061 20.9436 22.5398 26.91 22.5398 34.2436C22.5398 41.5771 28.5061 47.5435 35.8397 47.5435C43.1733 47.5435 49.1397 41.5771 49.1397 34.2436C49.1397 26.91 43.1733 20.9436 35.8397 20.9436ZM35.8397 43.3435C30.822 43.3435 26.7398 39.2613 26.7398 34.2436C26.7398 29.2258 30.822 25.1436 35.8397 25.1436C40.8575 25.1436 44.9397 29.2258 44.9397 34.2436C44.9397 39.2613 40.8575 43.3435 35.8397 43.3435Z" fill="#E2645A"/>
<path d="M69.5797 32.0617C68.4199 32.0617 67.4797 33.0019 67.4797 34.1617C67.4797 51.6482 53.3288 65.8 35.8398 65.8C18.3534 65.8 4.19998 51.6507 4.19998 34.1617C4.19998 23.591 9.43652 13.8455 18.0715 7.9783L17.0204 14.1484C16.8257 15.2917 17.5947 16.3764 18.7381 16.5712C19.8829 16.7659 20.9663 15.9956 21.1609 14.8537L22.9659 4.25768C23.1611 3.11122 22.3754 2.02665 21.2483 1.83485L10.6516 0.0301149C9.50694 -0.164484 8.42348 0.604392 8.22874 1.74777C8.03401 2.89114 8.80302 3.97586 9.9464 4.1706L14.9668 5.02557C5.76223 11.6264 0 22.3382 0 34.1617C0 53.9698 16.0296 70 35.8398 70C55.6481 70 71.6797 53.9719 71.6797 34.1617C71.6797 33.0019 70.7394 32.0617 69.5797 32.0617Z" fill="#E2645A"/>
</svg>
