<svg width="54" height="70" viewBox="0 0 54 70" fill="none" xmlns="http://www.w3.org/2000/svg">
<path fill-rule="evenodd" clip-rule="evenodd" d="M41.0005 28.9595C40.9826 30.0369 40.1278 30.9015 39.0777 30.9044C38.5677 30.897 38.0815 30.682 37.726 30.3066C37.3705 29.9313 37.175 29.4264 37.1823 28.9031C37.1823 27.2119 36.6659 25.7349 35.7319 24.9231C34.3954 23.7324 32.4865 23.4979 30.9138 24.3312C29.9523 24.8865 29.1391 25.6765 28.546 26.6312C28.1806 27.3065 27.4604 27.6959 26.711 27.6234C25.9685 27.6832 25.2595 27.2963 24.8926 26.6312C24.3139 25.684 23.5056 24.907 22.5467 24.3763C20.9727 23.5314 19.0561 23.7547 17.7066 24.94C16.5584 25.9322 15.6409 28.3563 16.8771 31.8402C17.7121 34.1628 19.2009 35.9781 22.0138 38.1034C23.1126 38.9096 24.7607 39.9976 26.711 41.204C28.6888 39.9976 30.337 38.9096 31.4193 38.0978C32.9288 37.0222 34.2621 35.7073 35.3693 34.2023C35.7619 33.6233 36.4257 33.3031 37.1106 33.3624C37.7956 33.4218 38.3977 33.8516 38.6901 34.4899C38.9825 35.1283 38.9208 35.8782 38.5283 36.4573C37.1847 38.3192 35.5557 39.9451 33.7047 41.2717C32.3312 42.3033 30.293 43.6337 27.7933 45.1333C27.4978 45.3091 27.1625 45.4024 26.8209 45.4039H26.6067C26.2649 45.4039 25.9293 45.3103 25.6342 45.1333C23.1345 43.6337 21.0963 42.3146 19.7393 41.2886C17.3166 39.462 14.6575 37.0661 13.2676 33.1988C11.3502 27.8095 13.1248 23.7505 15.2289 21.924C17.7376 19.7073 21.3016 19.2621 24.2553 20.7965C25.1741 21.2691 26.0082 21.8981 26.722 22.6568C27.4298 21.9008 28.2562 21.272 29.1668 20.7965C32.1171 19.2641 35.6769 19.7093 38.1822 21.924C40.0171 23.5025 41.039 26.0675 41.0005 28.9595Z" fill="#E2645A"/>
<path fill-rule="evenodd" clip-rule="evenodd" d="M26.8759 70C23.8323 70 20.6074 68.4948 17.2781 65.5239C16.6485 65.1036 16.3149 64.3455 16.4242 63.5829C16.5334 62.8203 17.0654 62.1928 17.7863 61.9762C18.5073 61.7597 19.2851 61.9937 19.7778 62.5755C22.349 64.8699 24.7937 66.082 26.8539 66.082C29.2437 66.082 34.4903 62.0625 40.3523 53.2286C45.8296 44.9698 49.4446 36.1303 49.8511 30.1377C49.8841 29.574 49.9061 29.0102 49.9061 28.4465C49.9061 14.9336 39.5557 3.9462 26.8759 3.9462C14.1961 3.9462 3.84569 14.9336 3.84569 28.4352C3.84569 28.999 3.84569 29.5627 3.89513 30.0757C4.34563 37.3142 8.53194 47.9182 14.0752 55.8895C14.6927 56.7768 14.4922 58.0098 13.6275 58.6434C12.7627 59.277 11.5612 59.0713 10.9437 58.1839C4.94446 49.5418 0.549384 38.3345 0.0604323 30.3294C0 29.7036 0 29.0666 0 28.4352C0 12.7575 12.0865 0 26.8759 0C41.6653 0 53.7518 12.7575 53.7518 28.4352C53.7518 29.0891 53.7518 29.7487 53.6858 30.397C52.8068 44.034 36.6329 70 26.8759 70Z" fill="#E2645A"/>
</svg>
