<svg width="70" height="70" viewBox="0 0 70 70" fill="none" xmlns="http://www.w3.org/2000/svg">
<path d="M67.9492 0H2.05078C0.918203 0 0 0.918203 0 2.05078V67.9492C0 69.0818 0.918203 70 2.05078 70H67.9492C69.0818 70 70 69.0818 70 67.9492V2.05078C70 0.918203 69.0818 0 67.9492 0ZM65.8984 65.8984H4.10156V4.10156H65.8984V65.8984Z" fill="#E2645A"/>
<path d="M56.9571 33.551L51.8305 28.4244C51.0298 27.6236 49.7312 27.6236 48.9303 28.4244C48.1294 29.2251 48.1294 30.5237 48.9303 31.3246L50.5564 32.9507H37.0504V19.4447L38.6765 21.0708C39.4774 21.8717 40.7759 21.8717 41.5768 21.0708C42.3777 20.27 42.3777 18.9715 41.5768 18.1706L36.4502 13.0439C35.6611 12.2549 34.3591 12.2343 33.5493 13.0439L28.4228 18.1706C27.6219 18.9714 27.6219 20.2699 28.4228 21.0708C29.2235 21.8716 30.5221 21.8716 31.323 21.0708L32.9489 19.4447V32.9507H19.4428L21.0688 31.3246C21.8697 30.5238 21.8697 29.2253 21.0688 28.4244C20.268 27.6236 18.9695 27.6236 18.1686 28.4244L13.0421 33.551C12.2489 34.3436 12.238 35.6484 13.0421 36.4519L18.1686 41.5786C18.9695 42.3795 20.2679 42.3795 21.0688 41.5786C21.8697 40.7779 21.8697 39.4793 21.0688 38.6784L19.4428 37.0523H32.9489V50.5583L31.3227 48.9322C30.522 48.1314 29.2234 48.1314 28.4225 48.9322C27.6216 49.7329 27.6216 51.0315 28.4225 51.8324L33.549 56.9591C34.3501 57.7602 35.6512 57.7579 36.4499 56.9591L41.5765 51.8324C42.3774 51.0316 42.3774 49.7331 41.5765 48.9322C40.7757 48.1314 39.4772 48.1314 38.6763 48.9322L37.0504 50.5583V37.0523H50.5564L48.9303 38.6784C48.1294 39.4792 48.1294 40.7777 48.9303 41.5786C49.7312 42.3795 51.0296 42.3795 51.8305 41.5786L56.9571 36.4519C57.7613 35.6486 57.7513 34.3444 56.9571 33.551Z" fill="#E2645A"/>
</svg>
