<svg width="56" height="70" viewBox="0 0 56 70" fill="none" xmlns="http://www.w3.org/2000/svg">
<path d="M54.3711 55.7065C54.1648 55.5729 52.6126 54.488 51.0584 51.2061C48.2041 45.1793 47.6049 36.6893 47.6049 30.6284C47.6049 30.602 47.6044 30.5759 47.6034 30.5497C47.5723 22.5395 42.7647 15.6343 35.885 12.5362V7.79789C35.885 3.49809 32.3846 0 28.0819 0H27.4353C23.1326 0 19.6322 3.49809 19.6322 7.79789V12.5359C12.7295 15.644 7.91226 22.5844 7.91226 30.6284C7.91226 36.6893 7.31314 45.1791 4.45883 51.2061C2.90472 54.4879 1.35252 55.5728 1.14614 55.7065C0.277065 56.1077 -0.151444 57.0347 0.0484902 57.9741C0.250343 58.9228 1.13915 59.5768 2.10978 59.5768H17.1764C17.2605 65.3383 21.9737 70 27.7587 70C33.5436 70 38.2568 65.3383 38.341 59.5768H53.4076C54.3781 59.5768 55.267 58.9228 55.4689 57.9741C55.6685 57.0347 55.2401 56.1076 54.3711 55.7065ZM23.7434 7.79789C23.7434 5.76338 25.3996 4.10826 27.4354 4.10826H28.0821C30.1179 4.10826 31.7741 5.76338 31.7741 7.79789V11.2045C30.4766 10.937 29.1335 10.7961 27.7581 10.7961C26.3831 10.7961 25.0404 10.9368 23.7435 11.2041L23.7434 7.79789ZM27.7587 65.8917C24.2406 65.8917 21.3709 63.073 21.2875 59.577H34.2298C34.1464 63.0729 31.2768 65.8917 27.7587 65.8917ZM36.0356 55.4684H6.79433C7.14993 54.9156 7.51184 54.2895 7.87156 53.582C10.6265 48.162 12.0235 40.4394 12.0235 30.6284C12.0235 21.9581 19.082 14.9044 27.758 14.9044C36.434 14.9044 43.4925 21.9581 43.4925 30.6353C43.4925 30.6605 43.4929 30.6857 43.4939 30.7109C43.5017 40.4824 44.8985 48.1774 47.6458 53.582C48.0055 54.2896 48.3675 54.9156 48.723 55.4684H36.0356Z" fill="#E2645A"/>
</svg>
