<svg width="72" height="70" viewBox="0 0 72 70" fill="none" xmlns="http://www.w3.org/2000/svg">
<path fill-rule="evenodd" clip-rule="evenodd" d="M70.7936 68.6697C70.3928 69.4801 69.569 69.9949 68.6649 70H33.2317C13.9767 69.5818 0.00297546 54.8254 0.00297546 34.9312C-0.160583 22.5065 6.37418 10.955 17.1078 4.69502C27.8415 -1.56501 41.1132 -1.56501 51.8469 4.69502C62.5805 10.955 69.1153 22.5065 68.9517 34.9312C68.9517 42.871 65.5763 49.5143 62.1351 55.2078L70.5588 66.1705C71.1035 66.8921 71.1944 67.8593 70.7936 68.6697ZM33.2797 65.2207H63.8141L57.3141 56.791C56.7047 55.9907 56.6617 54.8944 57.2066 54.0488C60.588 48.672 64.1725 42.2736 64.1725 34.9312C64.3244 24.2219 58.6981 14.2604 49.448 8.86134C40.1979 3.46232 28.7573 3.46232 19.5072 8.86134C10.2571 14.2604 4.63068 24.2219 4.78259 34.9312C4.78259 52.1132 16.7908 64.8562 33.2797 65.2207Z" fill="#E2645A"/>
<path d="M32.76 48.8453V49.5024C32.76 50.7011 33.73 51.6738 34.9287 51.6771H35.3768C36.5754 51.6738 37.5454 50.7011 37.5454 49.5024V48.8453C37.5454 47.6466 36.5754 46.6739 35.3768 46.6707H34.9287C33.73 46.6739 32.76 47.6466 32.76 48.8453Z" fill="#E2645A"/>
<path d="M44.5649 28.4611C44.6213 29.7925 44.2869 31.1112 43.603 32.2548C42.4775 33.7579 41.2024 35.143 39.7974 36.389C38.7413 37.2996 37.8571 38.3923 37.1867 39.6151C36.8911 40.3138 36.7134 41.0567 36.661 41.8136C36.5482 42.9525 35.5719 43.809 34.4281 43.7728C33.2842 43.7365 32.3641 42.8199 32.3237 41.6762C32.3237 41.6105 32.3237 41.5507 32.3237 41.485C32.4011 40.4844 32.6162 39.4994 32.9629 38.5576C33.4647 37.2732 34.5282 35.8573 36.2189 34.2263L37.9394 32.5655C38.4027 32.1434 38.8048 31.6588 39.1343 31.1257C39.6698 30.3305 39.9606 29.3959 39.9707 28.4373C39.9919 27.2013 39.5678 25.999 38.7758 25.0499C37.9992 24.1119 36.6789 23.6399 34.8448 23.6399C32.5507 23.6399 31.0093 24.4465 30.1431 26.0953C29.7788 26.8639 29.5447 27.6876 29.45 28.5328C29.3105 29.6051 28.4044 30.4119 27.3232 30.4267C26.677 30.4296 26.0617 30.1503 25.6385 29.662C25.2384 29.1935 25.0618 28.5743 25.1546 27.9653C25.4204 25.9559 26.301 24.0779 27.6757 22.5885C29.468 20.6887 31.9294 19.7268 35.03 19.7268C37.8976 19.7268 40.2276 20.5513 41.9601 22.1703C43.6929 23.7949 44.642 26.0871 44.5649 28.4611Z" fill="#E2645A"/>
</svg>
